<?xml version="1.0" encoding="UTF-8"?>
<svg width="96px" height="96px" viewBox="0 0 96 96" version="1.1" xmlns="http://www.w3.org/2000/svg" xmlns:xlink="http://www.w3.org/1999/xlink">
    <title>Cam Icon</title>
    <defs>
        <linearGradient x1="49.8019559%" y1="99.8019559%" x2="49.8019559%" y2="0.198044143%" id="linearGradient-1">
            <stop stop-color="#950000" offset="0%"></stop>
            <stop stop-color="#FF2626" offset="100%"></stop>
        </linearGradient>
        <linearGradient x1="49.8019559%" y1="99.8019559%" x2="49.8019559%" y2="0.198044143%" id="linearGradient-2">
            <stop stop-color="#950000" offset="0%"></stop>
            <stop stop-color="#FF2626" offset="100%"></stop>
        </linearGradient>
    </defs>
    <g id="FetishFix--Desktop---Landing-page-Design" stroke="none" stroke-width="1" fill="none" fill-rule="evenodd">
        <g id="Desktop_LP_Home" transform="translate(-672.000000, -4304.000000)">
            <g id="Section3" transform="translate(252.000000, 4208.000000)">
                <g id="Icons" transform="translate(0.000000, 96.000000)">
                    <g id="Go-live" transform="translate(336.000000, 0.000000)">
                        <g id="Cam-Icon" transform="translate(84.000044, 0.000000)">
                            <path d="M62.6418,61.2701333 C69.3731333,67.1941333 71.1544667,71.4114667 67.8064667,73.7988 C66.4058,74.8668 64.7904667,75.0814667 63.0684667,74.5474667 C62.4191333,74.3328 61.5604667,74.0134667 60.5918,73.5841333 L58.1158,72.3048 C54.1318,70.5981333 50.7918,69.8501333 48.1004667,69.8501333 C46.4858,69.8501333 44.6531333,70.0648 42.7164667,70.5981333 C40.8864667,71.1294667 39.1638,71.7708 37.8711333,72.5194667 C36.0384667,73.5874667 34.6378,74.2281333 33.6724667,74.5474667 C31.9498,75.0814667 30.3351333,74.8668 28.9344667,73.7988 C28.0731333,73.1608 27.4264667,72.6268 27.2091333,72.3048 C26.6724667,71.6634667 26.4578,71.0248 26.5624667,70.2768 C26.7691333,68.2348 29.1678,65.3028 33.7071333,61.5034667 C37.7878,63.9854667 42.7084667,65.4394667 47.9984667,65.4394667 C53.4504667,65.4394667 58.4938,63.8888 62.6418,61.2701333 M47.9998,21.1714667 C50.1891333,21.1714667 52.0644667,22.4861333 52.8991333,24.3641333 C62.3884667,26.3061333 69.4631333,33.7408 69.4631333,42.6341333 C69.4631333,53.0061333 59.8531333,61.4141333 47.9998,61.4141333 C36.1471333,61.4141333 26.5371333,53.0061333 26.5371333,42.6341333 C26.5371333,33.7408 33.6118,26.3061333 43.1011333,24.3641333 C43.9358,22.4861333 45.8111333,21.1714667 47.9998,21.1714667 M47.9998,34.5854667 C42.0738,34.5854667 37.2684667,39.3908 37.2684667,45.3168 C37.2684667,51.2434667 42.0738,56.0488 47.9998,56.0488 C53.9264667,56.0488 58.7318,51.2434667 58.7318,45.3168 C58.7318,39.3908 53.9264667,34.5854667 47.9998,34.5854667 M47.9998,39.9514667 C50.9618,39.9514667 53.3658,42.3554667 53.3658,45.3168 C53.3658,48.2788 50.9618,50.6828 47.9998,50.6828 C45.0384667,50.6828 42.6344667,48.2788 42.6344667,45.3168 C42.6344667,42.3554667 45.0384667,39.9514667 47.9998,39.9514667" id="Fill-1" fill="url(#linearGradient-1)"></path>
                            <path d="M48,0 C21.49,0 0,21.49 0,48 C0,74.5093333 21.49,96 48,96 C74.51,96 96,74.5093333 96,48 C96,21.49 74.51,0 48,0 M48,3.27466667 C54.0393333,3.27466667 59.896,4.45666667 65.408,6.788 C70.7333333,9.04066667 75.5173333,12.266 79.6253333,16.3746667 C83.734,20.4826667 86.9593333,25.2666667 89.212,30.592 C91.5433333,36.104 92.7253333,41.9606667 92.7253333,48 C92.7253333,54.0393333 91.5433333,59.896 89.212,65.408 C86.9593333,70.7333333 83.734,75.5173333 79.6253333,79.6253333 C75.5173333,83.734 70.7333333,86.9593333 65.408,89.212 C59.896,91.5433333 54.0393333,92.7253333 48,92.7253333 C41.9606667,92.7253333 36.104,91.5433333 30.592,89.212 C25.2666667,86.9593333 20.4826667,83.734 16.3746667,79.6253333 C12.266,75.5173333 9.04066667,70.7333333 6.788,65.408 C4.45666667,59.896 3.27466667,54.0393333 3.27466667,48 C3.27466667,41.9606667 4.45666667,36.104 6.788,30.592 C9.04066667,25.2666667 12.266,20.4826667 16.3746667,16.3746667 C20.4826667,12.266 25.2666667,9.04066667 30.592,6.788 C36.104,4.45666667 41.9606667,3.27466667 48,3.27466667" id="Fill-3" fill="url(#linearGradient-2)"></path>
                        </g>
                    </g>
                </g>
            </g>
        </g>
    </g>
</svg>