<?xml version="1.0" encoding="UTF-8"?>
<svg width="85px" height="104px" viewBox="0 0 85 104" version="1.1" xmlns="http://www.w3.org/2000/svg" xmlns:xlink="http://www.w3.org/1999/xlink">
    <title>Group 64</title>
    <defs>
        <polygon id="path-1" points="7.10542736e-15 0 44.8847 0 44.8847 36.439 7.10542736e-15 36.439"></polygon>
        <polygon id="path-3" points="0 0 44.8846 0 44.8846 36.4395 0 36.4395"></polygon>
        <polygon id="path-5" points="0 0 84.9979 0 84.9979 74.75 0 74.75"></polygon>
    </defs>
    <g id="FetishFix--Desktop---Landing-page-Design" stroke="none" stroke-width="1" fill="none" fill-rule="evenodd">
        <g id="Desktop_LP_Home" transform="translate(-246.000000, -4920.000000)">
            <g id="Section4" transform="translate(156.000000, 4776.000000)">
                <g id="Card1" transform="translate(0.000000, 112.000000)">
                    <g id="Group-64" transform="translate(90.000000, 32.000000)">
                        <g id="Group-3" transform="translate(40.113300, 0.000000)">
                            <mask id="mask-2" fill="white">
                                <use xlink:href="#path-1"></use>
                            </mask>
                            <g id="Clip-2"></g>
                            <path d="M4.799,15.976 C5.377,25.403 14.737,31.669 23.498,31.669 C38.479,31.669 39.995,22.282 40.114,21.268 L40.114,9.46 C39.135,8.224 35.687,4.771 27.721,4.771 C16.658,4.771 7.264,13.48 4.799,15.976 M23.498,36.439 C17.764,36.439 11.955,34.345 7.558,30.693 C2.684,26.645 7.10542736e-15,21.09 7.10542736e-15,15.053 C7.10542736e-15,14.47 0.214,13.907 0.6,13.471 C1.087,12.921 12.701,0 27.721,0 C40.189,0 44.405,7.241 44.578,7.55 C44.779,7.906 44.885,8.309 44.885,8.719 L44.885,21.387 C44.885,21.445 44.882,21.502 44.878,21.56 C44.868,21.709 43.561,36.439 23.498,36.439" id="Fill-1" fill="#FFFFFF" mask="url(#mask-2)"></path>
                        </g>
                        <g id="Group-6">
                            <mask id="mask-4" fill="white">
                                <use xlink:href="#path-3"></use>
                            </mask>
                            <g id="Clip-5"></g>
                            <path d="M4.7706,21.2735 C4.8776,22.2025 6.3416,31.6685 21.3866,31.6685 C30.1476,31.6685 39.5076,25.4035 40.0856,15.9755 C37.6216,13.4805 28.2266,4.7705 17.1636,4.7705 C9.2216,4.7705 5.7706,8.2025 4.7706,9.4645 L4.7706,21.2735 Z M21.3866,36.4395 C1.3226,36.4395 0.0176,21.7095 0.0066,21.5605 C0.0026,21.5025 -0.0004,21.4445 -0.0004,21.3865 L-0.0004,8.7185 C-0.0004,8.3095 0.1056,7.9065 0.3066,7.5495 C0.4796,7.2415 4.6956,-0.0005 17.1636,-0.0005 C32.1836,-0.0005 43.7976,12.9215 44.2846,13.4715 C44.6706,13.9075 44.8846,14.4695 44.8846,15.0525 C44.8846,21.0905 42.2006,26.6455 37.3266,30.6935 C32.9296,34.3455 27.1196,36.4395 21.3866,36.4395 L21.3866,36.4395 Z" id="Fill-4" fill="#FFFFFF" mask="url(#mask-4)"></path>
                        </g>
                        <path d="M49.293,21.3522 C49.169,21.3522 49.045,21.3422 48.921,21.3142 C48.797,21.2952 48.682,21.2562 48.558,21.2092 C48.444,21.1612 48.339,21.1042 48.234,21.0282 C48.129,20.9612 48.033,20.8842 47.948,20.7892 C47.585,20.4362 47.385,19.9492 47.385,19.4442 C47.385,19.3202 47.394,19.1952 47.422,19.0722 C47.451,18.9482 47.48,18.8332 47.528,18.7182 C47.575,18.5942 47.642,18.4902 47.709,18.3852 C47.776,18.2802 47.852,18.1842 47.948,18.0982 C48.033,18.0032 48.129,17.9272 48.234,17.8602 C48.339,17.7932 48.444,17.7262 48.558,17.6792 C48.682,17.6312 48.797,17.6022 48.921,17.5742 C49.541,17.4502 50.199,17.6502 50.638,18.0982 C50.734,18.1842 50.81,18.2802 50.877,18.3852 C50.944,18.4902 51.01,18.5942 51.058,18.7182 C51.106,18.8332 51.134,18.9482 51.163,19.0722 C51.191,19.1952 51.201,19.3202 51.201,19.4442 C51.201,19.9492 51,20.4362 50.638,20.7892 C50.285,21.1522 49.798,21.3522 49.293,21.3522" id="Fill-7" fill="#FFFFFF"></path>
                        <path d="M69.3869,12.7381 C68.3329,12.7381 67.4739,11.8841 67.4739,10.8301 C67.4739,9.7761 68.3239,8.9221 69.3779,8.9221 L69.3869,8.9221 C70.4409,8.9221 71.2949,9.7761 71.2949,10.8301 C71.2949,11.8841 70.4409,12.7381 69.3869,12.7381 M63.8569,13.4291 C63.0579,13.4291 62.3129,12.9231 62.0459,12.1231 C61.7129,11.1241 62.2529,10.0431 63.2529,9.7101 C63.3619,9.6731 63.4819,9.6451 63.5959,9.6291 C64.6399,9.4831 65.6049,10.2051 65.7549,11.2481 C65.8939,12.2251 65.2669,13.1351 64.3299,13.3691 C64.1719,13.4091 64.0129,13.4291 63.8569,13.4291 M74.9069,13.4371 C74.8169,13.4371 74.7259,13.4311 74.6349,13.4181 C74.5209,13.4011 74.4009,13.3731 74.2929,13.3371 C73.2929,13.0031 72.7529,11.9231 73.0859,10.9231 C73.4039,9.9661 74.4079,9.4311 75.3699,9.6781 C76.3069,9.9121 76.9329,10.8211 76.7939,11.7981 C76.6579,12.7501 75.8409,13.4371 74.9069,13.4371 M58.6089,15.2911 C57.9099,15.2911 57.2349,14.9041 56.9009,14.2361 C56.4299,13.2931 56.8119,12.1471 57.7539,11.6751 C57.8349,11.6351 57.9269,11.5971 58.0129,11.5681 C59.0109,11.2351 60.0939,11.7751 60.4269,12.7751 C60.7429,13.7231 60.2729,14.7431 59.3719,15.1311 C59.1249,15.2391 58.8659,15.2911 58.6089,15.2911 M53.7499,18.0071 C53.1169,18.0071 52.4979,17.6931 52.1349,17.1211 C51.5809,16.2451 51.8229,15.0901 52.6859,14.5151 C52.7109,14.4991 52.7439,14.4771 52.7699,14.4621 C53.6729,13.9201 54.8459,14.2131 55.3879,15.1161 C55.9299,16.0201 55.6369,17.1921 54.7339,17.7341 C54.4259,17.9191 54.0859,18.0071 53.7499,18.0071" id="Fill-9" fill="#FFFFFF"></path>
                        <path d="M80.0635,15.5604 C79.5575,15.5604 79.0715,15.3504 78.7185,14.9974 C78.6325,14.9114 78.5465,14.8164 78.4795,14.7114 C78.4125,14.6064 78.3555,14.4924 78.3075,14.3774 C78.2605,14.2634 78.2215,14.1484 78.1925,14.0244 C78.1745,13.9004 78.1555,13.7764 78.1555,13.6524 C78.1555,13.5284 78.1745,13.4044 78.1925,13.2804 C78.2215,13.1564 78.2605,13.0324 78.3075,12.9184 C78.3555,12.8034 78.4125,12.6984 78.4795,12.5934 C78.5465,12.4884 78.6325,12.3924 78.7185,12.2974 C78.8035,12.2114 78.8995,12.1354 79.0045,12.0684 C79.1095,11.9924 79.2235,11.9354 79.3385,11.8874 C79.4525,11.8394 79.5675,11.8014 79.6915,11.7824 C80.3115,11.6584 80.9695,11.8584 81.4185,12.2974 C81.7705,12.6504 81.9715,13.1464 81.9715,13.6524 C81.9715,14.1584 81.7705,14.6444 81.4185,14.9974 C81.0655,15.3504 80.5685,15.5604 80.0635,15.5604" id="Fill-11" fill="#FFFFFF"></path>
                        <path d="M35.7061,21.3522 C35.2011,21.3522 34.7141,21.1522 34.3611,20.7892 C33.9981,20.4362 33.7981,19.9492 33.7981,19.4442 C33.7981,18.9382 33.9981,18.4512 34.3611,18.0982 C34.7991,17.6502 35.4581,17.4502 36.0781,17.5742 C36.2021,17.6022 36.3171,17.6312 36.4311,17.6792 C36.5551,17.7262 36.6601,17.7932 36.7651,17.8602 C36.8701,17.9272 36.9651,18.0032 37.0511,18.0982 C37.4141,18.4512 37.6141,18.9382 37.6141,19.4442 C37.6141,19.9492 37.4141,20.4362 37.0511,20.7892 C36.6981,21.1522 36.2111,21.3522 35.7061,21.3522" id="Fill-13" fill="#FFFFFF"></path>
                        <path d="M15.6205,12.7381 L15.6115,12.7381 C14.5575,12.7381 13.7025,11.8841 13.7025,10.8301 C13.7025,9.7761 14.5575,8.9221 15.6115,8.9221 C16.6645,8.9221 17.5245,9.7761 17.5245,10.8301 C17.5245,11.8841 16.6745,12.7381 15.6205,12.7381 M21.1415,13.4291 C20.9855,13.4291 20.8255,13.4091 20.6675,13.3691 C19.7305,13.1341 19.1045,12.2251 19.2435,11.2481 C19.3925,10.2051 20.3605,9.4791 21.4025,9.6291 C21.5165,9.6451 21.6365,9.6731 21.7445,9.7101 C22.7445,10.0431 23.2855,11.1241 22.9525,12.1231 C22.6855,12.9231 21.9405,13.4291 21.1415,13.4291 M10.0905,13.4371 C9.1565,13.4371 8.3405,12.7501 8.2045,11.7981 C8.0645,10.8211 8.6915,9.9111 9.6285,9.6781 C10.5935,9.4291 11.5935,9.9661 11.9125,10.9231 C12.2455,11.9231 11.7055,13.0031 10.7055,13.3371 C10.5965,13.3731 10.4765,13.4011 10.3635,13.4181 C10.2715,13.4311 10.1805,13.4371 10.0905,13.4371 M26.3885,15.2911 C26.1325,15.2911 25.8735,15.2391 25.6255,15.1311 C24.7245,14.7431 24.2555,13.7231 24.5715,12.7751 C24.9055,11.7751 25.9905,11.2371 26.9855,11.5681 C27.0705,11.5971 27.1625,11.6351 27.2435,11.6751 C28.1865,12.1471 28.5685,13.2931 28.0965,14.2361 C27.7625,14.9041 27.0885,15.2911 26.3885,15.2911 M31.2525,18.0111 C30.8965,18.0111 30.5375,17.9121 30.2185,17.7061 C29.3505,17.1521 29.0765,16.0041 29.6095,15.1161 C30.1525,14.2131 31.3245,13.9201 32.2275,14.4621 C32.2535,14.4771 32.2875,14.4991 32.3125,14.5151 C33.1895,15.1001 33.4255,16.2841 32.8415,17.1611 C32.4745,17.7131 31.8685,18.0111 31.2525,18.0111" id="Fill-15" fill="#FFFFFF"></path>
                        <path d="M4.9355,15.5604 C4.4305,15.5604 3.9335,15.3604 3.5805,14.9974 C3.2275,14.6444 3.0275,14.1584 3.0275,13.6524 C3.0275,13.5284 3.0375,13.4044 3.0655,13.2804 C3.0845,13.1564 3.1225,13.0324 3.1705,12.9184 C3.2185,12.8034 3.2755,12.6984 3.3425,12.5934 C3.4185,12.4884 3.4945,12.3924 3.5805,12.2974 C4.2865,11.5914 5.5745,11.5914 6.2805,12.2974 C6.6335,12.6604 6.8435,13.1464 6.8435,13.6524 C6.8435,14.1584 6.6335,14.6444 6.2805,14.9974 C5.9275,15.3604 5.4315,15.5604 4.9355,15.5604" id="Fill-17" fill="#FFFFFF"></path>
                        <g id="Group-21" transform="translate(0.000000, 29.250000)">
                            <mask id="mask-6" fill="white">
                                <use xlink:href="#path-5"></use>
                            </mask>
                            <g id="Clip-20"></g>
                            <path d="M65.7209,74.75 C65.3719,74.75 65.0169,74.673 64.6819,74.511 C64.6039,74.473 56.2129,70.527 42.4989,70.527 C28.7849,70.527 20.3949,74.473 20.3119,74.513 C19.1469,75.071 17.7469,74.605 17.1549,73.457 C13.2119,65.811 1.4269,59.774 1.3079,59.714 C0.5069,59.307 -0.0001,58.484 -0.0001,57.586 C-0.0001,50.943 2.9999,44.974 5.9009,39.202 C8.2949,34.44 10.5559,29.943 10.5559,25.916 C10.5559,23.165 8.9609,18.245 7.4199,13.486 C5.7299,8.272 4.1339,3.347 4.1339,0 L8.9039,0 C8.9039,2.593 10.4569,7.383 11.9579,12.016 C13.6899,17.362 15.3269,22.412 15.3269,25.916 C15.3269,31.074 12.8189,36.063 10.1639,41.345 C7.7359,46.175 5.2319,51.155 4.8279,56.193 C8.0309,57.991 16.0099,62.904 20.2789,69.373 C23.7639,68.077 31.5329,65.756 42.4989,65.756 C53.4649,65.756 61.2349,68.077 64.7189,69.373 C68.9879,62.904 76.9669,57.991 80.1709,56.193 C79.7659,51.155 77.2619,46.175 74.8339,41.345 C72.1789,36.063 69.6709,31.074 69.6709,25.916 C69.6709,22.412 71.3079,17.362 73.0399,12.016 C74.5419,7.383 76.0939,2.593 76.0939,0 L80.8639,0 C80.8639,3.347 79.2679,8.272 77.5789,13.486 C76.0369,18.245 74.4419,23.165 74.4419,25.916 C74.4419,29.942 76.7029,34.44 79.0959,39.202 C81.9979,44.974 84.9979,50.943 84.9979,57.586 C84.9979,58.484 84.4919,59.307 83.6899,59.714 C83.5709,59.774 71.7859,65.811 67.8429,73.457 C67.4199,74.277 66.5869,74.75 65.7209,74.75" id="Fill-19" fill="#FFFFFF" mask="url(#mask-6)"></path>
                        </g>
                        <path d="M69.4247,68.9248 C68.9197,68.9248 68.4327,68.7148 68.0797,68.3618 C67.9837,68.2758 67.9077,68.1808 67.8407,68.0758 C67.7737,67.9708 67.7077,67.8558 67.6597,67.7418 C67.6117,67.6278 67.5737,67.5038 67.5547,67.3888 C67.5267,67.2648 67.5167,67.1408 67.5167,67.0168 C67.5167,66.5108 67.7167,66.0148 68.0797,65.6618 C68.7857,64.9558 70.0647,64.9558 70.7697,65.6618 C71.1327,66.0148 71.3327,66.5108 71.3327,67.0168 C71.3327,67.1408 71.3237,67.2648 71.2947,67.3888 C71.2667,67.5038 71.2377,67.6278 71.1897,67.7418 C71.1427,67.8558 71.0757,67.9708 71.0087,68.0758 C70.9417,68.1808 70.8657,68.2758 70.7697,68.3618 C70.4167,68.7148 69.9307,68.9248 69.4247,68.9248" id="Fill-22" fill="#FFFFFF"></path>
                        <path d="M68.4398,74.3728 C68.3358,74.3728 68.2298,74.3638 68.1238,74.3458 C67.0838,74.1728 66.3818,73.1898 66.5558,72.1508 C66.7268,71.1188 67.6968,70.4158 68.7298,70.5738 C69.7628,70.7338 70.4758,71.6898 70.3278,72.7248 C70.3258,72.7398 70.3218,72.7628 70.3198,72.7778 C70.1638,73.7108 69.3558,74.3728 68.4398,74.3728 M67.5828,79.8458 C67.4778,79.8458 67.3728,79.8368 67.2668,79.8198 C66.2268,79.6458 65.5248,78.6628 65.6978,77.6238 C65.8698,76.5928 66.8398,75.8888 67.8728,76.0468 C68.9058,76.2068 69.6188,77.1628 69.4708,78.1978 C69.4688,78.2128 69.4648,78.2368 69.4628,78.2508 C69.3068,79.1848 68.4988,79.8458 67.5828,79.8458 M66.8638,85.3388 C65.8108,85.3388 64.9558,84.4838 64.9558,83.4308 C64.9558,83.3398 64.9638,83.2408 64.9758,83.1518 C65.1258,82.1078 66.0948,81.3828 67.1348,81.5318 C68.1468,81.6768 68.8598,82.5908 68.7648,83.5978 C68.6798,84.5738 67.8618,85.3388 66.8638,85.3388 M66.3028,90.8488 C65.2488,90.8488 64.3938,89.9948 64.3938,88.9408 C64.3938,88.8508 64.4018,88.7508 64.4138,88.6618 C64.5638,87.6188 65.5318,86.8978 66.5728,87.0428 C67.5858,87.1878 68.2978,88.1018 68.2028,89.1088 C68.1188,90.0838 67.2998,90.8488 66.3028,90.8488" id="Fill-24" fill="#FFFFFF"></path>
                        <path d="M65.9138,96.3847 C65.4078,96.3847 64.9218,96.1747 64.5688,95.8217 C64.2148,95.4687 64.0058,94.9727 64.0058,94.4767 C64.0058,93.9707 64.2148,93.4747 64.5688,93.1217 C65.0068,92.6827 65.6658,92.4727 66.2858,92.5967 C66.4098,92.6247 66.5338,92.6637 66.6488,92.7117 C66.7628,92.7587 66.8678,92.8157 66.9728,92.8827 C67.0778,92.9587 67.1728,93.0357 67.2688,93.1217 C67.6218,93.4837 67.8218,93.9707 67.8218,94.4767 C67.8218,94.9727 67.6218,95.4687 67.2688,95.8217 C66.9058,96.1747 66.4188,96.3847 65.9138,96.3847" id="Fill-26" fill="#FFFFFF"></path>
                        <path d="M15.5739,68.9248 C15.0689,68.9248 14.5819,68.7148 14.2189,68.3618 C14.1339,68.2758 14.0569,68.1808 13.9899,68.0758 C13.9139,67.9708 13.8569,67.8558 13.8089,67.7418 C13.7609,67.6278 13.7229,67.5038 13.7039,67.3888 C13.6759,67.2648 13.6659,67.1408 13.6659,67.0168 C13.6659,66.8928 13.6759,66.7588 13.7039,66.6448 C13.7229,66.5208 13.7609,66.3968 13.8089,66.2818 C13.8569,66.1668 13.9139,66.0528 13.9899,65.9578 C14.0569,65.8528 14.1339,65.7478 14.2189,65.6618 C14.9349,64.9558 16.2129,64.9558 16.9189,65.6618 C17.0049,65.7478 17.0909,65.8528 17.1579,65.9578 C17.2249,66.0528 17.2919,66.1668 17.3389,66.2818 C17.3869,66.3968 17.4159,66.5208 17.4439,66.6448 C17.4729,66.7588 17.4819,66.8928 17.4819,67.0168 C17.4819,67.1408 17.4729,67.2648 17.4439,67.3888 C17.4159,67.5038 17.3869,67.6278 17.3389,67.7418 C17.2919,67.8558 17.2249,67.9708 17.1579,68.0758 C17.0909,68.1808 17.0049,68.2758 16.9189,68.3618 C16.5659,68.7148 16.0799,68.9248 15.5739,68.9248" id="Fill-28" fill="#FFFFFF"></path>
                        <path d="M18.6953,90.8491 C17.6983,90.8491 16.8793,90.0841 16.7943,89.1091 C16.6993,88.1021 17.4123,87.1871 18.4243,87.0421 C19.4673,86.8971 20.4343,87.6191 20.5833,88.6621 C20.5963,88.7511 20.6033,88.8501 20.6033,88.9411 C20.6033,89.9951 19.7493,90.8491 18.6953,90.8491" id="Fill-30" fill="#FFFFFF"></path>
                        <path d="M18.134,85.3387 C17.137,85.3387 16.318,84.5737 16.233,83.5987 C16.138,82.5917 16.851,81.6767 17.863,81.5317 C18.905,81.3817 19.874,82.1087 20.022,83.1517 C20.035,83.2407 20.042,83.3397 20.042,83.4307 C20.042,84.4847 19.188,85.3387 18.134,85.3387" id="Fill-32" fill="#FFFFFF"></path>
                        <path d="M19.0853,96.3847 C18.5793,96.3847 18.0833,96.1747 17.7303,95.8217 C17.3773,95.4687 17.1773,94.9727 17.1773,94.4767 C17.1773,94.3427 17.1863,94.2187 17.2153,94.0947 C17.2343,93.9807 17.2723,93.8557 17.3203,93.7417 C17.3673,93.6267 17.4253,93.5127 17.4923,93.4167 C17.5683,93.3127 17.6443,93.2077 17.7303,93.1217 C18.1783,92.6827 18.8373,92.4727 19.4573,92.6057 C19.5813,92.6247 19.6963,92.6637 19.8103,92.7117 C19.9253,92.7587 20.0393,92.8157 20.1443,92.8827 C20.2493,92.9587 20.3443,93.0357 20.4303,93.1217 C20.5163,93.2077 20.6023,93.3127 20.6693,93.4167 C20.7363,93.5127 20.7933,93.6267 20.8403,93.7417 C20.8883,93.8557 20.9273,93.9807 20.9553,94.0947 C20.9743,94.2187 20.9933,94.3517 20.9933,94.4767 C20.9933,94.9727 20.7833,95.4687 20.4303,95.8217 C20.3443,95.9077 20.2493,95.9937 20.1443,96.0597 C20.0393,96.1267 19.9253,96.1837 19.8103,96.2317 C19.6963,96.2797 19.5813,96.3177 19.4573,96.3467 C19.3333,96.3657 19.2093,96.3847 19.0853,96.3847" id="Fill-34" fill="#FFFFFF"></path>
                        <path d="M59.9025,47.6671 C59.3975,47.6671 58.9105,47.4571 58.5475,47.1041 C58.1945,46.7511 57.9945,46.2551 57.9945,45.7591 C57.9945,45.2531 58.1945,44.7571 58.5475,44.4041 C58.6435,44.3181 58.7385,44.2411 58.8435,44.1651 C58.9485,44.0981 59.0535,44.0411 59.1675,43.9941 C59.2825,43.9461 59.4065,43.9081 59.5305,43.8891 C60.1505,43.7551 60.8095,43.9651 61.2475,44.4041 C61.6015,44.7571 61.8105,45.2531 61.8105,45.7591 C61.8105,46.2551 61.6015,46.7511 61.2475,47.1041 C60.8945,47.4571 60.3985,47.6671 59.9025,47.6671" id="Fill-36" fill="#FFFFFF"></path>
                        <path d="M58.3511,53.1761 C58.2471,53.1761 58.1411,53.1671 58.0351,53.1491 C56.9951,52.9761 56.2931,51.9931 56.4671,50.9541 C56.4781,50.8821 56.4961,50.8031 56.5161,50.7341 C56.8061,49.7211 57.8601,49.1321 58.8751,49.4231 C59.8651,49.7061 60.4481,50.7211 60.2041,51.7131 C59.9981,52.5761 59.2231,53.1761 58.3511,53.1761 M56.9081,58.7241 C56.8031,58.7241 56.6981,58.7151 56.5921,58.6971 C55.5521,58.5241 54.8501,57.5411 55.0231,56.5011 C55.0351,56.4301 55.0531,56.3511 55.0731,56.2821 C55.3631,55.2691 56.4161,54.6801 57.4321,54.9711 C58.4221,55.2541 59.0051,56.2691 58.7611,57.2601 C58.5551,58.1241 57.7801,58.7241 56.9081,58.7241 M55.5801,64.3001 C55.4761,64.3001 55.3701,64.2911 55.2641,64.2741 C54.2241,64.1001 53.5221,63.1171 53.6951,62.0781 C53.7071,62.0071 53.7251,61.9271 53.7451,61.8581 C54.0351,60.8451 55.0881,60.2561 56.1041,60.5481 C57.0941,60.8301 57.6771,61.8461 57.4331,62.8371 C57.2271,63.7001 56.4521,64.3001 55.5801,64.3001 M54.3771,69.9051 C54.1771,69.9051 53.9731,69.8731 53.7731,69.8071 C52.8411,69.4961 52.3081,68.5361 52.5101,67.5971 C52.7141,66.6191 53.6501,65.9561 54.6481,66.0981 C55.6921,66.2471 56.4171,67.2131 56.2681,68.2571 C56.2511,68.3701 56.2231,68.4911 56.1871,68.5991 C55.9211,69.3991 55.1761,69.9051 54.3771,69.9051 M53.3161,75.5361 C53.1151,75.5361 52.9121,75.5051 52.7121,75.4381 C51.7791,75.1271 51.2471,74.1661 51.4491,73.2281 C51.6531,72.2501 52.5881,71.5841 53.5871,71.7291 C54.6301,71.8781 55.3551,72.8451 55.2061,73.8881 C55.1901,74.0021 55.1621,74.1221 55.1261,74.2311 C54.8591,75.0311 54.1141,75.5361 53.3161,75.5361 M52.4151,81.1961 C52.3101,81.1961 52.2051,81.1871 52.0991,81.1691 C51.0591,80.9961 50.3571,80.0131 50.5301,78.9741 C50.7021,77.9421 51.6701,77.2411 52.7051,77.3971 C53.7381,77.5561 54.4511,78.5131 54.3031,79.5481 C54.3011,79.5631 54.2971,79.5861 54.2951,79.6011 C54.1391,80.5341 53.3311,81.1961 52.4151,81.1961 M51.6941,86.8831 C50.6401,86.8831 49.7861,86.0291 49.7861,84.9751 C49.7861,84.8841 49.7931,84.7851 49.8061,84.6961 C49.9551,83.6531 50.9241,82.9271 51.9651,83.0761 C52.9771,83.2211 53.6891,84.1351 53.5951,85.1421 C53.5101,86.1181 52.6911,86.8831 51.6941,86.8831" id="Fill-38" fill="#FFFFFF"></path>
                        <path d="M51.1915,92.5966 C51.0675,92.5966 50.9435,92.5876 50.8195,92.5586 C50.6955,92.5296 50.5805,92.4916 50.4665,92.4536 C50.3515,92.3966 50.2375,92.3386 50.1325,92.2726 C50.0275,92.2056 49.9325,92.1196 49.8465,92.0336 C49.7605,91.9476 49.6745,91.8526 49.6075,91.7476 C49.5405,91.6426 49.4745,91.5276 49.4265,91.4136 C49.3785,91.2996 49.3495,91.1846 49.3215,91.0606 C49.2935,90.9366 49.2835,90.8126 49.2835,90.6886 C49.2835,90.1826 49.4935,89.6866 49.8465,89.3336 C50.2845,88.8946 50.9435,88.6946 51.5635,88.8186 C51.6875,88.8376 51.8115,88.8756 51.9265,88.9236 C52.0405,88.9716 52.1455,89.0276 52.2505,89.0946 C52.3555,89.1716 52.4505,89.2476 52.5465,89.3336 C52.6325,89.4286 52.7085,89.5246 52.7755,89.6296 C52.8515,89.7346 52.9085,89.8386 52.9565,89.9536 C53.0045,90.0686 53.0425,90.1926 53.0615,90.3166 C53.0905,90.4406 53.0995,90.5646 53.0995,90.6886 C53.0995,90.8126 53.0905,90.9366 53.0615,91.0606 C53.0425,91.1846 53.0045,91.2996 52.9565,91.4136 C52.9085,91.5276 52.8515,91.6426 52.7755,91.7476 C52.7085,91.8526 52.6325,91.9476 52.5465,92.0336 C52.4505,92.1196 52.3555,92.2056 52.2505,92.2726 C52.1455,92.3386 52.0405,92.3966 51.9265,92.4536 C51.8115,92.5006 51.6875,92.5296 51.5635,92.5586 C51.4395,92.5876 51.3155,92.5966 51.1915,92.5966" id="Fill-40" fill="#FFFFFF"></path>
                        <path d="M25.0961,47.6671 C24.9721,47.6671 24.8481,47.6481 24.7241,47.6291 C24.6001,47.6001 24.4861,47.5621 24.3711,47.5141 C24.2561,47.4671 24.1421,47.4091 24.0371,47.3421 C23.9321,47.2661 23.8371,47.1901 23.7511,47.1041 C23.6651,47.0181 23.5791,46.9231 23.5121,46.8181 C23.4451,46.7131 23.3791,46.5981 23.3311,46.4841 C23.2831,46.3691 23.2551,46.2451 23.2261,46.1311 C23.1981,46.0071 23.1881,45.8831 23.1881,45.7591 C23.1881,45.6251 23.1981,45.5011 23.2261,45.3771 C23.2551,45.2631 23.2831,45.1381 23.3311,45.0241 C23.3791,44.9091 23.4451,44.7951 23.5121,44.6991 C23.5791,44.5951 23.6651,44.4901 23.7511,44.4041 C24.4571,43.6981 25.7351,43.6981 26.4511,44.4041 C26.5371,44.4901 26.6131,44.5951 26.6801,44.6991 C26.7561,44.7951 26.8141,44.9091 26.8611,45.0241 C26.9091,45.1381 26.9471,45.2631 26.9661,45.3771 C26.9951,45.5011 27.0041,45.6251 27.0041,45.7591 C27.0041,45.8831 26.9951,46.0071 26.9661,46.1311 C26.9471,46.2451 26.9091,46.3691 26.8611,46.4841 C26.8141,46.5981 26.7561,46.7131 26.6801,46.8181 C26.6131,46.9231 26.5371,47.0181 26.4511,47.1041 C26.3561,47.1901 26.2601,47.2661 26.1551,47.3421 C26.0501,47.4091 25.9451,47.4671 25.8311,47.5141 C25.7161,47.5621 25.5921,47.6001 25.4681,47.6291 C25.3441,47.6481 25.2201,47.6671 25.0961,47.6671" id="Fill-42" fill="#FFFFFF"></path>
                        <path d="M33.303,86.8831 C32.306,86.8831 31.487,86.1181 31.402,85.1421 C31.308,84.1351 32.02,83.2211 33.032,83.0761 C34.081,82.9261 35.042,83.6531 35.191,84.6961 C35.204,84.7851 35.211,84.8841 35.211,84.9751 C35.211,86.0291 34.357,86.8831 33.303,86.8831" id="Fill-44" fill="#FFFFFF"></path>
                        <path d="M31.6818,75.5365 C30.8828,75.5365 30.1388,75.0315 29.8718,74.2315 C29.8358,74.1225 29.8078,74.0015 29.7908,73.8885 C29.6418,72.8455 30.3668,71.8785 31.4108,71.7295 C32.4098,71.5845 33.3448,72.2495 33.5478,73.2275 C33.7508,74.1665 33.2178,75.1275 32.2858,75.4385 C32.0858,75.5045 31.8818,75.5365 31.6818,75.5365" id="Fill-46" fill="#FFFFFF"></path>
                        <path d="M30.621,69.905 C29.822,69.905 29.078,69.4 28.811,68.6 C28.775,68.491 28.747,68.37 28.73,68.257 C28.581,67.214 29.306,66.247 30.35,66.098 C31.35,65.956 32.283,66.618 32.487,67.596 C32.69,68.535 32.157,69.496 31.225,69.807 C31.025,69.873 30.821,69.905 30.621,69.905" id="Fill-48" fill="#FFFFFF"></path>
                        <path d="M29.4176,64.3004 C28.5456,64.3004 27.7706,63.7004 27.5646,62.8374 C27.3206,61.8454 27.9036,60.8304 28.8936,60.5474 C29.9066,60.2554 30.9626,60.8454 31.2526,61.8584 C31.2726,61.9274 31.2906,62.0064 31.3016,62.0784 C31.4756,63.1174 30.7736,64.1004 29.7336,64.2734 C29.6276,64.2914 29.5216,64.3004 29.4176,64.3004" id="Fill-50" fill="#FFFFFF"></path>
                        <path d="M28.0898,58.7238 C27.2178,58.7238 26.4428,58.1238 26.2368,57.2608 C25.9928,56.2688 26.5758,55.2538 27.5658,54.9708 C28.5788,54.6798 29.6348,55.2688 29.9248,56.2818 C29.9448,56.3508 29.9628,56.4298 29.9738,56.5018 C30.1478,57.5408 29.4458,58.5238 28.4058,58.6968 C28.2998,58.7148 28.1938,58.7238 28.0898,58.7238" id="Fill-52" fill="#FFFFFF"></path>
                        <path d="M26.6465,53.1761 C25.7745,53.1761 24.9995,52.5761 24.7935,51.7131 C24.5495,50.7211 25.1325,49.7061 26.1225,49.4231 C27.1345,49.1311 28.1915,49.7211 28.4815,50.7341 C28.5015,50.8031 28.5195,50.8821 28.5305,50.9541 C28.7045,51.9931 28.0025,52.9761 26.9625,53.1491 C26.8565,53.1671 26.7505,53.1761 26.6465,53.1761" id="Fill-54" fill="#FFFFFF"></path>
                        <path d="M33.8076,92.5966 C33.3016,92.5966 32.8156,92.3866 32.4526,92.0336 C32.0996,91.6806 31.8996,91.1846 31.8996,90.6886 C31.8996,90.1826 32.0996,89.6956 32.4526,89.3336 C32.5386,89.2476 32.6436,89.1716 32.7486,89.1046 C32.8436,89.0276 32.9586,88.9716 33.0726,88.9236 C33.1866,88.8756 33.3116,88.8376 33.4356,88.8186 C33.6736,88.7706 33.9316,88.7706 34.1796,88.8186 C34.3036,88.8376 34.4176,88.8756 34.5326,88.9236 C34.6476,88.9716 34.7616,89.0276 34.8666,89.1046 C34.9716,89.1716 35.0666,89.2476 35.1526,89.3336 C35.5056,89.6956 35.7156,90.1826 35.7156,90.6886 C35.7156,91.1846 35.5056,91.6806 35.1526,92.0336 C34.7996,92.3866 34.3036,92.5966 33.8076,92.5966" id="Fill-56" fill="#FFFFFF"></path>
                        <path d="M32.5972,81.1995 C31.7252,81.1995 30.9502,80.5995 30.7442,79.7365 C30.5002,78.7445 31.0832,77.7295 32.0732,77.4465 C33.0862,77.1545 34.1422,77.7445 34.4322,78.7575 C34.4522,78.8265 34.4702,78.9055 34.4812,78.9775 C34.6552,80.0165 33.9532,80.9995 32.9132,81.1725 C32.8072,81.1905 32.7012,81.1995 32.5972,81.1995" id="Fill-58" fill="#FFFFFF"></path>
                        <path d="M17.4299,79.8491 C16.5579,79.8491 15.7829,79.2491 15.5769,78.3861 C15.3329,77.3941 15.9159,76.3791 16.9059,76.0961 C17.9189,75.8041 18.9749,76.3941 19.2649,77.4071 C19.2849,77.4761 19.3029,77.5551 19.3139,77.6271 C19.4879,78.6661 18.7859,79.6491 17.7459,79.8221 C17.6399,79.8401 17.5339,79.8491 17.4299,79.8491" id="Fill-60" fill="#FFFFFF"></path>
                        <path d="M16.5727,74.3869 C15.7007,74.3869 14.9257,73.7869 14.7197,72.9239 C14.4757,71.9319 15.0587,70.9169 16.0487,70.6339 C17.0617,70.3419 18.1177,70.9319 18.4077,71.9449 C18.4277,72.0139 18.4457,72.0929 18.4567,72.1649 C18.6307,73.2039 17.9287,74.1869 16.8887,74.3599 C16.7827,74.3779 16.6767,74.3869 16.5727,74.3869" id="Fill-62" fill="#FFFFFF"></path>
                    </g>
                </g>
            </g>
        </g>
    </g>
</svg>