<?xml version="1.0" encoding="utf-8"?>
<!-- Generator: Adobe Illustrator 26.0.3, SVG Export Plug-In . SVG Version: 6.00 Build 0)  -->
<svg version="1.1" id="Layer_1" xmlns="http://www.w3.org/2000/svg" xmlns:xlink="http://www.w3.org/1999/xlink" x="0px" y="0px"
	 viewBox="0 0 122.5 104" style="enable-background:new 0 0 122.5 104;" xml:space="preserve">
<style type="text/css">
	.st0{fill-rule:evenodd;clip-rule:evenodd;fill:#FFFFFF;}
</style>
<g id="FetishFix--Desktop---Landing-page-Design">
	<g id="Desktop_LP_Home" transform="translate(-515.000000, -4920.000000)">
		<g id="Section4" transform="translate(156.000000, 4776.000000)">
			<g id="Card2" transform="translate(288.000000, 112.000000)">
				<g id="Group-30" transform="translate(71.000000, 32.000000)">
					<g id="Clip-2">
					</g>
					<g id="Clip-5">
					</g>
					<g id="Clip-16">
					</g>
				</g>
			</g>
		</g>
	</g>
</g>
<g>
	<path class="st0" d="M96.3,28.7c1.1-0.2,2-1.2,2-2.3c0-1.3-1.1-2.4-2.4-2.4h-1.3c6.1-10.8,9.1-17.3,9-19.3
		c-0.1-1.3-1.2-2.3-2.5-2.2c-0.2,0-0.5,0-0.9,0.1c-2.9,0.2-10.5,0.7-17.8-1.3c-3.4-1-13.7-3.9-18.3,5.2c-0.8,1.5-1,2,10.8,17.5h-0.6
		c-1.3,0-2.4,1.1-2.4,2.4c0,1.2,0.9,2.2,2,2.3C59.3,43.3,47.8,56.9,47.8,72c0,17.6,16.8,32,37.3,32c20.6,0,37.3-14.3,37.3-32
		C122.5,56.9,111,43.3,96.3,28.7z M69,7.6c2.1-3.1,5.8-3.6,12.2-1.8c6.3,1.8,12.7,1.8,16.7,1.6c-1.7,3.8-5.3,10.5-8.7,16.5H81
		C75.9,17.3,70.7,10.2,69,7.6z M85.1,99.2c-18,0-32.6-12.2-32.6-27.2c0-14.4,12.7-28.2,28.2-43.3h8.8C105,43.9,117.7,57.6,117.7,72
		C117.7,87,103.1,99.2,85.1,99.2z"/>
	<path class="st0" d="M82.5,58.3h2.7c0,0,0,0,0,0s0,0,0,0h2.7c1.7,0,3,1.6,3,3c0,1.3,1.1,2.4,2.4,2.4c1.3,0,2.4-1.1,2.4-2.4
		c0-4.1-3.6-7.8-7.8-7.8h-0.3v-3c0-1.3-1.1-2.4-2.4-2.4s-2.4,1.1-2.4,2.4v3h-0.3c-4.1,0-7.8,3.6-7.8,7.8v0.8c0,3.1,2.2,5.9,5.4,6.9
		l8.8,2.6c1.2,0.3,1.9,1.3,1.9,2.3v0.8c0,1.4-1.3,3-3,3h-5.3c-1.6,0-3.1-1.6-3.1-3c0-1.3-1.1-2.4-2.4-2.4c-1.3,0-2.4,1.1-2.4,2.4
		c0,4.1,3.7,7.8,7.8,7.8h0.2v3c0,1.3,1.1,2.4,2.4,2.4s2.4-1.1,2.4-2.4v-3h0.3c4.1,0,7.8-3.6,7.8-7.8v-0.8c0-3.2-2.1-5.9-5.3-6.9
		l-8.8-2.6c-1.2-0.4-2-1.3-2-2.3v-0.8C79.5,59.9,80.8,58.3,82.5,58.3z"/>
	<path class="st0" d="M49,50.9c0.8-0.6,1-1.8,0.4-2.7c-3.4-4.4-7.4-8.7-11.7-13c0.8-0.2,1.5-1,1.5-1.8c0-1.1-0.9-1.9-1.9-1.9h-0.9
		c4.7-8.3,7-13.3,6.9-14.8c-0.1-1-1-1.8-2-1.8c-0.2,0-0.4,0-0.7,0c-2.2,0.2-8.1,0.6-13.7-1c-2.6-0.7-10.6-3-14.2,4.1
		c-0.6,1.2-0.8,1.6,8.2,13.5h-0.3c-1.1,0-1.9,0.9-1.9,1.9c0,0.9,0.6,1.6,1.5,1.8C8.8,46.5,0,57,0,68.7c0,13.6,13,24.7,28.9,24.7
		c5.9,0,11.6-1.5,16.4-4.4c0.9-0.5,1.2-1.7,0.7-2.6c-0.5-0.9-1.7-1.2-2.6-0.7c-4.2,2.5-9.2,3.9-14.5,3.9c-13.8,0-25.1-9.4-25.1-20.9
		c0-11.1,9.8-21.7,21.7-33.4h6.8c5.2,5.1,10.2,10.1,14.1,15.2c0.4,0.5,0.9,0.8,1.5,0.8C48.3,51.3,48.7,51.1,49,50.9z M25.8,17.6
		c4.8,1.4,9.7,1.4,12.8,1.3c-1.3,2.9-4.1,8-6.7,12.6h-6.2c-3.9-5.1-7.9-10.6-9.2-12.6C18.1,16.6,20.9,16.2,25.8,17.6z"/>
	<path class="st0" d="M26.8,58.1H31c1.2,0,2.2,1.2,2.2,2.2c0,1.1,0.9,1.9,1.9,1.9c1.1,0,1.9-0.9,1.9-1.9c0-3.2-2.8-6.1-6.1-6.1h-0.2
		v-2.2c0-1.1-0.9-1.9-1.9-1.9S27,51,27,52.1v2.2h-0.2c-3.2,0-6.1,2.8-6.1,6.1V61c0,2.5,1.7,4.6,4.2,5.4l6.8,2c0.9,0.3,1.5,1,1.5,1.7
		v0.6c0,1-1,2.2-2.2,2.2h-2.1c0,0,0,0,0,0s0,0,0,0h-2c-1.2,0-2.3-1.2-2.3-2.2c0-1.1-0.9-1.9-1.9-1.9c-1.1,0-1.9,0.9-1.9,1.9
		c0,3.2,2.9,6.1,6.1,6.1H27V79c0,1.1,0.9,1.9,1.9,1.9s1.9-0.9,1.9-1.9v-2.2H31c3.2,0,6.1-2.8,6.1-6.1v-0.6c0-2.5-1.7-4.6-4.2-5.4
		l-6.8-2c-0.9-0.3-1.5-1-1.5-1.7v-0.6C24.6,59.3,25.6,58.1,26.8,58.1z"/>
</g>
</svg>
