<?xml version="1.0" encoding="utf-8"?>
<!-- Generator: Adobe Illustrator 26.0.3, SVG Export Plug-In . SVG Version: 6.00 Build 0)  -->
<svg version="1.1" id="Layer_1" xmlns="http://www.w3.org/2000/svg" xmlns:xlink="http://www.w3.org/1999/xlink" x="0px" y="0px"
	 viewBox="0 0 92.3 104" style="enable-background:new 0 0 92.3 104;" xml:space="preserve">
<style type="text/css">
	.st0{fill-rule:evenodd;clip-rule:evenodd;fill:#FFFFFF;}
</style>
<g id="Clip-18">
</g>
<g>
	<path class="st0" d="M37.3,19.9c1.1,0,1.9-0.9,1.9-1.9v-3.6c3.5,2.1,8.9,3.3,14.2,3.3c5.2,0,10.7-1.1,14.2-3.3v5.9
		c0,1.9-4.9,4.7-12.8,5c-1.1,0-1.9,0.9-1.8,2c0,1,0.9,1.8,1.9,1.8c0,0,0,0,0.1,0c5.3-0.2,9.8-1.4,12.7-3.2v5.9c0,1.7-4.3,4.4-12,4.9
		c-1.1,0.1-1.9,1-1.8,2c0.1,1,0.9,1.8,1.9,1.8c0,0,0.1,0,0.1,0c4.9-0.3,9-1.5,11.8-3.2v2.5c0,1.1,0.9,1.9,1.9,1.9
		c1.1,0,1.9-0.9,1.9-1.9v-8.1c0,0,0,0,0,0V20.3c0,0,0,0,0,0V8.8c0,0,0,0,0,0c0,0,0-0.1,0-0.1c0-0.1,0-0.2,0-0.3C71,3,61.9,0,53.4,0
		c-8.5,0-17.6,3-18,8.4c0,0.1,0,0.3,0,0.4V18C35.4,19.1,36.2,19.9,37.3,19.9z M53.4,3.8c8.7,0,14.2,3,14.2,5c0,0,0,0,0,0v0
		c0,2-5.5,5-14.2,5c-8.7,0-14.2-3-14.2-5S44.7,3.8,53.4,3.8z"/>
	<path class="st0" d="M92.2,83.9l-6.6-45c-0.1-0.8-0.6-1.5-1.3-1.8c-0.7-0.3-1.6-0.3-2.3,0.1L43.1,60.7c-0.8,0.5-1.2,1.3-1.2,2.2
		s0.6,1.7,1.4,2l9.1,4.3c-5.2,5.6-12.4,8.8-20.1,8.8c-15.2,0-27.5-12.3-27.5-27.5c0-4.9,1.3-9.8,3.8-14c0.7-1.1,0.3-2.6-0.8-3.3
		c-1.1-0.7-2.6-0.3-3.3,0.8C1.6,38.9,0,44.6,0,50.4c0,17.8,14.5,32.3,32.3,32.3c10.2,0,19.7-4.7,25.8-13c0.4-0.6,0.6-1.3,0.4-2
		c-0.2-0.7-0.7-1.3-1.3-1.6l-7.8-3.7l32-19.3l5.4,37l-7-3.3c-1.2-0.5-2.5-0.1-3.1,1C69.6,91,56,99.2,41.1,99.2
		c-15.3,0-29.1-8.5-36-22.1c-0.6-1.2-2-1.7-3.2-1.1c-1.2,0.6-1.6,2-1.1,3.2C8.5,94.5,24,104,41.1,104c15.9,0,30.5-8.3,38.7-21.9
		l9.1,4.3c0.8,0.4,1.7,0.3,2.5-0.2C92,85.6,92.4,84.7,92.2,83.9z"/>
	<path class="st0" d="M32.7,63.7c1.4,0,2.7-0.1,4-0.2c1.1-0.1,1.8-1.1,1.7-2.1c-0.1-1.1-1.1-1.8-2.1-1.7c-1.2,0.1-2.4,0.2-3.6,0.2
		c-8.7,0-14.2-3-14.2-5v-5.9c3.5,2.1,8.9,3.3,14.2,3.3c5.2,0,10.7-1.1,14.2-3.3V50c0,1.1,0.9,1.9,1.9,1.9s1.9-0.9,1.9-1.9v-6.6
		c0,0,0,0,0,0V31.8c0-0.1,0-0.3,0-0.4c-0.4-5.5-9.5-8.4-18-8.4c-8.5,0-17.6,3-18,8.4c0,0.1,0,0.3,0,0.4v11.5v0v11.5
		C14.6,60.6,23.9,63.7,32.7,63.7z M32.7,48.3c-8.7,0-14.2-3-14.2-5v0v-5.9c3.5,2.1,8.9,3.3,14.2,3.3c5.2,0,10.7-1.1,14.2-3.3v5.9
		C46.9,45.4,41.3,48.3,32.7,48.3z M32.7,26.9c8.7,0,14.2,3,14.2,5s-5.5,5-14.2,5c-8.7,0-14.2-3-14.2-5S24,26.9,32.7,26.9z"/>
</g>
</svg>
