<?xml version="1.0" encoding="utf-8"?>
<!-- Generator: Adobe Illustrator 26.0.3, SVG Export Plug-In . SVG Version: 6.00 Build 0)  -->
<svg version="1.1" id="Layer_1" xmlns="http://www.w3.org/2000/svg" xmlns:xlink="http://www.w3.org/1999/xlink" x="0px" y="0px"
	 viewBox="0 0 573.9 228.8" style="enable-background:new 0 0 573.9 228.8;" xml:space="preserve">
<style type="text/css">
	.st0{fill:#FFFFFF;}
</style>
<g>
	<path class="st0" d="M540,199.1c-1.4-1.3-1.5-3-1.5-4.7c-0.1-2.6,0-5.3,0-7.9c0-17.3,0-34.6,0-52c0-4.5-0.7-5-5.2-4.8
		c-5.4,0.2-10.9,0.1-16.3,0c-1.2,0-2.4-0.6-3.7-0.9c0.1,2.6,0.1,5,0.2,7.4c0,0.8,0.1,1.8-0.2,2.5c-0.8,1.5-0.7,2.9,0.2,4.3
		c-2.2,1.1-2.3,1.4-0.7,3.2c0.4,0.5,1,0.9,0.3,1.4c-0.2,0.2-0.9,0.1-1.3-0.1c-1-0.5-1.9-1.1-2.9-1.6c-0.1,0-0.2,0-0.3,0
		c-1,2.1-0.8,2.7,1.2,3.3c1.1,0.3,2.3,0.7,3.4,1c0.1,0.5,0.2,1,0.2,1.5c0,4.8,0.3,9.7-0.1,14.5c-0.2,2.6-0.2,5.1,0,7.7
		c0.3,3.3-0.3,6.6-0.3,9.9c0,3.5,0.1,6.9,0.2,10.4c0,0.4,0.1,0.8,0.1,1.3c-0.1,3.6-0.3,7.3-0.4,10.9c0,1.4,0.1,2.7,0.1,4.1
		c0.1,3.1,0.3,6.3,0.2,9.4c-0.2,3.6-1.4,4.6-5,4.6c-7.9,0.2-15.8,0.3-23.7,0.5c-0.8,0-1.7,0-2.5-0.1c-2.2-0.2-3.1-1.2-3.3-3.5
		c-0.1-1.3-0.1-2.5-0.2-3.8c0-1.2,0.5-1.7,1.7-2.1c2.3-0.8,4.4-1.9,6.9-2.1c0.3,0,0.6-0.6,1.1-1.2c-0.8-0.1-1.3-0.3-1.7-0.3
		c-0.6,0-1.2,0.3-1.8,0.2c-1.9-0.5-3.5-0.1-4.7,1.5c-1.5-0.5-1.4-1.6-1-2.5c0.8-1.7,0.5-3.2,0.1-4.9c-0.5-2.2-0.3-4.5-0.1-6.8
		c0-0.6,0.8-1.2,1.3-1.8c0.4-0.4,1-0.6,1.6-1c-0.2-1-0.5-2-0.7-3.1c-0.7-0.1-1.3-0.2-2.2-0.3c0-0.6-0.2-1.3,0-1.8
		c0.3-0.6,0.9-1.4,1.5-1.5c1.2-0.3,2.5,0,3.6-0.3c1.5-0.4,3-0.9,4.4-1.6c0.9-0.5,1.7-1.3,2.5-2c-1.1-0.9-2-1.9-3.1-2.3
		c-1-0.4-2.3-0.2-3.4-0.3c-0.5-1.4,1.6-3.6-1.4-4.3c0.5-0.2,1.1-0.2,1.5-0.5c0.7-0.4,1.6-0.9,1.8-1.5c0.3-1-0.6-1.7-1.7-1.9
		c-0.8,0.5-0.8,2-2.3,1.8c-0.9-0.1-1.1,1-0.8,1.8c0.2,0.9,0.7,1.7,1,2.6c0.6,1.8,0.2,2.5-1.9,3.1c0-0.3,0-0.6,0.1-0.9
		c0.1-0.2,0.2-0.5,0.3-0.8c-0.8-0.7-2.4-0.9-2.1-2.5c0.2-1,0.6-2,1.1-3.3c-1.8-2.1,0-4.1,1-6.1c0.4,0.2,1,0.6,1.5,0.7
		c0.6,0.1,1.5,0,1.9-0.4c0.6-0.7,0.9-1.6,1.3-2.4c0.5-0.9,0.8-1.7-0.8-2.2c1.5-0.5,2.7-0.7,3.4-1.4c0.8-0.7,1-1.9,1.5-2.7
		c1.2-0.3,2.2-0.5,3.5-0.8c-0.4-0.6-0.6-1-0.8-1.3c0.9-1.2,2.9-1.4,2.5-3.6c-1.2,0-2.3,0-3.7,0c-0.3,0.6-0.5,1.3-0.9,1.9
		c-0.3,0.5-0.8,1.3-1.3,1.4c-1.4,0.3-2.2,1.1-2.4,2.5c-0.9-0.5-1-2-2.1-1.2c-1.4,1,0.4,1.9,0.2,3.2c-0.5,0-1,0-1.5-0.1
		c-0.3-0.1-0.5-0.5-0.8-0.6c-3.2-0.6-3.3-3.2-3.5-5.6c-0.1-2.1,0.2-4.2,0.3-6.5c0.3-0.2,0.8-0.5,1.4-0.8c-0.8-1.4-2.4-2.5-1.4-4.4
		c0.8-0.3,1.8-0.7,2.7-1.1c0,0.8,0,1.6-0.1,2.5c-0.1,1.4,0,1.5,1.9,1.7c0.9-3,0.7-3.5-1.7-4.3c0.4-0.9,0.7-1.8,1.2-3.1
		c0.8,0.2,1.9,0.4,3,0.6c0.3-0.6,0.7-1.1,0.8-1.8c0.1-0.6,0-1.3-0.4-1.7c-0.1-0.2-1.2-0.1-1.5,0.2c-1.4,1.4-3.4,1.2-5.2,2
		c-0.1-1.8,0.6-3.5-0.5-5.1c-0.4-0.5,0.2-1.7,0.4-2.8c0.6-0.1,1.4-0.3,2.4-0.5c0.1-1,0.2-2,0.3-3c0.8,0.1,1.6,0.5,2.1-0.7
		c-1-0.7-1.7-0.5-2.2,0.4c-0.7,0.7-1.5,1.3-2.3,2.1c-1-0.1-1.1-1-1.1-1.8c0-3.4,0-6.8,0-10.2c0-1.5-0.1-3,0-4.5c0.1-2.7,1-5.4,0-8.2
		c-0.2-0.5,0.1-1.2,0.3-1.7c1.1-2.1,0.4-4.2,0.1-6.4c-0.4-3.2-0.2-6.4-0.2-9.6c0-1,0.3-2,0.5-3.1c0.5-0.2,1.2-0.4,1.9-0.6
		c-0.3-2.5,1.6-4.8,0.3-7.3c-0.8,0.2-2,0.7-2.4,0.4c-1.1-0.9,0.3-1.7,0.5-2.6c0.2-0.8-0.2-1.8-0.3-3c0.3-0.2,0.8-0.6,1.4-1
		c-0.2-0.9-0.4-1.8-0.4-2.7c0-0.9,0.4-1.7,0.6-2.6c-2.3-0.9-2.3-1-2.1-3.4c0.1-2.3,0.1-4.6,0.2-6.8c0-0.7,0.3-1.5,0.3-2.2
		c0-0.8,0.1-1.7-0.1-2.4c-0.9-3.4-0.6-6.9-0.2-10.3c0-0.1,0.2-0.2,0.3-0.3c1.6,1.9,1.6,1.9,4.4,2c0.6,0.7,1.4,1.3,2.1,0.3
		s0.1-1.6-1.2-2.1c0,0.8,0.3,1.8-0.9,1.8c-0.1-0.7-0.3-1.3-0.5-2.2c-0.6-0.1-1.2-0.2-2-0.3c-0.3-1.9-3.2-2.5-2.2-5.5
		c0.1-0.1,0.6-0.5,1.1-0.9c0-0.2,0-0.4-0.1-0.5c-1.2-0.9-1.4-2.2-1.4-3.6c0-5.1,0-10.2,0-15.3c0-2.4-0.1-4.9,0-7.3
		c0.1-3.2,0.6-3.6,3.8-3.6c3.5,0,7,0,10.5,0c5.5,0,11,0,16.6,0c2.8,0,3,0.1,3.4,3c0.2,2.1,0.1,4.2,0.1,6.3c0,2.3,0.1,4.6,0.1,6.8
		c0,4.7,0,9.5,0.1,14.2c0,1.7,0.1,3.4,0.1,5c0,6.3,0.2,12.6-0.1,18.8c-0.1,3.6-0.5,7.2-0.1,10.9c0.2,2.2,0,4.6-0.1,6.8
		c0,0.5-0.7,0.9-1.3,1.3c-0.1-1.3,0.6-2.6-0.9-3.5c-0.1,0.5-0.3,0.9-0.4,1.3c-0.6,0-1.2,0.1-2.1,0.1c0.3,0.7,0.4,1.3,0.7,1.9
		c-0.4,0-0.9,0.2-1,0.1c-2.2-1.7-4.4-1.8-6.8-0.4c-0.5,0.3-1.5-0.1-2.2-0.1c-0.7-0.1-1.4-0.1-2.1-0.2c0,0.2-0.1,0.3-0.1,0.5
		c0.7,0.3,1.4,0.6,2.1,0.9c0.3,0.9,0.5,1.8,0.9,2.9c0.6-0.4,1-0.5,1.2-0.8c1.1-1.6,2.5-2.1,4.3-1.8c1.9,0.2,3.9,0.2,5.8,0.2
		c0.6,0,1.3,0,2.2,0c-1.2,2.8-0.4,5.1-0.1,7.5c0.2,2.3,0.5,4.6-1.6,6.4c0.2,0.8,1.3,1.2,0.6,2.4c-0.6,0.9,0.3,1.5,1.5,1.5
		c0.1-0.3,0.2-0.6,0.3-0.9c0.1-0.2,0.1-0.5,0.1-0.9c1,0.8,1.8,1.4,2.9,2.2c0.5-2.3,2.2-2.3,4-2.3c4.7,0,9.3,0,14,0
		c2.9,0,3.3-0.3,3.6-3.1c0.2-1.7,0-3.4,0-5.1c-0.1-2.6-0.2-5.3-0.2-7.9c0-2.2,1-3.2,3.3-3.1c0.7,0,1.4,0.1,2.2,0.1
		c0.1-1.1-0.4-1.4-1.2-1.6c-0.5-0.2-0.9-0.6-1.5-0.9c-0.5,0.4-1.1,0.8-1.9,1.4c-0.1-1.4-0.3-2.4-0.4-3.5c-0.2-1.8-0.4-3.6,2.1-4.1
		c-2.7-2.5-2.7-2.5-2.7-6.5c0-6.4,0-12.7,0-19.1c0-1.6-0.1-3.1,2.6-3.8c-2.2-0.6-2.8-1.6-2.5-3c0.4-1.9,0-3.9,0-5.8
		c-0.1-3.8,0-7.6,0-11.5c0-0.8,0.2-1.7,0.3-2.5c0.1-0.6,0.1-1.3,0-2c-0.1-1.9-0.3-3.9-0.3-5.8c0.1-2,0.7-2.5,2.7-2.5
		c8.5,0,17,0,25.5,0c1.8,0,3.2,0.8,4.5,2.3c-1.7,1.5-4.1-0.1-5.8,1.5c1.8,1.9,4.6,1.7,6.6,3.3c-2.9,1.3-5.6-0.4-8.4,0.5
		c-2.6,0.8-5.4,0.7-8.1,1.2c1.5,1,3,0.9,4.6,0.6c3.4-0.6,6.6,0.2,9.8,1c0.3,0.1,0.5,0.4,1,0.9c-1.6,0.8-3.1,1.4-5,2.3
		c2,0.7,3.5,1.3,5.3,2c-0.6,0.7-0.9,1.2-1.3,1.4c-0.7,0.3-1.4,0.6-2.2,0.7c-3.1,0.4-6.2,0.9-9.3,0.4c-0.2,0-0.3-0.1-0.5,0
		c-5.6,1.4-11.3,1.2-16.9,1.4c-0.2,0-0.5,0.2-0.7,0.3c0,0-0.1,0.1-0.2,0.5c5,0.3,9.9,0.6,15.1,0.9c-0.4,0.8-0.7,1.3-1.1,2.2
		c3.1,0,6.1,0,9,0c0.8,1.1,0.4,2-0.4,2.5c-0.9,0.6-2,1-3,1.2c-2.2,0.4-2.2,0.3-2.7,2.4c-0.1,0.5-1.1,1.2-1.3,1.1
		c-2.3-0.9-4.3,0.8-7,0.2c0.6,0.7,0.8,1,1,1.1c1.4,0.4,2.9,0.8,4.3,1.2c0.2,0.1,0.5,0.1,0.7,0.1c3.4-0.9,6.7-0.5,9.9,1.2
		c0.7-1.3,1.4-2.3,1.8-3.5c0.2-0.7,0.1-1.7-0.2-2.4c-1.1-2.4,0.2-4.3,1.4-6.1c0.9-1.2,2.9-0.9,3.6,0.5c0.6,1.2,0.9,2.5,1.2,3.9
		c0.2,1.2-0.1,2.2-1.3,2.7c-0.3,0.1-0.7,0.3-0.8,0.6c-0.3,0.7-0.6,1.5-0.6,2.3c0,0.9,0.7,1.2,1.7,1.1c0.4,0,0.8,0.6,1.3,0.9
		c-0.3,0.4-0.6,1-1,1.3c-0.9,0.6-1.8,1.1-2.9,1.8c0.6,1.1,1.1,1.9,1.6,2.9c-0.5,0.2-0.9,0.3-1.4,0.4c0.1,1.9,2.3,0.5,2.7,1.9l0,0
		c-0.1,0-0.2,0-0.3,0c-2.3,0.5-4.5,0.6-6.7-0.1c-1.8-0.5-2.1-0.2-3.7,0.9c0.2,1.5,1.7,0.9,2.6,1.6c-0.8,0.2-1.6,0.3-2.3,0.4
		c-0.1,0.8-0.1,1.5-0.2,2.6c3.2-0.7,5.7,2.4,9.4,1.3c-0.7-1.4-1.2-2.5-1.9-3.9c2,0.4,1.5,2.5,3,3.3c0.3-0.6,0.7-1.1,1-1.7
		c0.1,0,0.3,0,0.4,0c0.1,3.8,0.3,7.6,0.1,11.3c-0.2,3.5-0.2,6.9,0,10.4c0.2,4.5,0.1,9,0.1,13.5c0,5.4,0,10.9,0,16.3c0,1.5,0,3-1,4.4
		c-0.3,0.5-0.2,1.3-0.1,1.9c0.1,0.6,0.5,1.2,0.7,2c-0.7,0.5-1.2,0.9-2,1.6c0.8,0.3,1.4,0.6,1.9,0.8c0.4,0.9,0,1.8-1.1,2.3
		c-0.8,0.3-1.6,0.4-2.4,0.7c-1.1,0.4-2,1-1.5,2.7c0.7-0.4,1.2-0.8,1.7-1.1c0.8-0.5,1.6-1.2,2.6-0.6s1.3,1.5,1.2,2.6
		c0,0.3-0.1,0.6-0.2,0.9c-1,0-1.9,0-2.8,0c-0.2,1.1-0.5,2.2-0.7,3.2c1.5,1,1.8-0.9,3.1-1.1c0,1.9,0.1,3.8,0,5.7
		c0,0.4-0.5,0.8-0.9,1.1c-0.4,0.4-0.8,0.7-1.3,1.1c3.6,1.6,3.5,4.3,0.8,6c0.2,0.3,0.5,0.6,0.8,1c-0.6,0.5-1.2,0.9-1.7,1.4
		s-0.7,1.3-1.2,2.2c0.8,0,1.2,0,1.6,0c1.6,0,2,0.3,2.1,1.9c0.3,4.7,0.9,9.4,0.1,14.2c-0.3,1.6,0.1,3.4,0.1,5.1
		c0,0.9-0.1,1.8-0.1,2.7c0,0.4-0.1,0.9-0.1,1.2c1,4.2,0.3,8.4,0.4,12.7c0,0.2-0.2,0.5-0.3,0.9c-0.9-0.5-1.8-1-3-1.5
		c0.1,1.2,0.3,2.2,0.4,3.3c0.7,0,1.5,0.1,2.3,0.1c0.1,3.1,0.1,6.2,0.2,9.2c0.1,1.6-0.2,3.1-2.2,3.4c2.6,3.2,2.1,6.6,1.4,10.2
		c1.2,0.8,1,2,1,3.4c-0.1,3.6,0,7.1,0.3,10.7c0.3,4.5,0.2,6-5.2,5.9c-5.9-0.1-11.9,0-17.8,0c-2.8,0-5.6-0.1-8.4-0.1
		c-1.5,0-2.6-0.8-2.9-2.3c-0.2-0.7-0.2-1.5-0.2-2.3c0-5.8,0-11.5,0-17.3C538.4,201.5,538.7,200.2,540,199.1c1.5,1.9,2.9,0.2,4.3-0.1
		C542.9,198.4,541.4,198.5,540,199.1z M494.6,75.3c-1.1,0.7-2.1,1.4-3.2,2.7C493.9,77.4,493.9,77.4,494.6,75.3
		c1,0.4,1.9,0.5,2.6-0.7C495.9,74.1,495.2,74.5,494.6,75.3z M489.5,132.9c1.2-2.2,1.2-2.2-0.5-3.3
		C489.2,130.9,489.3,131.9,489.5,132.9c0.3,1.1,0.8,1.9,2.4,2.2c-0.1-0.9-0.2-1.5-0.3-2.2c2.5-0.4,2.6-0.5,1.2-2.3
		c-1.3,0.2-1.5,1.1-1.4,2.2C490.8,132.9,490.2,132.9,489.5,132.9z M552.2,156.3c0.9,0.3,1.5,0.1,1.4-1c-0.1-0.7-0.4-1.5-1.2-1.1
		c-0.3,0.1-0.3,1.1-0.4,1.7C552,156,552.1,156.2,552.2,156.3c-0.8,0.1-1.7,0.1-2.1,1.2C551.4,157.9,551.9,157.3,552.2,156.3z
		 M500.7,155.3c-1-1.4-1-1.4-2.6-0.4C499.2,155.1,499.9,155.2,500.7,155.3c0.2,0.6,0.4,1.2,0.7,1.7c0.2,0.3,0.6,0.5,0.9,0.7
		c0.3-0.4,0.7-0.7,0.8-1.1c0.1-0.4-0.2-0.8-0.3-1.2c3.3-0.6,2.9-1.1,3.1-3.4c-1.3,0.1-2.5,0.2-3.9,0.3c0.3,1.3,0.5,2.1,0.8,3
		C502,155.3,501.4,155.3,500.7,155.3z M551.2,75.8c-0.4-0.1-0.9-0.3-1.2-0.2c-0.5,0.1-0.9,0.5-1.3,0.8c-0.1,0.1,0.2,0.8,0.3,0.8
		c0.5,0.1,1.2,0.3,1.6,0C550.9,77,551,76.3,551.2,75.8c0.6-0.2,1.2-0.3,1.8-0.5c0-0.1,0-0.3,0-0.4c-1-0.3-2-0.7-3-1
		c-0.1,0.2-0.3,0.4-0.4,0.6C550.1,74.9,550.6,75.4,551.2,75.8z M563.4,144.1c1.6,1.1,1.6,1.1,2.8-0.5
		C565.1,143.8,564.3,144,563.4,144.1c-0.5-2.2-0.5-2.2-2.3-2.1c0,0.6,0.1,1.3,0.1,2c-0.6,0.1-1.2,0.2-1.8,0.3
		c-0.3,0.9-0.6,1.8-1,2.9c0.6,0,0.9,0,1.1,0c0.3,0,0.6-0.1,0.9-0.1c1.9,0.3,1.9,0.3,1.9-1.6C562.3,144.6,562.7,144.3,563.4,144.1z
		 M555.8,74.4c1.1,1.7,2.6,2.7,4.8,2.9c0.8-2.1,2.2-1.2,3.4-0.6c1.9-3,1.8-7.1,0-9.3c2.1-1.8,2-4.1,2.1-6.8c-1.8,0.2-3.3,0-4.5,1.6
		c1,0.5,1.8,0.9,2.9,1.4c-2.1,0-2.1,0-3.2,0.9c0.7,0.3,1.4,0.6,2.1,0.9c0,0.1,0,0.2,0,0.2c-1.2-0.1-2.4-0.2-3.9-0.4
		c0.1,0.6,0.3,1,0.4,1.3c-0.5,0-1-0.1-2-0.2c1,1.2,1.5,0.9,2,0.3c1,0.7,2.7,0.4,3.2,2.3c-1.1,0.5-2.2,0.9-3.2,1.4
		c0.2,0.8,1.4,1.4,0.1,2.3c-0.8-0.2-1.6-0.5-2-0.6c-0.9,0.7-1.6,1.2-2.2,1.7C555.8,74,555.8,74.2,555.8,74.4z M494.3,97.2
		c-1.5,0.1-2.7,0.2-4,0.4c-1.3,0.1-1.9,1-1.4,2.3c0.3,0.7,0.6,1.5,0.9,2.1c1.9,0.2,2.6-0.7,2.4-2.4c1.6-0.5,3-0.9,4.5-1.3
		c0.2-1.5,0-2.6-1.5-3.1c-0.1,0-0.3,0.1-0.6,0.2C494.5,95.9,494.4,96.4,494.3,97.2z M482.9,119.4c-0.9,2.4-0.7,4.2,0.4,4.8
		c0.9,0.5,2.3-0.5,3.2-2.5c0-0.1,0-0.2-0.1-0.6C485.4,120.6,484.2,120,482.9,119.4z M493,204.4c-0.1-0.2-0.1-0.4-0.2-0.6
		c-1.2,0.3-2.5,1.1-3.6,0.8c-1.6-0.4-2.4,1.1-3.8,0.9c0.2,0.9,0.4,1.7,0.5,2.3C488.9,207.7,490.7,205.6,493,204.4z M557,154.2
		c0-1.5,0-2.5,0-3.7c-1.7,0.2-3.4-1-5.3,0.7C553.5,152.2,555,153.1,557,154.2z M489.8,117.4c-0.8,0.9,0,2.5-1.7,2.7
		c-0.1,0-0.2,1.3,0,1.8c0.2,0.3,1,0.6,1.4,0.5c1.2-0.3,1.7-1.3,1.9-2.4C491.5,118.7,491.3,117.7,489.8,117.4z M558.9,41.4
		c3,0.5,5.7,0.4,8.4,0.1c0-0.2,0.1-0.4,0.1-0.5c-0.9-0.6-1.8-1.1-2.7-1.7C563.2,41.3,560.7,39.4,558.9,41.4z M543.5,164.1
		c0.6-1.2,1-2.1,1.4-3c0.5-1.2,0.2-2.1-1.2-2.6c-0.8,1.3-1.5,2.6-2.3,3.9C542.1,163,542.7,163.5,543.5,164.1z M570.6,169.8
		c-0.4,1.1-0.8,2.1-1.2,3.1c-0.7,1.6-0.6,1.8,1.3,2.7C571.9,173.3,571.9,171.6,570.6,169.8z M495.9,128.8c0.8-1.6,1.5-2.7,1.9-3.9
		c0.1-0.5-0.4-1.5-0.9-1.8c-0.8-0.4-1.3,0.4-1.3,1C495.3,125.6,494.7,127,495.9,128.8z M480.5,106c1.2,0.9,2.2,0.5,2.5-0.4
		c0.4-1.3,1.2-1.9,2.1-2.7c0.9-0.7,1.1-1.6,0.4-2.7C483.7,102.3,482.2,104.1,480.5,106z M511.6,36.5c-1.5,0.1-2.9,0.2-4.3,0.4
		c-1.3,0.2-2.8-0.5-4.1,1c3.1,0,5.9,0,8.9,0C511.8,37.2,511.7,36.8,511.6,36.5z M494.5,179.7c-1,0.5-1.9,1.3-2.9,1.5
		c-0.9,0.1-2-0.5-3.1-0.8c1.3,2.4,2.1,2.7,4.6,1.9C494.6,181.8,494.8,181.4,494.5,179.7z M541.6,195.2c1.8,0.8,3.4,0.4,4.3-1
		c0.5-0.8,0.2-1.5-0.8-1.6c-0.8-0.1-1.6-0.1-2.1,0.9C542.7,194.1,542.2,194.6,541.6,195.2z M482.7,92c0.7-0.9,1.2-1.5,1.7-2.1
		c0.6-0.9,0.6-1.8,0-2.6c-0.4-0.6-1.4-0.5-1.4,0c-0.1,1.3-0.9,2.2-1.3,3.3C481.6,91,482.2,91.4,482.7,92z M484.9,134.2
		c0.8,0.7,1.2,1.4,1.8,1.4c0.9,0.1,1.6-0.5,1.6-1.5c0-0.9-0.9-2.1-1.7-1.8C486,132.5,485.6,133.3,484.9,134.2z M485,82.7
		c0.9-1.6,1.2-3,0.4-4.6C482.9,79.9,482.8,80.8,485,82.7z M567.3,136.2c0.7,0,1.4-0.1,2-0.1c0.1-1.5,0.2-2.7,0.3-3.9
		C567.7,132.3,567.7,132.3,567.3,136.2z M565.6,185.8c0.6,1.2,1,2,1.6,3.1c1.1-0.9,2.5-1.1,1.9-2.6
		C568.5,185.1,567.2,185.5,565.6,185.8z M494.5,116.8c0,0.2,0,0.4-0.1,0.6c1.1,0.8,1.7,2.2,3.3,2.3c-0.2-1.3-0.3-2.3-0.5-3.7
		C496.4,116.4,495.5,116.6,494.5,116.8z M498.4,58.6c1.3-0.8,2.4-1.4,3.7-2.1c-1.2-1.2-2.3-1.3-3.2-0.7
		C498,56.4,497.7,57.4,498.4,58.6z M489.6,94.2c1.5-0.9,4-0.7,4.2-3.7C491.7,91.5,490,92.2,489.6,94.2z M561.4,125.8
		c-0.8-1.8-1.8-2.5-2.9-1.9c-0.4,0.2-0.7,0.8-0.8,1.3c0,0.1,0.7,0.7,1.1,0.7C559.5,126,560.4,125.9,561.4,125.8z M501,110.2
		c-1.1,0.6-2.5,0.7-1.9,2.2c0.2,0.5,1.9,1,2.4,0.6C502.8,112,501.5,111.2,501,110.2z M501.7,173.4c0.7,2.1,1.6,2.7,2.8,1.9
		c0.3-0.2,0.6-0.8,0.6-1.2c0-0.2-0.5-0.6-0.9-0.7C503.4,173.3,502.6,173.4,501.7,173.4z M480.3,93.6c-0.7,1.8-0.5,3.1,0.2,4.5
		C482.1,97,482.1,96.1,480.3,93.6z M492.4,69.6c1.1,0.8,1.9,1.4,2.7,1.9c1-0.8,1-1.5,0.5-2.1C494.8,68.5,493.8,68.5,492.4,69.6z
		 M486.5,191.5c-3.3-1.1-3.3-1.1-4.1,0.1C485.6,193.1,485.6,193.1,486.5,191.5z M551.5,162.9c-1.1-1-1.3-2.4-2.8-2.7
		C548.2,163.2,548.6,163.6,551.5,162.9z M517.2,115.4c-1.3-1.7-2.2-1.7-3.3-0.1C515.4,116.3,515.4,116.3,517.2,115.4z M552.3,203.1
		c-0.7,1.9-0.7,1.9,0.3,3.2C554.4,205,554.4,204.8,552.3,203.1z M498.5,167.1c0.1,1.3-0.3,2.8,1.3,3.6
		C500.7,168.9,500.5,168.5,498.5,167.1z M554,185.1c-1.9-1.5-2.2-1.5-3.5,0.2C551.7,186.2,552.7,186.1,554,185.1z M489.5,166
		c-0.1,1.5,0.2,2.2,1.2,2.4c0.8,0.2,1.7,0.4,2.2-0.9C491.8,167,490.8,166.5,489.5,166z M565.2,142.4c0.2-0.3,0.4-0.5,0.4-0.8
		c0.1-0.8,0.7-1.7-0.3-2.3c-0.3-0.2-1.1,0.1-1.3,0.4c-0.8,0.9-0.2,1.7,0.5,2.4C564.6,142.2,564.8,142.3,565.2,142.4z M571.6,128.5
		c0.2-1.6-0.1-2.6-0.9-2.8c-0.3-0.1-0.8,0.1-0.9,0.3c-0.6,1.2,0.3,1.8,1.1,2.5C571,128.5,571.2,128.5,571.6,128.5z M554.1,165.7
		c2.5,1.8,2.6,1.8,4.8,0C557.3,165.7,555.9,165.7,554.1,165.7z M554.8,163.2c1.9,1,2.4,0.9,3.5-1
		C556.8,161.7,555.7,161.9,554.8,163.2z M499,156.6c-0.2,0.9-0.5,1.9-0.7,2.9C500.7,159.2,500.8,159,499,156.6z M507.5,136.9
		c1.7,1.1,1.8,1.1,3.5-0.4C509.8,135.7,508.7,135.7,507.5,136.9z M492.3,173.2c0.6-0.6,1.1-1,1-1.2c-0.3-0.7-0.7-1.4-1-2.1
		c-0.3,0.3-1,0.6-1,0.8C491.4,171.5,491.8,172.2,492.3,173.2z M564.6,131.7c0.4-2,0.3-2.3-1.2-3.3
		C562.8,130.4,562.8,130.5,564.6,131.7z M482.8,61c1,0.6,2,1.2,3.3,2C485.5,60.5,485.1,60.2,482.8,61z M493.2,123.7
		c-1.4-0.3-2,0.1-2.1,1.1c-0.1,0.9,0.3,1.5,1.6,1.3C492.9,125.4,493,124.6,493.2,123.7z M562.3,18.6c-0.3-0.2-0.4-0.4-0.5-0.4
		c-0.8,0.1-1.6,0.2-2.3,0.3c0.1,0.4,0,0.9,0.3,1.1c0.9,0.9,1.7,0.2,2.4-0.4C562.1,19.1,562.1,18.9,562.3,18.6z M493.9,111.4
		c0.2,1.5,0.4,2.4,0.5,3.4C496.3,113.6,496.2,113.1,493.9,111.4z M487.8,158.1c0.2-0.2,0.4-0.4,0.5-0.6c-0.5-0.5-1-1.3-1.6-1.6
		c-0.3-0.1-1,0.5-2,1C486.2,157.5,487,157.8,487.8,158.1z M560.2,113.9c-0.2,0.2-0.4,0.5-0.6,0.7c0.6,0.6,1.1,1.2,1.8,1.8
		c0.2,0.1,0.8-0.2,1-0.4c0.1-0.1,0-0.7-0.2-0.9C561.5,114.6,560.8,114.3,560.2,113.9z M501.6,185.1c0.2-0.2,0.4-0.4,0.6-0.6
		c-0.4-0.6-0.7-1.2-1.2-1.7c-0.2-0.2-0.9-0.2-1.1,0s-0.2,0.9,0,1.1C500.4,184.4,501,184.7,501.6,185.1z M491.1,177.3
		c0.9-1.1,2.1-1.6,2.1-3.3C490.9,175.1,490.8,175.3,491.1,177.3z M505,116c-1-1.1-1.9-1.1-2.7-0.4c-0.3,0.2-0.2,0.9-0.4,1.8
		C503.2,116.8,504,116.4,505,116z M487.5,70.7c-0.7-0.5-1.2-0.9-1.7-1.1c-0.1,0-0.7,0.7-0.7,0.8c0.4,0.5,0.8,0.9,1.3,1.2
		C486.5,71.6,486.9,71.1,487.5,70.7z M487.9,149.4c-2.2-0.6-2.4-0.5-3,1.8C486,150.6,486.8,150.1,487.9,149.4z M557.4,147.1
		c-1,0.2-1.8,0.5-1.5,1.6c0.1,0.3,1,0.7,1.2,0.6C558.1,148.7,557.9,147.9,557.4,147.1z M491.2,172.7c-0.1-0.3-0.3-0.5-0.4-0.8
		c-0.4-0.3-0.9-0.7-1.3-0.8c-0.3,0-0.8,0.8-0.7,1.1c0.1,0.4,0.7,0.9,1.1,0.9C490.2,173.3,490.7,172.9,491.2,172.7z M492.9,166.1
		c0.8,0.3,1.2,0.7,1.5,0.6c0.5-0.2,0.9-0.6,1.3-0.9c-0.3-0.3-0.6-1-0.8-1C494.4,164.9,494,165.3,492.9,166.1z M506.7,72.1
		c-0.6-0.5-1-1.1-1.3-1c-0.5,0.1-0.9,0.6-1.3,1c0.3,0.3,0.6,0.9,0.9,0.9C505.6,72.9,506,72.5,506.7,72.1z M507.8,116.4
		c-0.1,1.1-0.2,2,1,2.3c0.2,0,0.6-0.2,0.6-0.3C509.7,117.4,509.4,116.6,507.8,116.4z M563,183.5c1.1,0.8,1.8,0.6,2.4-0.1
		c0.3-0.3,0.2-0.9,0.4-2C564.6,182.3,563.9,182.8,563,183.5z M489.7,123.4c-0.9,1.1-0.9,1.9,0.1,2.9
		C490.7,125.3,490.7,124.4,489.7,123.4z M491,59.2c2.2,0.9,2.3,0.8,2.9-1.3C492.9,58.4,492.2,58.8,491,59.2z M486.7,95.4
		c-1,0.8-1.3,1.5-0.4,2.6C487.5,97.3,487.7,96.5,486.7,95.4z M482.6,70.9c-0.4,1,0,1.6,0.8,2C484.6,71.3,484.5,71.2,482.6,70.9z
		 M504.3,87.4c-1.2-0.5-2.1-0.6-3.1,0.2C502.3,88.7,503.2,88.5,504.3,87.4z M507.2,152.4c0.9,0,1.7-0.1,1.6-1.2
		c0-0.3-0.8-0.7-1.1-0.6C506.8,150.8,506.8,151.5,507.2,152.4z M507.4,52.3c-0.5,0.6-1,0.9-0.9,1.1c0.1,0.4,0.4,0.8,0.7,1.2
		c0.1,0.1,0.9-0.4,0.9-0.5C508.1,53.6,507.8,53.1,507.4,52.3z M555.5,207.9c1.2,0.2,2,0,2.6-1.4
		C556.8,206.4,555.9,206.4,555.5,207.9z M502.3,122.5c-0.4-0.4-0.9-0.9-1-0.8c-0.4,0.2-0.7,0.6-0.9,1c-0.1,0.2,0.5,0.8,0.7,0.8
		C501.4,123.2,501.8,122.9,502.3,122.5z M567.1,176.2c-0.5-0.3-0.9-0.8-1-0.7c-0.4,0.2-0.7,0.6-0.8,1c0,0.2,0.6,0.8,0.7,0.7
		C566.4,177.1,566.6,176.7,567.1,176.2z M499.5,72.7c0.5,1.9,0.7,2,2.6,1.2C501.2,73.5,500.4,73.1,499.5,72.7z M555.1,203.7
		c0.3,0.5,0.6,1,1,1.3c0.2,0.2,0.8,0.1,1-0.1c0.1-0.1,0.2-0.7,0-0.9C556.7,203.4,556.1,203,555.1,203.7z M499.1,206.3
		c-0.2-0.1-0.3-0.3-0.5-0.4c-1.1,0.2-1.9,0.7-1.5,2.7C498,207.5,498.6,206.9,499.1,206.3z M505.2,105.9c1.6,0,1.6,0,1.7-1.7
		C505.7,104.2,505.4,104.9,505.2,105.9z M502.3,161.6c-1.2,0.4-1.7,0.9-1.5,2C502.2,163.7,502.7,163.2,502.3,161.6z M490.3,113.6
		c-0.4,0.6-0.9,1-0.8,1.3s0.7,0.6,1.1,0.7c0.2,0,0.7-0.6,0.6-0.8C491.2,114.4,490.8,114.1,490.3,113.6z M559.4,183.3
		c0.2-2.1,0.2-2.1-1.8-2C558.2,182,558.7,182.5,559.4,183.3z M484.3,58c1.1,1,1.1,1,2.1,0C485.7,57.4,485,57.3,484.3,58z M565,42.8
		c0.5,0.7,0.3,1.9,1.6,2.3C566.7,43.7,566.4,42.8,565,42.8z M548.7,148.9c-0.5-0.4-0.8-0.6-1.1-0.8c-0.3,0.4-0.6,0.8-0.7,1.2
		c0,0.1,0.5,0.6,0.6,0.6C547.9,149.7,548.2,149.3,548.7,148.9z M565.8,211.2c0.1,0.2,0.1,0.4,0.2,0.6c1.5,0.1,1.5,0.1,2-1.5
		C567.1,210.7,566.5,211,565.8,211.2z M556.7,37.8c0.9,1,1.9,1.1,3.4,0C558.6,37.8,557.6,37.8,556.7,37.8z M484,206.5
		c-1-0.7-1.5-1-2.2-1.5C482.1,207,482.1,207,484,206.5z M558.2,178.8c0.1,0.3,0.2,0.5,0.3,0.8c0.9,0,1.7,0.1,1.9-1.8
		C559.4,178.2,558.8,178.5,558.2,178.8z M496.5,102.5c0.5,1.8,0.5,1.8,2,0.8C497.7,103,497.1,102.7,496.5,102.5z M563.3,193.4
		c-0.2-0.1-0.5-0.2-0.7-0.4c-1,0.4-1.4,1-0.5,2.6C562.7,194.6,563,194,563.3,193.4z M549.8,129.1c-0.7,0.8-0.8,1.4,0.2,2
		C550.8,130.3,550.8,129.7,549.8,129.1z M487.4,80.4c0.9,0,1.4-0.4,1.3-1.2c0-0.2-0.4-0.6-0.6-0.6C487.2,78.8,487,79.3,487.4,80.4z
		 M485.6,37.4c0,0.3-0.1,0.6-0.1,0.9c0.8,0.1,1.5,0.1,2.3,0.2c0-0.2,0.1-0.5,0.1-0.7C487.1,37.6,486.3,37.5,485.6,37.4z M481.1,58.8
		c-0.7,0.5-0.9,1-0.3,1.6c0.1,0.1,0.6,0.2,0.7,0.1C482,59.9,481.8,59.3,481.1,58.8z M509.3,120.3c-1.3-0.5-2-0.4-2.5,0.7
		C507.7,121.7,508.4,121.4,509.3,120.3z M542.8,71.2c1-0.9,1.5-1.5,2.4-2.3C543.3,68.7,542.9,69.4,542.8,71.2z M570.4,219.9
		c0.4-0.6,0.8-0.9,0.8-1.1c-0.1-0.4-0.6-0.7-0.9-1c-0.2,0.2-0.6,0.5-0.6,0.7C569.8,218.9,570.1,219.2,570.4,219.9z M503.1,126.4
		c-0.2,0.2-0.3,0.4-0.5,0.5c0.1,1,0.5,1.4,2.1,0.9C504,127.2,503.6,126.8,503.1,126.4z M542.4,35.6c0,0.2,0,0.5-0.1,0.7
		c0.8,0.3,1.6,0.5,2.5-0.6C544.1,35.7,543.2,35.6,542.4,35.6z M548.7,37.4c-0.9-0.6-1.5-1-2-1.4C546.6,37.3,546.9,38,548.7,37.4z
		 M563.7,172.8c-0.2-1.8-0.2-1.8-1.7-1.2C562.7,172.1,563.2,172.4,563.7,172.8z M560.9,164.4c0.3-0.5,0.7-0.8,0.7-1.1
		c0-0.2-0.4-0.7-0.5-0.6c-0.3,0.1-0.8,0.4-0.8,0.6C560.1,163.5,560.5,163.9,560.9,164.4z M483.7,51c-0.7-0.2-1.1-0.4-1.6-0.4
		c-0.1,0-0.3,0.3-0.4,0.5c0.4,0.2,0.7,0.5,1.1,0.6C483,51.8,483.2,51.4,483.7,51z M558.9,176.4c1.5,0.9,2,0.6,2.3-1.1
		C560.3,175.7,559.8,176,558.9,176.4z M495,66.5c0.8,1.3,0.8,1.3,2.1,0.9C496.5,66.8,496,66.1,495,66.5z M505.4,135
		c-0.4,0.5-0.7,0.7-0.8,1.1c0,0.2,0.4,0.7,0.5,0.7c0.3-0.1,0.8-0.3,0.9-0.5C506,135.9,505.7,135.6,505.4,135z M494.6,162.6
		c0,0.3-0.1,0.6-0.1,0.8c0.5,0.1,1,0.2,1.5,0.2c0,0,0.1-0.5,0.1-0.8C495.6,162.8,495.1,162.7,494.6,162.6z M545,151.6
		c-0.3,0.6-0.6,0.9-0.6,1.2c0.1,0.3,0.5,0.5,0.9,0.5c0.1,0,0.5-0.5,0.5-0.7C545.7,152.4,545.3,152.1,545,151.6z M489.5,191
		c0.6-0.7,0.4-1.2-0.3-1.6c-0.2-0.1-0.7,0.2-0.8,0.3C488.3,190.5,488.6,191,489.5,191z M553.7,170.2c-0.5,0.1-1,0.2-1.8,0.3
		C552.7,171.6,553.3,171.6,553.7,170.2z M495.5,208.6c-0.4-0.4-0.7-0.8-0.7-0.8c-0.4,0.2-0.7,0.5-1,0.8c0.2,0.2,0.5,0.6,0.7,0.6
		C494.7,209.1,495,208.9,495.5,208.6z M562.9,135.7c-1-0.3-1.4,0.1-1.5,0.9c0,0.2,0.2,0.5,0.4,0.5
		C562.6,137.1,562.9,136.6,562.9,135.7z M484.5,66c0.3-0.4,0.7-0.7,0.7-0.8c-0.1-0.3-0.4-0.6-0.7-0.8c-0.1-0.1-0.7,0.4-0.6,0.5
		C483.9,65.2,484.2,65.5,484.5,66z M507.1,122.2c-0.5,0.4-0.8,0.7-1,1c-0.1,0.1,0.3,0.5,0.4,0.7c0.3-0.2,0.7-0.4,0.9-0.7
		C507.6,123,507.3,122.7,507.1,122.2z M552.3,159.9c0.3-0.1,0.6-0.1,0.9-0.2c-0.2-0.4-0.3-0.9-0.5-1.3l-0.4,0.1
		C552.2,158.9,552.3,159.4,552.3,159.9z M555.5,33.6c-0.1-0.3-0.1-0.5-0.2-0.8c-0.5,0.2-1,0.3-1.5,0.5c0.1,0.2,0.1,0.4,0.2,0.6
		C554.4,33.8,554.9,33.7,555.5,33.6z M553.9,42.6c-0.5-0.3-0.8-0.6-1.2-0.7c-0.1,0-0.5,0.4-0.5,0.4c0.2,0.3,0.4,0.6,0.7,0.8
		C553.1,43.3,553.4,43,553.9,42.6z M489.3,38c0,0.2,0.1,0.5,0.1,0.7c0.5-0.1,1-0.3,1.4-0.4c0-0.2-0.1-0.3-0.1-0.5
		C490.2,37.8,489.8,37.9,489.3,38z M486.4,40.7c0,0.2,0,0.3,0,0.5c0.7,0,1.4-0.1,2.2-0.1c0-0.2,0-0.4-0.1-0.6
		C487.8,40.5,487.1,40.6,486.4,40.7z M485.2,46.6c-0.3-0.3-0.5-0.6-0.6-0.5c-0.3,0.1-0.5,0.3-0.7,0.5c0.1,0.2,0.3,0.5,0.4,0.5
		C484.5,47,484.8,46.8,485.2,46.6z M482.1,69.6c0.3-0.3,0.6-0.5,0.8-0.7c-0.2-0.1-0.3-0.4-0.5-0.4s-0.5,0.2-0.6,0.4
		C481.8,68.9,481.9,69.2,482.1,69.6z M501.6,217.7c0-0.2,0-0.3,0-0.5c-0.3,0-0.7,0-1,0c0,0,0,0.4,0,0.6
		C501,217.8,501.3,217.7,501.6,217.7z M500.5,40.4c0.2-0.2,0.5-0.4,0.5-0.6c0-0.2-0.2-0.4-0.3-0.6c-0.2,0.2-0.5,0.3-0.6,0.5
		C500,39.8,500.3,40.1,500.5,40.4z M506.3,83.2c0,0.1,0,0.2,0,0.4c0.5,0,1,0,1.4,0c0-0.1,0-0.2,0-0.4
		C507.3,83.2,506.8,83.2,506.3,83.2z M552.4,167.3c0,0.1,0,0.3,0,0.4c0.4,0,0.7,0,1.1-0.1c0-0.1,0-0.3,0-0.4
		C553.2,167.2,552.8,167.3,552.4,167.3z M554.9,65.8c0.1-0.2,0.2-0.3,0.2-0.5c-0.4-0.2-0.8-0.4-1.1-0.6c-0.1,0.1-0.2,0.3-0.2,0.4
		C554.2,65.4,554.6,65.6,554.9,65.8z M499.3,42.2c-0.1-0.3-0.2-0.4-0.2-0.6c-0.3,0.1-0.5,0.3-0.8,0.5c0,0,0.1,0.4,0.2,0.4
		C498.7,42.4,499,42.3,499.3,42.2z M481,29.8c0.2-0.3,0.4-0.4,0.5-0.6c0-0.1-0.2-0.3-0.2-0.3c-0.2,0-0.4,0.1-0.5,0.3
		C480.7,29.3,480.9,29.5,481,29.8z M557,68.9c0,0.2-0.1,0.4-0.1,0.6c0.4,0,0.7,0,1.1,0.1c0-0.1,0-0.3,0.1-0.4
		C557.7,69.1,557.3,69,557,68.9z M569,54.5c-0.1,0.2-0.3,0.3-0.4,0.5c0.1,0.1,0.3,0.3,0.4,0.2c0.2-0.1,0.3-0.3,0.5-0.4
		C569.3,54.8,569.2,54.7,569,54.5z M488.2,209.7c0,0.2,0.1,0.4,0.1,0.5c0.3-0.1,0.7-0.2,1-0.4c0-0.1-0.1-0.2-0.1-0.4
		C488.9,209.6,488.6,209.7,488.2,209.7z M484.3,36.1c-0.2-0.1-0.4-0.2-0.6-0.2c-0.1,0-0.2,0.2-0.3,0.3c0.2,0.1,0.4,0.2,0.5,0.3
		C484,36.5,484.1,36.2,484.3,36.1z M563,138.8c0.1-0.2,0.1-0.4,0.2-0.5c-0.1,0-0.3-0.2-0.4-0.1c-0.1,0.1-0.2,0.3-0.3,0.5
		C562.6,138.7,562.8,138.7,563,138.8z M552.6,69.7c0,0.2,0.1,0.3,0.1,0.5c0.3-0.1,0.7-0.2,1-0.3c0-0.1-0.1-0.3-0.1-0.4
		C553.3,69.6,552.9,69.7,552.6,69.7z M483.8,37.9c-0.1-0.2-0.1-0.5-0.1-0.5c-0.2,0-0.4,0.1-0.6,0.1c0,0.1,0.1,0.4,0.1,0.4
		C483.4,37.9,483.6,37.9,483.8,37.9z M543.6,77.2c-0.1-0.1-0.1-0.3-0.2-0.4c-0.2,0.1-0.4,0.2-0.5,0.3c0.1,0.1,0.2,0.3,0.3,0.3
		C543.4,77.4,543.5,77.3,543.6,77.2z M564.9,168.7c-0.1,0.1-0.3,0.3-0.4,0.4c0.1,0.1,0.3,0.3,0.3,0.3c0.2-0.1,0.3-0.2,0.5-0.3
		C565.2,169,565.1,168.9,564.9,168.7z M494.6,205.7c-0.1-0.1-0.2-0.1-0.3-0.2l-0.2,0.1c0.1,0.1,0.1,0.2,0.2,0.3
		C494.4,205.9,494.5,205.8,494.6,205.7z M540.5,197c0.1-0.1,0.2-0.2,0.4-0.3c-0.2-0.1-0.3-0.2-0.5-0.3c-0.1,0.1-0.2,0.3-0.2,0.4
		C540.2,196.8,540.4,196.9,540.5,197z M558.6,78.1c-0.1,0.1-0.2,0.2-0.2,0.3c0,0,0.1,0.2,0.2,0.1c0.1,0,0.2-0.1,0.4-0.2
		C558.8,78.3,558.7,78.2,558.6,78.1z M554,80.7c0.1,0.1,0.2,0.2,0.3,0.2c0,0,0.2-0.1,0.1-0.2c0-0.1-0.1-0.2-0.2-0.4
		C554.2,80.5,554.1,80.6,554,80.7z M508.3,68.2c-0.1-0.1-0.2-0.2-0.3-0.2l-0.2,0.1c0,0.1,0.1,0.2,0.2,0.3
		C508.1,68.3,508.2,68.3,508.3,68.2z M497,211c-0.1,0.1-0.2,0.2-0.3,0.3c0.2,0.1,0.3,0.2,0.5,0.2c0.1,0,0.2-0.2,0.2-0.3
		C497.2,211.1,497.1,211,497,211z M497.8,87.8c0.1-0.1,0.2-0.1,0.3-0.2c-0.1-0.1-0.2-0.2-0.3-0.3l-0.2,0.1
		C497.7,87.5,497.8,87.6,497.8,87.8z M498,217.6c-0.1,0.2-0.3,0.4-0.2,0.4c0.1,0.1,0.2,0.2,0.4,0.2c0.1,0,0.2-0.2,0.3-0.2
		C498.4,217.9,498.2,217.7,498,217.6z M569.9,167c-0.1-0.1-0.2-0.2-0.3-0.2s-0.3,0.2-0.4,0.2c0.2,0.1,0.3,0.2,0.5,0.4
		C569.7,167.2,569.8,167.1,569.9,167z M542.8,52.2c-0.1-0.1-0.3-0.2-0.4-0.2c-0.1,0-0.2,0.2-0.4,0.2c0.2,0.1,0.3,0.2,0.5,0.3
		C542.6,52.5,542.7,52.3,542.8,52.2z M558.3,50.7c0.1,0.1,0.2,0.3,0.3,0.3s0.2-0.2,0.4-0.3c-0.1-0.1-0.3-0.2-0.4-0.3
		C558.5,50.5,558.4,50.6,558.3,50.7z"/>
	<path class="st0" d="M422.7,220c0.1-0.7,0.3-1.3,0.3-2c-0.1-1.6-1.5-2.5-3.1-2c-2.4,0.8-5,0.2-7.2-1.7c0.5-0.1,1-0.2,1.5-0.4
		c0-0.4,0.1-0.8,0.1-1.2c0-0.3-0.1-0.6-0.3-1.2c-0.6,0.2-1.3,0.1-1.6,0.5c-0.8,0.7-1.8,1.4-1.9,2.3c-0.2,1.1,0,2.5,1.1,3.4
		c0.8,0.6,1.6,1.2,2.5,1.9c-0.3,0.7-0.6,1.3-0.8,2c-0.5,1.4,0.1,2.1,1.6,2.1c0.6,0,1.2-0.2,1.9,0c-2.4,1.2-4.8,0.8-7.3-0.3
		c-0.4,0.9-0.8,1.6-1.2,2.4c1.4,1.4,2.8,1.2,4.1,0.2c1.1,1.4,1.1,1.9,0,2.4c-0.6,0.3-1.4,0.5-2,0.4c-0.5-0.1-1-0.8-1.4-1.2
		c-0.7-0.6-1.5-0.9-1.8,0c-0.5,1.5-1.6,1.3-2.7,1.2c-7.7-0.8-15-2.8-21.3-7.6c-0.9-0.7-2-1.2-3-1.9c-0.8-0.5-1.8-1-1.9-2.2
		c1.4-0.4,2.7-0.8,4-1.1c0-0.2-0.1-0.4-0.1-0.5c-0.5,0-1-0.1-1.6,0c-1.4,0.2-2.4-0.2-3.5-1.1c-0.8-0.7-2-1.1-3-1.7
		c0.1-0.3,0.1-0.7,0.3-1.2c-2.5,0.2-3.7-1.3-4.6-3.1c-1.8-3.9-3.8-7.8-5.2-11.8c-1.2-3.4-1.6-7.1-2.4-10.7c-0.1-0.6-0.1-1.2-0.1-1.8
		c0.1-9.4,0.3-18.8,0.4-28.2c0-0.9,0-1.9,0.1-2.8c0.2-1.7,0.9-2.4,2.7-2.5c0.9-0.1,1.9,0,2.8,0c8.2,0,16.3,0,24.5,0c0.7,0,1.4,0,2,0
		c2,0.1,2.5,0.5,2.5,2.4c-0.1,5.8-0.3,11.5-0.3,17.3c0,4,0.1,8,0.2,12c0,0.8,0.2,1.5,0.2,2.3c0,1.5,0.3,2.9,1.3,4c0.8,1,1.2,2,0,3.4
		c1.6,0.4,2.9,0.6,4.1,1c1.3,0.4,2.5,1.1,3.8,1.3c6.3,1,12.3-4,12.7-10.6c0.1-2.3-0.2-4.6-0.2-6.9c0-2.9,0-5.8,0-8.6
		c0-2.2,0.1-4.4-0.1-6.6c-0.4-2.8-1-5.5-1.7-8.2c-1.1-4.7-3.6-8.8-6.4-12.6c-5.6-7.6-12.4-14.2-19.3-20.6c-3.4-3.2-6.4-6.8-9.1-10.6
		c-0.7-1-1.5-2-2.3-3c-2.6-3-2.5-5.1,0.8-8c-1.4-0.3-2.5-0.6-3.7-1c-0.4,0.9-0.7,1.6-1,2.3c-2.3-1.3-4.5-5.5-4.1-7.4
		c-0.7-1.1-1.4-1.9-1.9-2.8c-0.2-0.3-0.1-0.7-0.3-0.9c-3.7-3.6-4-8.6-5.4-13.2c-0.2-0.5,0-1.1,0-1.7c0-0.3,0.3-0.7,0.3-0.9
		c-0.2-0.9-0.8-1.8-0.7-2.5c0.1-0.8,1-1.4,0.3-2.3c-0.1-0.2-0.2-0.5-0.1-0.7c1.3-1.9-0.1-3.8,0.2-5.7c0.1-0.5-0.7-1.2-1.1-1.9
		c0.5-0.6,1-1.1,1.5-1.8c-0.5-1-1.1-2.1-1.5-3.1c-1-2.1-0.8-4.4-0.3-6.5c0.3-1.5,0.6-2.9,0.5-4.5c-0.1-2.7,0-5.4,0.4-8.1
		c0.3-1.9,1-3.8,1.7-5.6c2.5-6.5,5.9-12.6,11-17.5c2.7-2.6,5.8-4.6,9-6.6c6.4-4,13.5-5.5,20.8-6.1c2.5-0.2,5.1,0.1,7.6,0.4
		c5.8,0.8,11.3,2.6,16.5,5.5c5.7,3.2,10.4,7.4,14.2,12.6c3.7,5.2,6.9,10.8,7.9,17.2c0.8,5.2,1.6,10.6,0.3,15.9
		c-0.1,0.5,0.1,1,0.1,1.5c0.1,1.3,0.3,2.5,0.4,3.9c-0.7,0.3-1.3,0.6-2,0.9c0,0.8,0,1.7,0,2.6c1-0.3,1.3-0.6,1.8-1.4
		c0.5,2,0,3.5-2.1,5.1c1.6-3-1.4-2.9-1.9-4.7c-0.6,0.5-0.9,0.9-1.4,1.3c-0.7-0.4-1.4-0.8-2.6-1.4c-0.3,0.4-0.6,1-1,1.5
		c-0.4-1.3-1.4-1.6-2.6-1.5c1.3-0.8,3.2-0.3,4.1-2c0.7-0.2,1.3-0.4,2-0.6c0.2,0.7,0.5,1.4,1.6,1c-0.2-0.3-0.2-0.6-0.4-0.7
		c-0.4-0.2-0.8-0.2-1.2-0.3c0.3-0.9-0.1-1.4-1-1c-0.5,0.2-0.8,0.9-1.2,1.4c-0.6,0.1-1.1,0.2-1.7,0.2s-1.2,0-1.6-0.2
		c-2-0.9-2.4-0.8-3.8,1.4c1.1,0.3,2.1,0.5,3.2,0.8c0.2,1.1,0.9,1.8,2,2.1c-0.2,0.9-0.3,1.8,0.6,2.5l0,0c-0.8,0-1.5,0-2.4,0
		c-0.1-0.3-0.2-0.6-0.3-0.9c-0.1-1.4-0.9-1.7-2.1-1.3c-1.9,0.6-3.8,0.5-5.8,0c0.2-0.6,0.3-1.2,0.5-1.9c-0.4-0.1-0.7-0.3-0.8-0.2
		c-1.8,1-2.8,2.1-0.8,4.1c0.9,1,0.7,1.8,0.1,2.9c-1.5-0.1-2.4,0.8-3.1,2c-0.8-0.7-0.8-1.5,0.1-2.3c-1-0.5-1.9-0.9-2.9-1.3
		c-0.1,0.9-0.2,1.6-0.1,2.2c0.2,1.5,1.3,2.1,2.8,1.6c0,0.5,0.1,0.9,0.1,1.4l-0.1,0.1c-0.5,0.3-1,0.6-1.6,1c-0.5-0.3-1.1-0.6-1.8-0.9
		c-0.1,0.4-0.2,0.6-0.2,0.8c0.1,0.6,0.4,1.2,0.3,1.7c-0.1,0.6-0.3,1.4-0.8,1.8c-1.5,1.2-3.3-0.6-4.8,0.3c-0.6-0.8-1.2-1.6-1.7-2.4
		c-0.2-0.3-0.1-0.8-0.1-1.3c0.1-5.3,0.3-10.7,0.4-16c0.1-3.6,0.2-7.1,0-10.7c-0.4-5.7-4.7-9.6-10.5-9.6c-0.3,0-0.5,0-0.8,0
		c-5-0.7-7.7,2.4-9.9,6.1c-0.6,1-0.7,2.3-0.7,3.4c-0.1,6.5-0.1,13.1,0,19.6c0.1,4.9,1.2,9.6,3.7,13.8c1.6,2.7,3.6,5.1,5.5,7.6
		c1,1.3,2.1,2.7,3.2,3.9c3.3,3.5,6.6,7,10,10.5c0.7,0.8,1.8,1.4,1.4,2.8c-0.1,0.3,0.6,1.1,1,1.2c1.6,0.2,2.5,1.4,3.4,2.5
		c4.8,5.8,9.6,11.6,14.3,17.5c1.9,2.4,3.4,5.1,5,7.7c3.9,6.5,6.4,13.5,7.7,20.9c0.6,3.2,0.7,6.4,0.8,9.6c0.2,5.2,0.3,10.3,0.3,15.5
		c-0.1,4.3-0.4,8.6-0.7,12.9c-0.2,3.2-1.5,6.1-2.6,9c-0.2,0.5-0.7,1-1.2,1.2c-2.6,1-2.7,1.1-1.2,3.7c-0.9,2-1.9,4-4.3,4.7
		c-0.1,2.1-0.8,3.8-2.6,5.2c-0.6-0.7-1.1-1.3-1.7-2c-0.4,0.9-0.8,1.7-1.2,2.5c-1-0.6-2-1.1-3-1.6c-0.1-0.2-0.2-0.5-0.3-0.6
		c-0.4-0.2-0.8-0.3-1.2-0.4c-0.1,0-0.3,0.5-0.3,0.6c0.3,0.3,0.7,0.6,1.1,0.7c0.2,0.1,0.5-0.1,0.7-0.2c-0.2,0.3-0.5,0.9-0.7,0.9
		c-2.8-0.2-2.9,1.9-3.4,3.8c1.3,0.9,2.3,0.4,3.3-0.4c-0.2-0.6-0.3-1.2-0.5-1.9c2.2-0.2,3,0.5,2.3,2.2c-0.6,1.5-1.3,3-3.3,3.1
		c-0.3,0-0.7,0.1-0.9,0.4c-0.9,1.2-2.1,0.9-3.1,0.6c-0.3,0.2-0.5,0.2-0.5,0.3c-1.7,3-2.1,3.1-5.1,1.3c-0.4-0.3-0.9-0.5-1.3-0.7
		c-2-1-2-1-2.9-3.1c-1,0.4-1.9,0.8-3.1,1.3c-0.2-0.9-0.3-1.8-0.5-2.9c1.9,0.2,3.5,0.5,5.5,0.7C421,218.9,421.8,219.5,422.7,220
		c0.4,1.3,1.1,2.3,2.6,2.7c0.6-0.9,0.2-1.6-0.5-1.9C424.1,220.4,423.4,220.3,422.7,220z M433.9,207.8c1.2-0.5,2.6-0.9,3.6-2
		C435.2,205.2,434.6,205.5,433.9,207.8c-0.8,0-1.7-0.5-2.2,0.5C433.2,209.6,433.4,209.6,433.9,207.8z M427.7,209.4
		c0.6,0.9,1.3,1.2,2.3,0c-0.7-0.3-1.2-0.5-1.7-0.7c-0.3-0.4-0.4-0.9-0.8-1.3c-1.2-1.1-2.1-0.8-2.6,0.7c-0.1,0.2-0.1,0.5-0.2,0.7
		c-0.3,0.7-0.2,1.3,0.6,1.6c0.7,0.3,1.1,0,1.3-0.8C426.8,209,427.2,209.1,427.7,209.4z M378.3,206.3c0.8-0.3,1.6-0.6,1.4-2
		c-0.8,0.1-1.6,0.3-2.4,0.4c-0.8-1-1.3-0.2-1.4,0.4c-0.2,1.7-0.4,3.4-0.4,5.1c0,0.5,0.6,1.3,0.9,1.3c1.9,0.1,4,0.9,5.7-0.4
		c0.1-1.9-1.4-0.8-2.1-1.4c0-0.8,0.1-1.6,0.2-2.4C379.6,206.9,378.9,206.6,378.3,206.3z M380.9,163.3c-0.5-1.2-1-2.2-1.4-3.2
		c-0.5-1.5-2.1-1.9-2.8-1.5c-1.1,0.5-0.8,1.5-0.7,2.4c1,7.7,1.1,15.4,0.4,23.1c-0.3,2.7,1.2,3.8,3.8,2.9c0.6-0.2,1.1-0.6,1.8-0.9
		c-3.7-3.3-4.4-8-1.5-11.1c-1.9-0.5-1.2-1.6-0.7-2.8c0.5-1.3,1.6-2.6,0.4-4.2c1.1-0.3,1.9-0.5,3-0.8c-1.2-1.2-2.1-2.1-3.1-3.1
		C380.1,164,380.4,163.7,380.9,163.3z M431.4,219.5c-1.2-0.1-1.8-0.3-2.4-0.3c-2.3,0.1-2.3,0.1-2.4-2.2c-0.1-1.8-0.8-2.2-2.9-1.6
		c0.3,1,0.5,2.1,0.8,3.1C425.4,221.1,428.6,221.8,431.4,219.5z M407.1,223.6c-1.1-1.5-1.2-1.6-1.6-1.4c-1.2,0.8-3.4,0.3-3.6,2.3
		c1.1,1.2,2.1,2.2,3.3,3.4c0.4-0.8,0.7-1.4,1-2c-0.7-0.6-1.2-1.1-1.9-1.8C405.4,224,406.1,223.8,407.1,223.6z M377.2,38.4
		c0,1.8,0,3.1,0,4.8c1.4-0.3,2.5-0.6,3.9-0.9C379.7,40.9,378.6,39.8,377.2,38.4z M383.8,170.7c-1.4,2.2-1.4,4.5,0.1,6
		C384.8,175.1,384.8,172.6,383.8,170.7z M440.1,188.8c-1.6,0.4-2.4,1.1-2.3,2.1c0.1,1.1,0.9,1.6,2.3,1.6
		C440.1,191.4,440.1,190.2,440.1,188.8z M430,215c0.6-1.1,1.1-1.8,1.6-2.7c-1.4-0.7-2.3-1.4-3.8-0.2C428.4,213,429,213.8,430,215z
		 M372.7,153.4c-0.6,1-0.1,1.6,0.6,1.9c0.7,0.3,1.5,0.2,2.2,0.5c0.8,0.2,1.4,0.4,1.9-0.7C375.9,154.5,374.4,154,372.7,153.4z
		 M375.9,201.4c-0.9,0-1.4-0.1-1.9-0.1c-0.2,0.9-0.4,1.6-0.4,2.4c0,0.4,0.4,0.8,0.7,1.1c0.3-0.2,0.8-0.4,0.9-0.7
		C375.5,203.4,375.6,202.5,375.9,201.4z M376.4,91.4c-0.2,0.8-0.5,1.7,0.2,2.5c1-0.2,2-0.6,1.8-1.7C378.3,91.1,377.4,91,376.4,91.4z
		 M389.3,59.3c2.3,1.4,2.7,1.4,4.1,0C392,59.3,390.7,59.3,389.3,59.3z M378.1,151.8c-1.2-0.2-2.4-1.3-3.9-0.5
		C375.5,152.9,376.8,152.5,378.1,151.8z M418.3,213.6c1,1.1,1.9,1.3,3.1,0.6C420.6,212.8,419.7,212.8,418.3,213.6z M437.1,199
		c0.2,0,0.4,0,0.6,0.1c0.9-1.4,0.9-1.4-0.4-2.7C437.2,197.5,437.1,198.3,437.1,199z M440.3,183.9c0.4-0.5,0.7-0.9,0.9-1.2
		c-0.4-0.2-0.7-0.6-1.1-0.7c-0.2,0-0.8,0.5-0.8,0.7C439.5,183.1,439.8,183.4,440.3,183.9z M423.4,208.1c-1,0.1-1.6,0.6-1.5,1.6
		c0,0.2,0.4,0.4,0.5,0.4C423.5,209.9,424,209.4,423.4,208.1z M390.6,172.4c-1.1-0.1-1.6,0.4-2.1,1.3
		C390.5,174.4,390.5,174.4,390.6,172.4z M449.2,45.5c-1.7,1.2-1.7,1.4,0,2.4C449.2,47.1,449.2,46.3,449.2,45.5z M384.2,27
		c-1.2-0.7-1.9-0.8-2.9,0.1C382.3,27.7,383,28,384.2,27z M407.1,217.6c-0.8,1.1-0.9,1.8,0.2,2.4C408,219.2,408,218.5,407.1,217.6z
		 M447.3,198.5c-1.1-0.3-1.7,0-2,1.2C446.4,199.9,447,199.6,447.3,198.5z M439.5,208.6c0-0.2,0.1-0.5,0.1-0.7
		c-0.5-0.6-1.1-0.6-2,0.4C438.5,208.4,439,208.5,439.5,208.6z M375.6,86.7c-0.7,1.1-0.3,1.6,1.2,2.1
		C376.2,87.8,375.9,87.3,375.6,86.7z M403.1,222.1c0.2-0.5,0.4-0.9,0.3-1.1c-0.2-0.3-0.6-0.5-0.8-0.7c-0.1,0.2-0.5,0.6-0.4,0.7
		C402.3,221.3,402.7,221.6,403.1,222.1z M426.8,203c-0.5-0.3-0.8-0.6-1-0.5c-0.3,0.2-0.5,0.5-0.8,0.8c0.2,0.2,0.5,0.6,0.7,0.5
		C426.1,203.7,426.3,203.4,426.8,203z M380.4,101c-0.2,0.2-0.5,0.4-0.7,0.5c0.3,0.3,0.7,0.7,1,1c0,0,0.3-0.2,0.3-0.3
		C380.8,101.8,380.6,101.4,380.4,101z M378.1,73.6c-0.2-0.2-0.4-0.3-0.5-0.5c-0.3,0.4-0.6,0.8-0.9,1.2c0.1,0.1,0.3,0.2,0.4,0.4
		C377.5,74.3,377.8,74,378.1,73.6z M424,69.3c-0.4-0.2-0.6-0.4-0.9-0.4c-0.1,0-0.3,0.3-0.5,0.4c0.3,0.2,0.5,0.4,0.8,0.6
		C423.5,69.9,423.7,69.6,424,69.3z M376.5,191.2c-0.4-0.4-0.5-0.8-0.8-0.8c-0.2,0-0.6,0.3-0.7,0.5c0,0.2,0.2,0.6,0.5,0.7
		C375.8,191.7,376.1,191.4,376.5,191.2z M447.8,50.2c-0.2,0.4-0.4,0.7-0.4,0.9s0.3,0.3,0.5,0.5c0.2-0.2,0.4-0.5,0.5-0.7
		C448.4,50.7,448.1,50.5,447.8,50.2z M436.6,60.3c0,0.2,0,0.4,0,0.6c0.4-0.1,0.8-0.1,1.3-0.2c0-0.1,0-0.3,0-0.4
		C437.4,60.3,437,60.3,436.6,60.3z M429.4,62.8c-0.2,0.4-0.4,0.7-0.4,0.9s0.3,0.3,0.5,0.5c0.2-0.2,0.4-0.4,0.5-0.7
		C429.9,63.4,429.7,63.1,429.4,62.8z M449.1,41.2c-0.2,0.3-0.4,0.5-0.5,0.7c0.2,0.2,0.4,0.4,0.7,0.5c0.1,0,0.5-0.4,0.4-0.5
		C449.6,41.6,449.4,41.4,449.1,41.2z M376.9,70.9c-0.1,0.3-0.2,0.5-0.2,0.8c0,0.1,0.3,0.3,0.3,0.3c0.2-0.1,0.4-0.3,0.4-0.5
		C377.4,71.3,377.1,71.2,376.9,70.9z M375.4,171.2c-0.2,0.1-0.5,0.2-0.5,0.2c0,0.2,0.1,0.4,0.2,0.6c0.1-0.1,0.4-0.1,0.4-0.2
		C375.5,171.6,375.4,171.4,375.4,171.2z M384.9,166.6c-0.1,0.2-0.3,0.3-0.4,0.5c0.1,0.1,0.3,0.3,0.4,0.3c0.2-0.1,0.3-0.3,0.5-0.4
		C385.2,166.9,385.1,166.8,384.9,166.6z M375.8,24.6c-0.3,0.2-0.5,0.3-0.6,0.5c0,0.2,0.2,0.5,0.4,0.5c0.2,0,0.5-0.2,0.5-0.4
		C376.2,25.1,376,24.8,375.8,24.6z M388.9,101.2c0.2-0.1,0.4-0.2,0.5-0.3c-0.1-0.2-0.3-0.4-0.4-0.4s-0.3,0.1-0.4,0.2
		C388.7,100.9,388.8,101,388.9,101.2z M441.3,54.2c-0.2-0.2-0.4-0.4-0.6-0.5c-0.1,0-0.3,0.2-0.3,0.2c0,0.2,0.1,0.4,0.2,0.6
		C440.8,54.4,440.9,54.3,441.3,54.2z M381.7,191c0,0.2,0,0.4,0,0.6c0.3,0,0.7-0.1,1-0.1c0-0.1,0-0.3,0-0.4
		C382.4,191.1,382,191.1,381.7,191z M395.5,191.5c0.1,0.2,0.1,0.3,0.2,0.5c0.3-0.1,0.6-0.3,1-0.4c0-0.1-0.1-0.2-0.1-0.3
		C396.1,191.3,395.8,191.4,395.5,191.5z M382.8,199.3c0-0.1,0-0.3,0-0.4c-0.4,0-0.7,0-1,0c0,0.1,0,0.2,0,0.3
		C382.1,199.2,382.4,199.2,382.8,199.3z M375.6,199.6c-0.2-0.1-0.4-0.2-0.6-0.2c-0.1,0-0.2,0.2-0.3,0.3c0.2,0.1,0.3,0.2,0.5,0.3
		C375.3,200,375.5,199.8,375.6,199.6z M376.3,52.6c-0.1,0.2-0.2,0.4-0.2,0.6c0,0.1,0.4,0.2,0.4,0.2c0.1-0.2,0.2-0.4,0.3-0.5
		C376.7,52.8,376.6,52.7,376.3,52.6z M372.3,199.7c0.1-0.1,0.3-0.1,0.4-0.2c0-0.1-0.1-0.3-0.1-0.4c-0.2,0.1-0.3,0.2-0.5,0.3
		C372.1,199.4,372.2,199.5,372.3,199.7z M374.5,197.8c-0.1,0.1-0.2,0.2-0.2,0.3c0,0,0.1,0.2,0.2,0.1c0.1,0,0.2-0.1,0.4-0.2
		C374.6,198,374.5,197.9,374.5,197.8z M377.8,69.2c-0.1-0.1-0.2-0.2-0.4-0.2l-0.2,0.1c0.1,0.1,0.1,0.2,0.2,0.3
		C377.6,69.3,377.7,69.3,377.8,69.2z M379.9,188.2c0,0.1-0.1,0.3-0.1,0.4l0.2,0.1c0.1-0.1,0.2-0.2,0.3-0.3
		C380.2,188.3,380.1,188.3,379.9,188.2z M376.9,55.6c-0.1-0.1-0.2-0.3-0.3-0.3c-0.1,0-0.2,0.2-0.3,0.3c0.1,0.1,0.3,0.2,0.4,0.4
		C376.8,55.8,376.8,55.7,376.9,55.6z"/>
	<path class="st0" d="M176.3,205.8c-1.1-0.7-2.2-1.5-3.4-2.2c-1-0.6-1.9-1.5-3.2-0.4c-0.3,0.2-1.1-0.1-1.7-0.2
		c-0.8-0.2-1.6-0.5-2.5,0.6c0.9,0.5,1.8,0.9,2.9,1.5c-1.1,0.9-2,1.7-3.2,2.7c-0.6-1.2-1.3-2.6-2-4c-1.1,0.2-0.9,1.2-1.4,1.9
		c-0.4,0.5-1.1,0.8-2,1.4c0.3,0.7,0.6,1.6,1.1,2.6c-0.8,0.6-1.7,1.2-2.5,1.7h-0.1c-0.6,0-1.2,0-1.9,0.1s-1.4,0.2-2.1,0.3
		c-1.6-1.3-1.9-1.3-3.2-0.1c1,0.8,2,0.4,3.1,0.2c-0.1,1.3-0.6,1.9-2,1.5c-1.3-0.4-2.6-0.5-3.9-0.8c-0.6,2.2,0.9,2.7,2.4,3.3
		c0,0.7,0,1.4,0,2c0,0.7-0.2,1.3-0.3,2.1c-1.1,0.2-2.2,0.4-3.2,0.5c-0.6-0.7-1.2-1.4-1.8-2c-0.2,0.1-0.3,0.2-0.5,0.3
		c0.1,0.5,0.1,1,0.2,1.5c-0.2,0.2-0.4,0.3-0.6,0.5c-0.3-0.8-0.6-1.6-1-2.4c-0.3,0.1-0.6,0.3-0.8,0.4c-0.1,0.9-0.1,1.9-0.2,3
		c-0.9-0.5-1.3-2.3-2.8-1.1c0.1,0.4,0.2,0.8,0.4,1.1c0.9,1.9,0.2,3.2-1.9,3c-1.2-0.1-2.5-0.6-3.9-0.9c-1,1.2-2.4,1.2-3.8,0.5
		c-0.4-0.2-1-0.2-1.5-0.1c-3.8,1.2-7.6,0.5-11.4,0.5c-1.2,0-2.4-0.4-3.1-1.5c-0.4-0.7-1-1.2-1.9-0.6c-0.9,0.6-0.7,1.4,0.4,2.2
		c-3.4,0-6.4,0-9.2,0c-1.6-1.9-1.8-3.9-1.8-6.1c0-18.8,0-37.7,0-56.5c0-13.2,0-26.3,0-39.5c0-1.2,0.3-2.5,0.5-3.7
		c1,0.5,1,0.5,1.6-0.8c-0.7,0.4-1.2,0.6-1.6,0.8c-0.8-2.7-0.1-4.7,2.7-5.9c-0.4-0.5-0.7-0.8-0.9-1.1c1.2-1.1,2.5-2.2,3.5-3.4
		c0.9-1.1,0.6-2.3-0.2-3.7c0.9,0.3,1.7,0.6,2.9,1c0.4-1,0.8-2.1,1.3-3.2c0.8-0.2,2.1,0,2.7-0.6c0.5-0.5,0.2-1.8,0.3-3
		c0.4-0.2,1.1-0.6,2.3-1.3c-2.4-0.4-4.3-0.6-6.4-0.9c0-1,0-2,0-3.4c-1.2,0.5-2,0.9-3.1,1.4c0-0.6-0.2-1.2,0-1.5
		c0.7-1.4,1.6-2.7,2.5-4.1c0.2,0.1,0.9,0.5,0.9,0.7c-0.4,1.8,1.1,2.5,2,3.6c0.9-1,1-2,0.4-2.9s-0.6-1.6,0-2.6
		c0.3-0.4,0.1-1.2,0.2-1.7c-1.7-0.2-1,2.5-2.9,1.6c-0.1-1.5,1.9-2.5,0.9-4.4c-2.2,1-3.1,3.3-4.7,4.9c-0.5-0.2-1.1-0.4-2.1-0.7
		c-0.5,0.7-1.1,1.5-1.7,2.2l0,0c-1.5-1.3-1.4-4.1,0.4-4.9c1-0.4,2.1-0.5,3.2-0.7c0.6,0.7,1.2,1.3,2-0.1c-0.7,0-1.3,0.1-2,0.1
		c-0.7-0.3-1.3-0.6-2.2-1.1c1.1-0.8,2-1.4,3-2.1c-1.1-0.5-2-1-2.8-1.4c0.2-1.3,1.6-1.9,0.7-3.2c-0.9,0.4-1.7,0.8-2.7,1.2
		c-0.9-1.2-0.6-2.3-0.3-3.5c0.3-1,0.6-1.8-0.1-2.9c-0.6-1,0-1.9,0.7-2.8c1.1,0,2.2,2.3,3.3,0.4c-1-1.8-1.8-3.5-2.7-5.2
		c-1.2,0.8,0.3,2.3-1.4,3.1c-0.1-3.3-0.3-6.4,0.3-9.4c0.1-0.5,0.7-0.9,0.9-1.4c0.2-0.4,0.6-1.1,0.4-1.3c-0.3-0.4-0.9-0.4-1.5-0.7
		c0-1.9,0-4.1,0-6.3c1.2-0.1,2.1-0.2,3.7-0.3c-1.1-0.7-1.7-1.1-2.3-1.4c-1-0.5-1.6-1.2-1.5-2.4c0.1-1.3,1.1-1.3,2-1.6
		c0.2-0.1,0.4-0.3,0.6-0.4c-0.1-0.2-0.1-0.5-0.1-0.5c-2.1-0.6-2.7-2.1-2.4-4.1c0.2-1.4,0.5-2.8,0.7-4c-0.3-1.7-0.7-3.3-0.7-4.9
		c-0.1-6.1,0-12.2,0-18.3c0-0.8,0-1.5,0.1-2.3c0.2-1.7,0.9-2.4,2.6-2.5c3-0.2,6.1-0.5,9.1-0.5c16.8,0,33.7,0,50.5,0c0.6,0,1.2,0,2,0
		c0,0.6,0.1,1.1,0.1,1.7c2.2,0.4,4.4-0.7,6.7,0.3c-2.6,0.6-5.3,0.3-7.8,1.9c1,0.7,2,1.4,2.9,2c-0.1,0.8-0.3,1.5-0.4,2.4
		c1.7,0,3.2-0.2,4.6-0.8c1.2-0.5,2.4-0.9,3.5-1.4c1.6-0.6,3-0.3,4,1.1c0,1.7,0,3.4,0,5.3c-0.5,0.1-1.3,0.3-2.4,0.5
		c0.4,1.1,0,2-0.9,2.6c0.3,0.2,0.5,0.4,0.6,0.4c3.2,0.1,3.6,0.5,3.3,3.6c0,0.5-0.2,1-0.4,1.4c-3.3,0.3-6.6-0.4-9.8,0.6
		c0.3,1.6,1.2,1.5,2.2,1.5c2.3,0,4.6,0,6.8,0.4c-3.9,0.4-7.8,0.7-11.7,1.2c-0.7,0.1-1.5,0.2-2.2,0.5c-1.1,0.5-1.1,1.6-0.1,2.1
		c0.7,0.4,1.4,0.5,2.6,0.9c-1.2,0.5-2.1,0.9-2.9,1.3c0,0.1,0,0.3-0.1,0.4c0.7,0.1,1.3,0.2,2,0.3s1.3,0.2,2.1,0.7
		c-0.5,0.2-1,0.5-1.6,0.7s-1.2,0.4-2.3,0.7c1.6,0.4,2.6,0.6,3.9,0.9c2-2,4.8,0.2,7-1.3c0.7,0.9,0.6,1.4-0.3,1.7
		c-0.6,0.1-1.2,0.1-1.8,0.1c-0.7,0-1.4-0.2-2,0c-2.6,1-5.3,0.2-7.9,0.2c-8.3,0-16.6,0.2-25,0.3c-2,0-2.4,0.4-2.5,2.4
		c-0.2,4.5-0.5,9-0.5,13.5s0.3,9,0.4,13.5c0,1.4-0.2,2.9-0.3,4.3c-0.1,0.8-0.1,1.5-0.1,2.3c0.1,5.7,0.3,11.4,0.5,17
		c0,0.4,0,0.8,0,1.3c0,1.1,0.6,1.7,1.7,1.8c4.1,0.3,8.3,0.7,12.4,0.9c0.6,0,1.1-0.3,1.7-0.5c1.9-0.6,3.8-0.7,5.6,0.6
		c1.1-1.3,2.4-1.1,3.8-0.3c-0.6,0-1.2,0.1-2.1,0.1c0.2,0.6,0.5,1.2,0.7,1.9c0.8-0.3,1.4-0.5,2.4-0.9c-0.1,0.9,0,1.8-0.4,2.1
		c-0.4,0.4-1.2,0.4-1.9,0.4c-1.2,0.1-1.9,0.6-2.2,2c1.4,0.2,2.7,0.4,4.3,0.7c0.2,0.6,0.4,1.4,0.6,2.1c-2.3,0.3-4.4,0.6-6.5,0.9
		c1.1,1.1,2.3,0.8,3.5,0.8c2.5,0,2.5,0,3,1.1c-1.3-0.1-2.5-0.3-3.3,1c-1.2-0.1-2.3-0.2-3.5-0.2c-2.6,0-5.2-0.3-7.8,0.1
		c-5.1,0.7-10.3,1.1-15.4,1.5c-0.7,0.1-1.5-0.2-2.2-0.5c-2-0.8-4-0.5-6,0.2c-0.5,0.1-0.8,0.7-1.4,1.2c3.2,0.7,6.3,0.1,9,1.5
		c0.2-0.7,0.4-1,0.5-1.4c0.7,0.1,1.4,0.3,2.1,0.3c5.3-0.2,10.5-1.4,15.9-1c0.3,0,0.6-0.3,0.9-0.3c1.6-0.3,3.1-0.6,4.7-0.9
		c1.1-0.2,2.2-0.4,3.2-0.5c0.5,0.2,0.9,0.4,1.4,0.5c1.8,0.4,2.1,0.7,2.4,2.4c0.2,1.3-0.1,2.2-1.4,2.6c-0.5,0.2-1,0.5-1.5,0.7
		c0.1,0.3,0.1,0.6,0.2,0.6c2.2,1,3.1,2.6,2.7,5.1c-0.3,2.1,0,4.2-0.3,6.3c-0.4,2.9-1.3,3.6-4.3,3.6c-6.1,0-12.2,0-18.4,0
		c-4.3,0-4.4,0.1-4.4,4.4c0,8.7,0,17.5,0,26.2c0,2.8-0.3,5.6-0.4,8.4c0,1.2-0.1,2.4,0,3.6c0.6,4.7,0.6,9.5,0.1,14.2
		c-0.3,2.4,0.5,3.2,2.9,3.4c6.1,0.7,12.2,0.7,18.3,0.1c1.8-0.2,3.7-0.4,5.3,1c0.8,0.7,1.7,0.3,2.6-0.2c0.8-0.4,1.7-0.8,2.6-0.8
		c3.1-0.1,6.3-0.1,9.4,0c1.9,0.1,2.8,0.8,3,2.2c0.2,1.5-0.8,2.1-2.2,2.9c2,0.6,2.4,1.8,2.3,3.4c-0.1,1.7,0,3.4,0,5
		c-0.8-0.5-1.5-1.2-1.9-1.1c-0.9,0.3-1.8,0.9-2.4,1.6C176.2,204.4,176.4,205.2,176.3,205.8L176.3,205.8z M109,62.6
		c0.2,0.6,0.3,1.3,1.1,0.9c0.2-0.1,0.3-0.6,0.7-1.1C109.9,62.4,109.5,62.5,109,62.6c0-0.2,0-0.6-0.1-0.7c-0.3-0.4-0.8-0.6-1.2-0.9
		c-0.1,0.2-0.4,0.5-0.4,0.5c0.3,0.3,0.6,0.6,1,0.9C108.5,62.5,108.7,62.5,109,62.6z M124.3,220c1.8,0,1.8,0,1.7-1.9
		C125,218.4,123.9,218.6,124.3,220c-0.8,0.1-1.8-0.2-2.1,1.2C123.5,221.6,124,221,124.3,220z M120.2,96.2c-0.4-0.5-0.8-1.3-1.8-1
		C118.7,96.3,119.5,96.1,120.2,96.2c-0.3,0.5-0.5,1-0.8,1.7c1.7-0.3,3-0.5,4.6-0.9C122.7,95.8,121.4,96.3,120.2,96.2z M163.5,11.1
		c-0.4,0.3-0.9,0.7-1.3,1c1.2,1.7,2.8,1.7,4.6,1.4c-1-1.1-1.9-2-2.7-3c-0.5-0.4-1.1-0.8-1.6-1.2c0,0-0.3,0.3-0.5,0.5
		C162.5,10.3,163,10.7,163.5,11.1z M118.6,76.3c-0.6,0-1.1,0.1-1.9,0.1c0.7,2.4-1.2,3.4-2.3,4.7c-1.2,1.4-1.2,1.4,0.1,3.2
		c0.4-0.4,1-0.7,1.2-1.2c1.1-2,1.9-4.1,3.5-5.8C119.3,77.3,118.9,76.7,118.6,76.3c0.5-0.8,1-1.6,1.5-2.7c-0.9-0.2-1.5-0.3-2.3-0.5
		C118.1,74.4,118.4,75.4,118.6,76.3z M123.1,122.1c0.1,0.2,0.2,0.4,0.3,0.5c0.2,0,0.5,0.2,0.7,0.1c1.8-0.9,3.7-1.2,5.6-1.2
		c0.4,0,0.8-0.5,1.7-1c-1.3-0.3-2-0.4-3-0.6c0.7-1,1.3-1.7,1.8-2.4c-2.3-1.7-4.5,0.2-6.7-0.3c-0.4,0.9-0.7,1.6-1.1,2.5
		c0.8,0,1.3,0,1.9,0s1.2,0,2,0C125.2,120.6,124.1,121.4,123.1,122.1z M175.7,18c-0.8-0.3-1.7-0.6-2.1,0.5c-0.4,1.2-1.2,1.4-2.1,1.5
		c-1.4,0.1-2.9,0.1-4.2-0.2c-2-0.4-2.8-0.4-4.4,0.6c1.6,0.8,3.7,0.1,5.1,1.6c-0.2,0.7-0.4,1.3-0.7,2.3c1.1-0.3,1.9-0.5,2.8-0.7
		c-0.1-0.7-0.3-1.3-0.4-2.1C172.2,21.2,175.1,21.6,175.7,18z M139.3,206.8c1.5,0.3,2.8,0.3,3.5,0.9c1.3,0.9,2.2,2.3,3.4,3.5
		c1.1-0.2,2.1-0.5,3.2-0.8c-0.5-1.6-1.6-2-2.6-2.5c-1.1-0.5-2.3-1.1-3.3-1.7c-1-0.7-2.3-0.8-3.1-2.2
		C140,204.9,139.7,205.8,139.3,206.8z M123.3,111.3c-0.6-0.8-0.9-1.3-1.2-1.6c-1.1-1.1-2.4-0.2-3.6-0.1c-2.7,0.1-5.4,0.2-8.1,0.4
		c-0.4,0-0.7,0.3-1.1,0.4c0,0.1,0.1,0.3,0.1,0.4C113.8,111,118.1,111.1,123.3,111.3z M133.4,220.7c0.7,0.5,1.2,1,1.8,1.5
		c1.1,0.9,1.3,0.9,2.5-0.7c-1.2-1.3-1.5-3.7-4.2-3C133.4,219.4,133.4,220.1,133.4,220.7z M126,222.8c2.4,1.6,3.9,0.1,5.5-1.3
		c-0.2-0.9-0.1-2-1.4-2c-1.4,0-0.2,1.5-1,1.9C128,221.8,126.6,221.1,126,222.8z M157.7,208.5c-0.1-0.2-0.2-0.4-0.3-0.7
		c-1-0.2-2-0.5-2.9-0.6c-0.3,0-0.7,0.2-0.8,0.4c-0.1,0.4-0.1,1,0.1,1.1c0.7,0.4,1.5,0.8,2.3,0.8
		C156.6,209.5,157.1,208.8,157.7,208.5z M108.5,212.9c-0.6,0.3-1.1,0.5-1.6,0.7c1.1,1.1,2,1.3,2.7,0.5c0.5-0.6,0.4-2.8-0.3-3.4
		c-0.5,0.2-1.1,0.4-1.8,0.6C107.8,211.9,108.1,212.3,108.5,212.9z M108.1,71.6c-1-0.1-1.7-0.2-2.3-0.3c-0.6,0.9-1.2,1.7-1.7,2.4
		C105.7,74.7,106.9,74.2,108.1,71.6z M128.3,177c-3.4-0.6-4.6-0.4-6,0.8c1.2,0.3,2.3,0.5,3.6,0.8C126.6,178.1,127.4,177.6,128.3,177
		z M118.2,122.5c1.3,0.2,2.3,0.5,3.4-0.2c-0.7-0.5-1.6-0.8-1.8-1.4c-0.3-0.9-0.5-1.3-1.6-1C118.2,120.7,118.2,121.5,118.2,122.5z
		 M169.3,195.5c0.2-0.5,0.5-0.8,0.5-1.1c0.1-0.8,0-1.6-0.1-2.4c0,0-0.8-0.2-1.1,0c-0.8,0.7-1,1.5-0.4,2.5
		C168.3,194.7,168.6,194.9,169.3,195.5z M110.7,50.2c0.2,1.8,1.3,2.6,2.7,1.8c0.3-0.2,0.4-0.7,0.4-1c0-0.2-0.4-0.6-0.7-0.6
		C112.4,50.3,111.6,50.3,110.7,50.2z M116.8,101.4c0,0.3,0.1,0.5,0.1,0.8c1.7,0.3,3.4,0.1,4.8-1.3
		C120.1,101.1,118.4,101.2,116.8,101.4z M138.7,205.3c0-0.2,0.1-0.4,0.1-0.7c-0.7-0.4-1.5-0.8-2.3-1.2c-0.6,0.8-1,1.4-1.6,2.3
		C136.4,205.5,137.5,205.4,138.7,205.3z M114.7,121.4c-1.6-1.4-2.7-1.4-4.9,0.2C111.7,121.5,113.1,121.5,114.7,121.4z M108.1,65.9
		c-0.3-2-1.4-2.8-2.9-3.6C105.3,64.3,106.3,65.1,108.1,65.9z M112.2,66c1.9-1.4,1.9-1.8,0.4-3.7C112.4,63.7,112.3,64.8,112.2,66z
		 M135,200.2c-2.2-1.3-2.4-1.3-3.3,0.3C132.8,200.9,134,201.5,135,200.2z M130.1,176.9c2.2,0.7,2.7,0.3,3-2.1
		C132.2,175.5,131.3,176.1,130.1,176.9z M131.4,217.5c-1.1-0.4-2.2-0.9-3.2,0.3C129.5,218.8,130.5,218.7,131.4,217.5z M173.4,14.4
		c-1.5-0.3-2.6-0.5-4,0.5C170.9,15.1,172,16.2,173.4,14.4z M133.6,33.8c0-0.2,0-0.4,0-0.6c-1.2-0.3-2.3-0.6-3.4,0.2
		c0,0.2,0,0.4,0,0.6C131.3,33.9,132.5,33.9,133.6,33.8z M129.9,114.9c-2.7-0.7-2.7-0.7-3.4,1C127.8,115.5,128.9,115.2,129.9,114.9z
		 M112.3,96c2.5,0.8,2.9,0.6,3.2-1.5C114.5,95,113.6,95.4,112.3,96z M122.1,72.9c1.2-0.9,1.7-1.5,1.1-2.4c-0.1-0.2-0.6-0.3-1.1-0.5
		C122.1,71,122.1,71.7,122.1,72.9z M126.3,125.7c1.3,0.8,2.3,0.7,3.7-0.2C128.5,125.2,127.5,124.6,126.3,125.7z M134.4,203
		c-1-0.1-1.6,0.2-1.7,1.2c0,0.2,0.4,0.4,0.6,0.7c0.4-0.5,0.8-0.9,1.2-1.4C134.6,203.4,134.5,203.3,134.4,203z M118.9,117.7
		c1.2,0.3,2,0.3,3-0.8C120.7,116.6,119.8,116.4,118.9,117.7z M121.4,216.7c-0.6,0.3-1.5,0.5-1,1.5c0.1,0.3,1,0.6,1.2,0.4
		C122.3,218.1,122.1,217.4,121.4,216.7z M107.9,67.4c-0.3,1.5-0.3,1.5,0.4,2.5C109.1,69,109.1,68.3,107.9,67.4z M133.4,207.1
		c-0.3,1.2,0,1.8,1.1,2C134.9,208,134.5,207.5,133.4,207.1z M156.6,203.9c-0.5,0.8-0.4,1.4,0.4,1.8c0.1,0.1,0.5-0.1,0.6-0.3
		C157.9,204.6,157.6,204.1,156.6,203.9z M126.9,212.2c-0.7-0.6-1.5-1-2.6-0.5C125.1,212.8,125.9,212.9,126.9,212.2z M123.2,123.7
		c-0.1,0.9-0.2,1.4-0.1,1.8c0.1,0.3,0.6,0.4,0.9,0.6c0.1-0.3,0.4-0.7,0.3-1C124.2,124.7,123.8,124.4,123.2,123.7z M130.5,26.1
		c0.1,0.2,0.1,0.5,0.2,0.7c0.9-0.2,1.8-0.4,2.7-0.5c0-0.2-0.1-0.4-0.1-0.7C132.3,25.7,131.4,25.9,130.5,26.1z M120.3,72.4
		c0-1-0.3-1.4-1.1-1.3c-0.2,0-0.5,0.4-0.4,0.5C118.8,72.3,119.3,72.6,120.3,72.4z M131.2,93.4c-0.2-0.1-0.4-0.3-0.6-0.4
		c-0.6,0.5-1.4,1-0.9,2.3C130.2,94.7,130.7,94.1,131.2,93.4z M123.6,78c0-0.3-0.1-0.5-0.1-0.8c-0.6,0.1-1.2,0.1-1.8,0.2
		c-0.1,0,0,0.6-0.1,1.1C122.5,78.3,123.1,78.2,123.6,78z M120.2,209.4c0.2-0.1,0.5-0.2,0.7-0.3c0.3-0.9,0.1-1.4-1.5-1.7
		C119.7,208.3,119.9,208.9,120.2,209.4z M129.6,123.8c1.5,0.7,1.5,0.7,2.5-0.3C131.1,123.6,130.4,123.7,129.6,123.8z M117,60.5
		c-1.2-0.4-1.8-0.4-2,0.7c0.4,0,0.7,0.1,1,0.1C116.3,61.2,116.5,61,117,60.5z M112.3,78.1c-0.9-0.8-1.7-0.9-2.6,0.4
		C110.8,78.4,111.5,78.2,112.3,78.1z M114.6,122.8c1,0.5,1.6,0.3,2.2-0.6C115.8,121.7,115.3,122,114.6,122.8z M119.8,90.4
		c-0.6-0.2-0.9-0.4-1.1-0.4c-0.3,0.1-0.6,0.4-0.6,0.6s0.4,0.6,0.5,0.6C119,91.1,119.3,90.8,119.8,90.4z M162.4,118.6
		c-0.3,0.1-0.5,0.2-0.8,0.2c0.2,0.4,0.4,0.8,0.6,1.2l0.4-0.1C162.5,119.5,162.5,119,162.4,118.6z M163.7,14.7c1,0.9,1,0.9,1.7,0
		C164.8,14.7,164.4,14.7,163.7,14.7z M123.4,216.3c0.2-0.2,0.3-0.4,0.5-0.5c-0.4-0.3-0.8-0.6-1.2-0.9c-0.1,0.1-0.2,0.3-0.4,0.4
		C122.7,215.6,123.1,216,123.4,216.3z M116.4,5.7c0,0.2,0,0.4,0,0.6c0.5-0.1,1-0.1,1.5-0.2c0-0.2,0-0.3,0-0.5
		C117.4,5.7,116.9,5.7,116.4,5.7z M114.2,173.9c0,0.1,0,0.3,0,0.4c0.4,0,0.8,0,1.2,0c0-0.1,0-0.3,0-0.4
		C115.1,173.9,114.6,173.9,114.2,173.9z M106.7,196.8c-0.3-0.3-0.5-0.6-0.7-0.6c-0.3,0.1-0.5,0.3-0.7,0.5c0.2,0.2,0.3,0.5,0.5,0.5
		C106,197.2,106.3,197,106.7,196.8z M150.1,217c-0.2,0-0.3-0.1-0.5-0.1c-0.1,0.3-0.4,0.6-0.4,0.8c0.1,0.3,0.4,0.5,0.9,1.1
		C150.1,217.9,150.1,217.5,150.1,217z M115.8,87.9c-0.2,0.2-0.3,0.3-0.5,0.5c0.3,0.3,0.7,0.7,1,1c0.1-0.1,0.3-0.3,0.4-0.4
		C116.4,88.6,116.1,88.2,115.8,87.9z M116.9,215.7c-0.4-0.2-0.7-0.4-0.9-0.5c-0.1,0-0.3,0.3-0.4,0.5c0.2,0.2,0.5,0.4,0.7,0.5
		C116.4,216.2,116.6,215.9,116.9,215.7z M149.5,111.7c0,0.2,0,0.4,0,0.7c0.5-0.1,1-0.2,1.5-0.3c0-0.2,0-0.3-0.1-0.5
		C150.5,111.7,150,111.7,149.5,111.7z M166.8,26.2c0,0.2-0.1,0.4-0.1,0.6c0.6,0.1,1.1,0.3,1.7,0.4c0-0.1,0.1-0.3,0.1-0.4
		C167.9,26.6,167.4,26.4,166.8,26.2z M156.3,97.5c-0.2,0.2-0.5,0.3-0.5,0.5s0.1,0.4,0.2,0.6c0.2-0.2,0.5-0.3,0.7-0.5
		C156.7,98.1,156.5,97.8,156.3,97.5z M123,212.7c0.2-0.5,0.4-0.7,0.5-1c0-0.1-0.4-0.4-0.5-0.3c-0.2,0.1-0.4,0.3-0.4,0.5
		C122.6,212.1,122.8,212.3,123,212.7z M149.6,10.2c0,0.1-0.1,0.3-0.1,0.4c0.2,0.1,0.4,0.3,0.6,0.3c0.2,0,0.5-0.2,0.7-0.3
		c0-0.1-0.1-0.2-0.1-0.3C150.3,10.3,149.9,10.2,149.6,10.2z M123.2,55c-0.2-0.1-0.3-0.2-0.5-0.3c-0.1,0.2-0.2,0.5-0.2,0.7
		s0.1,0.5,0.3,0.6c0.1,0.1,0.6-0.1,0.6-0.2C123.3,55.6,123.2,55.3,123.2,55z M127.4,216.2c0.2-0.2,0.4-0.5,0.4-0.6
		c0-0.2-0.3-0.3-0.5-0.5c-0.2,0.2-0.4,0.4-0.5,0.6C127,215.9,127.1,216,127.4,216.2z M116.9,26.9c0.3-0.3,0.6-0.5,0.8-0.7
		c-0.2-0.1-0.3-0.4-0.5-0.4s-0.5,0.2-0.6,0.4C116.6,26.3,116.8,26.5,116.9,26.9z M116.2,72.6c0.2-0.4,0.3-0.6,0.4-0.9
		c0,0-0.3-0.2-0.4-0.2c-0.2,0.2-0.4,0.4-0.7,0.6C115.7,72.2,115.9,72.3,116.2,72.6z M134.8,122.6c-0.3-0.3-0.4-0.6-0.6-0.6
		c-0.2,0-0.5,0.1-0.6,0.3c-0.1,0.1,0.1,0.6,0.2,0.6C134,122.8,134.3,122.7,134.8,122.6z M139.2,199.9c-0.2-0.2-0.4-0.4-0.6-0.5
		c-0.2,0-0.4,0.2-0.6,0.3c0.2,0.2,0.3,0.4,0.5,0.6C138.7,200.4,138.9,200.1,139.2,199.9z M152.8,199.3c-0.5,0.3-0.6,0.5-0.8,0.6
		c0.2,0.2,0.4,0.4,0.6,0.5c0.1,0,0.4-0.3,0.4-0.4C153.1,199.8,152.9,199.5,152.8,199.3z M151.6,208c-0.5-0.2-0.7-0.4-0.9-0.4
		c-0.1,0-0.4,0.1-0.4,0.2c0,0.2,0.1,0.5,0.2,0.5C150.6,208.4,150.8,208.2,151.6,208z M130.5,213c-0.5-0.2-0.7-0.3-0.9-0.3
		c-0.1,0-0.4,0.1-0.4,0.2c0,0.2,0.1,0.4,0.2,0.6C129.6,213.4,129.8,213.3,130.5,213z M107.1,220.6c-0.3-0.1-0.5-0.3-0.8-0.4
		c-0.1,0.1-0.2,0.4-0.2,0.4c0.2,0.2,0.5,0.4,0.7,0.6C106.9,221,107,220.8,107.1,220.6z M113.5,178.9c-0.1-0.2-0.2-0.5-0.3-0.4
		c-0.2,0-0.4,0.1-0.6,0.2c0.1,0.1,0.1,0.4,0.2,0.4C113.1,179.1,113.3,179,113.5,178.9z M109.8,58.5c0.2-0.5,0.4-0.7,0.4-1
		c0-0.2-0.2-0.4-0.3-0.6c-0.2,0.1-0.4,0.3-0.5,0.4C109.4,57.5,109.6,57.8,109.8,58.5z M134.9,210.7c-0.3-0.2-0.4-0.4-0.6-0.4
		c-0.1,0-0.3,0.2-0.3,0.2c0,0.2,0.2,0.4,0.2,0.5C134.4,211,134.6,210.9,134.9,210.7z M116.8,221.8c0.2-0.3,0.4-0.4,0.4-0.6
		c0-0.1-0.2-0.3-0.2-0.3c-0.2,0.1-0.5,0.2-0.5,0.3C116.4,221.3,116.6,221.5,116.8,221.8z M141.1,201.5c0.2-0.2,0.3-0.4,0.4-0.6
		c-0.2-0.1-0.4-0.4-0.6-0.4c-0.1,0-0.3,0.3-0.5,0.4C140.7,201.1,140.8,201.3,141.1,201.5z M120.9,34.2c0.3-0.2,0.6-0.3,0.6-0.5
		c0.1-0.1-0.2-0.5-0.3-0.5c-0.2,0-0.5,0.1-0.6,0.3C120.6,33.6,120.8,33.9,120.9,34.2z M124.4,222.7c-0.1,0.3-0.2,0.5-0.2,0.7
		c0,0.1,0.3,0.3,0.3,0.2c0.2-0.1,0.4-0.3,0.4-0.4C124.9,223.1,124.7,222.9,124.4,222.7z M107.8,121.5c-0.2,0.5-0.3,0.7-0.4,1
		c0,0.1,0.1,0.4,0.2,0.4c0.2,0,0.5-0.1,0.6-0.2C108.2,122.5,108,122.3,107.8,121.5z M103.7,123.5c0.2-0.2,0.4-0.4,0.6-0.6
		c-0.2-0.1-0.3-0.4-0.5-0.4s-0.4,0.2-0.5,0.4C103.3,123,103.5,123.3,103.7,123.5z M126.3,32.1c-0.1,0.2-0.3,0.3-0.4,0.5
		c0.1,0.1,0.3,0.3,0.4,0.2c0.2-0.1,0.3-0.3,0.5-0.4C126.6,32.4,126.5,32.3,126.3,32.1z M146.6,32.5c-0.2-0.2-0.2-0.3-0.3-0.4
		c-0.1,0.2-0.3,0.3-0.4,0.5c0,0.1,0.2,0.2,0.3,0.3C146.3,32.7,146.5,32.6,146.6,32.5z M171.4,18.3c-0.2-0.1-0.4-0.2-0.6-0.2
		c-0.1,0-0.1,0.2-0.2,0.4c0.2,0.1,0.3,0.2,0.5,0.3C171.1,18.7,171.2,18.5,171.4,18.3z M118.7,176.9c-0.2,0.1-0.4,0.2-0.5,0.2
		c0.1,0.2,0.2,0.4,0.4,0.5c0.1,0,0.3-0.1,0.4-0.2C118.9,177.2,118.8,177.1,118.7,176.9z M104.9,57.9c0.1,0.2,0.3,0.4,0.3,0.4
		c0.2-0.1,0.4-0.2,0.5-0.3c-0.1-0.1-0.2-0.3-0.3-0.3C105.3,57.7,105.1,57.8,104.9,57.9z M105.6,122.7c0.2,0.1,0.3,0.2,0.5,0.4
		c0.1-0.1,0.3-0.3,0.2-0.4c-0.1-0.2-0.3-0.3-0.4-0.4C105.8,122.3,105.7,122.5,105.6,122.7z M106.3,49.7c-0.4-0.3-0.6-0.5-0.6-0.5
		c-0.1,0.1-0.3,0.3-0.4,0.5c0.1,0.1,0.2,0.2,0.3,0.2C105.9,49.9,106.1,49.8,106.3,49.7z M127.2,6.1c-0.1-0.2-0.2-0.4-0.2-0.4
		c-0.2,0-0.4,0.1-0.6,0.2c0.1,0.1,0.1,0.4,0.2,0.4C126.7,6.3,127,6.2,127.2,6.1z M138.1,25.9c-0.2-0.3-0.3-0.5-0.5-0.7
		c-0.1-0.1-0.3,0-0.5,0c0,0.2,0,0.5,0.1,0.6C137.4,25.9,137.7,25.9,138.1,25.9z M120.7,125.9c0-0.1-0.1-0.3-0.1-0.4h-0.2
		c0,0.1-0.1,0.3-0.1,0.4C120.4,125.9,120.5,125.9,120.7,125.9z M128.3,26.8c-0.1-0.1-0.3-0.3-0.3-0.3c-0.1,0.1-0.2,0.2-0.4,0.4
		c0.1,0.1,0.3,0.2,0.4,0.2C128.2,27.1,128.2,26.9,128.3,26.8z M163.1,27.2c0.1-0.1,0.2-0.2,0.4-0.2c-0.1-0.1-0.2-0.2-0.3-0.4
		c-0.2,0.1-0.3,0.2-0.5,0.3C162.8,27.1,162.9,27.1,163.1,27.2z M177.8,22.8c-0.1-0.1-0.2-0.2-0.3-0.2l-0.2,0.1
		c0.1,0.1,0.1,0.2,0.2,0.3C177.6,23,177.7,22.9,177.8,22.8z M129.1,206.9c-0.1,0-0.3-0.1-0.4-0.1l-0.1,0.2c0.1,0.1,0.2,0.2,0.3,0.3
		C129,207.2,129,207,129.1,206.9z M133.5,118.6c-0.1-0.1-0.2-0.2-0.4-0.2l-0.2,0.1c0.1,0.1,0.1,0.2,0.2,0.3
		C133.3,118.8,133.4,118.7,133.5,118.6z M116.5,118c-0.1-0.1-0.2-0.3-0.4-0.3c-0.1,0-0.3,0.1-0.4,0.2c0.2,0.1,0.3,0.3,0.5,0.4
		C116.3,118.2,116.4,118.1,116.5,118z M155.8,31.6c-0.1,0.1-0.2,0.2-0.3,0.3c0.1,0.1,0.2,0.2,0.3,0.3c0.1-0.2,0.2-0.3,0.4-0.5
		C156.1,31.7,156,31.7,155.8,31.6z M117.4,32.8c0.1,0.1,0.1,0.3,0.3,0.3c0.1,0.1,0.3,0,0.4,0c-0.1-0.2-0.2-0.4-0.3-0.5
		C117.7,32.6,117.5,32.7,117.4,32.8z M111.7,68.4c0.1-0.1,0.2-0.1,0.3-0.2c0,0,0-0.2-0.1-0.2s-0.3,0-0.4,0
		C111.6,68.2,111.7,68.3,111.7,68.4z M116.9,67.4c-0.1,0.1-0.2,0.2-0.2,0.3c0,0,0.1,0.2,0.2,0.1c0.1,0,0.2-0.1,0.4-0.2
		C117.1,67.6,117,67.5,116.9,67.4z M116.1,85.5c0.1-0.1,0.2-0.2,0.2-0.3l-0.1-0.2c-0.1,0-0.2,0.1-0.4,0.2
		C116,85.3,116,85.4,116.1,85.5z M110.2,66.3c-0.1,0-0.2-0.1-0.4-0.1l-0.1,0.2c0.1,0.1,0.2,0.2,0.3,0.3
		C110.1,66.6,110.2,66.4,110.2,66.3z M122.5,87.3c0.1,0.1,0.2,0.2,0.3,0.2c0,0,0.2-0.1,0.1-0.2c0-0.1-0.1-0.2-0.2-0.4
		C122.7,87.1,122.6,87.2,122.5,87.3z M125.3,175.7c-0.1-0.1-0.2-0.2-0.3-0.2l-0.2,0.1c0,0.1,0.1,0.2,0.2,0.4
		C125.1,175.9,125.2,175.8,125.3,175.7z M118,93.4c0-0.1,0.1-0.2,0.1-0.4c0,0-0.1-0.1-0.2-0.1c-0.1,0.1-0.2,0.2-0.3,0.3
		C117.8,93.3,117.9,93.3,118,93.4z M130.3,99.7c-0.1-0.1-0.2-0.2-0.3-0.3c-0.2,0.1-0.3,0.3-0.5,0.4c0.1,0.1,0.3,0.2,0.4,0.2
		C130,100,130.2,99.8,130.3,99.7z M159.1,98.5c0.1-0.1,0.2-0.1,0.3-0.2c0,0,0-0.2-0.1-0.2s-0.3,0-0.4,0
		C159,98.2,159.1,98.4,159.1,98.5z"/>
	<path class="st0" d="M9.5,117.6c-1.6-1.1-3.2-1.7-5.2-0.9c-0.6,0.3-1.5-0.1-2.3-0.2c-1.1-0.1-1.7-0.7-1.7-1.8
		c0.1-3.3-0.5-6.6,0.5-9.9c0.3-0.8,0-1.8-0.1-2.8c-0.3-2.3-0.8-4.6,0.8-6.8c1.1-1.5,0-3.1-1-4.5c0.3-0.6,0.8-1.2,0.9-1.8
		c0.1-0.5,0.2-1.3-0.1-1.6c-1.6-2-1.2-4.2-0.6-6.3c0.3-1,0.1-1.9,0-2.9c-0.4-2.6-1.1-5.3,0.7-7.8c0.3-0.5,0.2-1.5-0.2-2.1
		c-0.8-1.2-0.9-2.5-0.9-3.9c0-2,0-4.1,0-6.1c0-3.7,0-3.8,3.9-3.8c3,0,5.9,0.1,8.9,0c3.4-0.1,6.7-0.4,10.1-1.1
		c-1.1-0.1-2.2-0.3-3.3-0.4c-5.8-0.4-11.6-0.7-17.4-1.1c-1.6-0.1-2-0.4-2.1-2c-0.1-5.6,0-11.2,0-16.8c0-0.3,0.2-0.6,0.3-1.1
		c1.1-0.1,2.3-0.1,3.4-0.2c0-0.1,0.1-0.3,0.1-0.4c-0.5-0.2-0.9-0.5-1.4-0.6c-2.1-0.5-2.3-0.7-2.4-2.9c0-1.3,0-2.5,0-3.8
		C0.3,21.2,0,18.4,0,15.6c0-3,0.2-5.9,0.4-8.9C0.6,5,1.2,4.5,3.1,4.5c5.8,0,11.6,0,17.3,0c3.7,0,7.4,0.1,11.1-0.2
		c2.7-0.2,5.5,0.2,8.2,0.2c2.5,0,5.1-0.2,7.6-0.4c1.4-0.1,2.9-0.2,4.2,0.8c0.3,0.2,0.8,0.4,1.2,0.4c1.7-0.1,3.6,0,5.2-0.5
		c1.6-0.5,3.1-0.4,4.7-0.3c2.5,0,5.1-0.3,7.6-0.3c1.9,0,3.9,0.1,5.8,0.3c1.3,0.1,2.1,1,2.3,2.4c0.1,1.3-0.5,2.1-1.7,2.5
		c-0.1,0-0.2,0.3-0.3,0.6c0.4,0.3,0.7,0.5,1.1,0.8c1.4,1.2,1.3,3.3-0.3,4.2c-1,0.6-2,1.2-3.4,2.1c-0.6-0.2-1.7-0.5-2.8-0.8
		c-1.3-0.3-2.7-0.3-4-0.6c-0.9-0.2-1.8-0.4-2.7-0.8c-2.9,0-5.5,1.9-8.6,0.9c-0.8-0.3-2,0.3-3,0.5c0.4,0.8,0.8,1.5,1.3,2.6
		c-1.2-0.6-1.8-0.9-2.5-1.3l0,0c-0.1-1.1-0.7-1.7-1.7-1.9c-3.3-0.7-6.5-0.2-9.7,0.7c1.2,0.9,2.5-0.3,3.7,0.3c-1,1.9-2.8,2.5-4.6,3.1
		c-0.8,0.2-1.6,0.1-2.5,0.1c-0.2,0-0.6-0.3-0.7-0.2c-2,1.3-3.8-0.2-5.9-0.2c-0.5,0.6-1.1,1.3-1.8,2.1c1.2,1.2,2.8,1.2,4.3,0.6
		c3.3-1.3,6.4-1.3,9.3,0.7c0.2,0.1,0.5,0.1,0.9,0.3c1.1-2,2.9-2,5-1.7c2.6,0.4,5.2,1,7.7,1.7c0.4,0.1,1.1,0.2,1.5-0.1
		c1.6-1.3,3.7-0.8,5.5-1.3c1.6-0.4,3.3-0.2,5-0.2c0.9,0,1.9,0.1,2.8,0.1c2.6,0,5.3,0.2,7.1-2.9c1.5,4.6,1.6,8.7,0.5,12.9
		c0,0.2-0.1,0.4-0.1,0.5c1.5,1.1,0,1.9-0.3,2.8l0,0c-0.4-0.5-0.7-1.1-1.1-1.7c-2.1,0.4-1.5,2.6-2.5,4c-0.4-0.6-0.7-1-1.1-1.6
		c-1.8,3-2.7,3.1-5.1,0.6c-0.4,0.9-0.8,1.7-1.1,2.4c-3,0.1-6,0.2-9,0.3c-3.1,0.1-6.1,0-9.3,0c-0.1-0.7-0.1-1.4-0.2-2.1
		c-0.4,0.1-0.8,0.2-1,0.4c-1.2,2.1-3.3,1.8-5.2,1.7c-1.3,0-2.5,0-3.8,0c-2.5,0.1-3.3,0.7-3.4,3.1c-0.1,2.4,0.1,4.7,0.1,7.1
		c0,4.7,0,9.5,0,14.2c0,0.9-0.2,1.9-0.2,2.8c0,10.3,0,20.7,0,31c0,3.7,0.2,3.9,3.9,3.9c7.2,0,14.4,0,21.6,0c5.1,0,5.1,0,5.1,5.1
		c0,2.7,0.1,5.4,0,8.1c0,1.3-0.3,2.7-0.5,4c-0.9,0-1.8,0-2.7,0c-0.9,0.1-1.9-0.4-2.5,0.8c1.8,0,3.7,0.9,5.3-0.7
		c0.5,0.9,0.3,1.6-0.8,1.9c-0.6,0.2-1.1,0.5-2.2,0.9c1.4,0.5,2.2,0.8,3.1,1.1c-0.2,0.2-2.6,1.6-3,1.8c0.1,0.1,0.1,0.4,0.2,0.4
		c2.9,0.2,2.9,0.2,3,3.2c0.1,1.7,0.2,3.4,0.1,5.1c-0.1,1.9-0.8,2.6-2.6,2.8c-0.7,0.1-1.4,0.1-2,0.1c-7.4,0-14.8,0-22.2,0
		c-0.6,0-1.2,0-1.8,0c-1.2,0-1.9,0.7-1.9,1.9c0,0.9,0,1.9,0,2.8c0,25.7,0,51.4,0,77.2c0,4.2-0.1,4.5-4.2,4.1c-2.8-0.3-5.3,0.7-8,0.7
		c-4.7,0-9.3,0.3-14,0.4c-1,0-2,0-3,0.3c1.3,1.3,2.9,0.7,4.4,0.8s3,0,4.5,0.2c-1.4,0.9-9.6,1.1-12.9,0.4c0-0.4,0.2-1.2,0-1.3
		c-1.8-1.4-1.1-3.1-0.7-4.7c0.2-0.9,0.4-1.8,0-2.7c-0.1-0.3-0.2-0.7-0.1-1c0.5-1.7,1-3.4-0.2-5.1c-0.2-0.2,0.2-0.8,0.2-1.2
		c0.1-0.8,0.3-1.7,0-2.5c-0.5-1.4-0.5-2.8-0.3-4.2c0.2-2.3,0.2-4.6,0-6.9c-0.2-3.2,0.7-4.6,3.7-5.2c0.4-4.1,0.2-4.7-1.9-5.4
		c-0.4,1,0.9,2.7-1.1,3.1c-1.4-2.7-1.2-3.7,1.1-4.9c-0.8-1.3-2-2.5-1.6-4.5c1,1.2,1,3.2,3,3.5c0.6-1.5,1.1-3,1.7-4.7
		c-0.6-0.1-1.2-0.3-1.8-0.4c-2.2-0.3-2.3-0.3-2.6-2.6c-0.1-0.9-0.2-1.9-0.2-2.8c0.1-2,0.9-2.6,2.8-1.8c1.2,0.5,2.3,1.1,3.6,1.7
		c0.2-0.4,0.6-0.9,0.6-1.1c-0.6-1.6-1.1-3.4-2-4.8c-1.1-1.6-2.1-1.4-3.3,0.3c-0.2,0.3-0.5,0.6-0.8,1c-1.6-2.3-1.1-5.6,1.1-7.3
		c-0.6-1-2.5-1.2-1.8-3c0.5,0.2,1,0.5,1.8,0.8c0.3-0.9,0.6-1.6,0.8-2.4c0.2-0.9-0.2-1.4-1-1.8c-2.1-1.1-2.1-1.2-1.2-3.6
		c1.3,0.3,1.5,1.5,2.1,2.3c0.5,0.6,1,1.3,1.7,1.8c0.2,0.2,1-0.1,1.3-0.3c0.2-0.1,0-0.7,0-1.1c0-0.1-0.1-0.1-0.2-0.2
		c-2-2.7-2-2.7,0.7-4.6c-0.9-1.9-2.4-2.1-4.3-1.5c-0.3-0.6-0.6-1.1-1-2c1.3-0.1,2.2-0.1,3.3-0.2c0.1-2.4-2.4-2.5-3.6-3.8
		c0.8-0.5,1.8-0.9,2.1-1.5c0.4-0.7,0.1-1.8,0.1-2.7c1.3-0.3,2,0.2,2.5,1.1c0.5,0.8-0.1,1.4-0.6,2c-0.4,0.5-0.6,1.1-1.1,2.1
		c1.6-0.6,2.8-0.9,3.8-1.4c0.4-0.2,0.6-0.8,0.7-1.2c0.2-1,0.8-1.2,1.9-1c-0.1,0.3-0.2,0.6-0.4,0.8c-0.5,0.6-1.1,1.3-0.3,2
		c0.3,0.2,1.2-0.2,1.8-0.3c0.9-0.1,1.8-0.1,2.7-0.2c1.2-2.1,0.9-4-1.1-6.7c-0.5,0.5-0.9,1.1-1.4,1.6c-0.6-1.5-1.3-3-1.9-4.4
		c0-0.1-0.3-0.1-0.6-0.2c-0.1,0.4-0.4,0.9-0.4,1.3c0,0.6,0.1,1.2,0.2,1.8c0.2,1.1-0.1,1.9-1.2,2.2c-1.2,0.3-1.2-0.9-1.6-1.5
		c2.4-1,2.5-1.2,0.8-3.1c-1.3-1.5-2-3.3-2-5.7c0.8-0.1,1.6-0.3,2.4-0.4c0.9-0.1,1.9,0,2.8-0.1c0.9-0.1,1.3-0.6,1.3-1.6
		c0-1.1,0-2.2,0-3.1C10.6,118.8,10,118.2,9.5,117.6c0.4-0.2,0.9-0.4,1.6-0.8C9.9,116.5,9.4,116.7,9.5,117.6z M12.1,158.8
		c2.4-1.8,2.7-3.9,2.7-6.3c-2.1,0.3-2.7-1.2-3.3-2.5c-1.6,0-2.4,0.8-3.1,2c-0.7,1.3,0.7,1.7,1.1,2.4c-0.7,0.8-1.2,1.4-1.9,2.2
		C9,158,11.4,156.2,12.1,158.8z M15.7,189.9c-1.2,0.5-1.8,0.8-2.3,1c-1-0.6-1.4-1.8-2.8-1.5c0.3,1.8-1.1,2.7-2.4,4
		c1.4,0.5,2.6,0.6,3.5,1.2c0.9,0.6,1.6,1.6,2.5,2.6c0.6-0.9,1.1-1.6,1.7-2.5C14.5,193.4,14.9,191.9,15.7,189.9z M8.4,204.6
		c2.8-0.8,3.5-3,1.9-5.5c-0.4,0.3-0.8,0.5-1.1,0.7c-0.4-1.4-0.5-2.7-1.1-3.9c-0.2-0.5-1.2-0.6-1.9-0.8c-0.1,0.6-0.5,1.2-0.4,1.7
		C6.6,199.4,7.5,201.9,8.4,204.6z M15.6,109.8c-1.5,0-3.2-1.5-4.6,0.3c3.7,2.8,7,4,9.7,3.3c-0.8-0.5-1.4-0.7-1.8-1.1
		c-0.4-0.3-0.8-0.8-1.2-1.1c1.5-2,1.7-3,0.7-3.5C17.5,107.2,16.8,107.7,15.6,109.8z M6.5,177.8c2-0.1,3-1.7,4.2-2.8s1.8-2.8,2.8-4.5
		c-2.8-0.2-3.5,1.6-4.1,3.3c-1-0.1-1.9-0.2-2.8-0.3C6.5,175.1,6.5,176.4,6.5,177.8z M7.8,166c-0.3-2.9,2.5-2,3.4-3.5
		c-1.2-1.7-2.6-2.8-4.9-2.8C5.7,161.9,5.7,163.9,7.8,166z M8,183.2c0.7,3.1,1.9,4.3,4,4.3C11.6,183.5,11.4,183.2,8,183.2z M3.5,69.2
		C3.3,70.5,3.3,71.3,3,72c-0.2,0.8-0.7,1.5-1,2.3c-0.1,0.2-0.1,0.4,0,0.5c0.1,0.4,0.2,1,0.5,1c0.4,0.1,1,0,1.3-0.3
		C5.2,74.2,5.2,71.4,3.5,69.2z M17,187.3c0.1,1.2,0.2,2.3,0.2,3.4c1.1,0.1,2,0.2,3.2,0.4c-0.2-1.1-0.3-1.8-0.5-2.5
		C19.5,186.9,19.5,186.9,17,187.3z M34.3,36.5c0.8,0.3,1.1,0.5,1.3,0.4c1.6-0.4,3.1-0.5,4.7,0.1c0.4,0.2,1.1-0.2,1.6-0.3
		c-1.4-0.8-2.5-1.6-3.8-2.1c-0.7-0.3-1.6-0.3-2.4-0.4c-0.1,0-0.3,0.3-0.6,0.5c0.6,0.3,1.1,0.5,1.8,0.7C36,35.8,35.4,36,34.3,36.5z
		 M15.9,40.7c0.8,0.1,1.7,0.3,2.5,0.4c0.8,0.1,1.7,0,2.5,0.2c0.9,0.2,1.8,0.5,2.8-0.4c-0.5-0.4-0.9-1-1.4-1
		C20.2,39.6,18.1,39.2,15.9,40.7z M3,206.2c0.7,0.2,1.8,0.3,2.1-0.7c0.2-0.6-0.1-1.7-0.6-2.2c-0.7-0.7-1.8-1.3-2.9-1.2
		C2.1,203.4,2.5,204.6,3,206.2z M14.3,68.4c-0.7-0.6-1.4-1.4-2.2-1.9c-0.4-0.2-1.1-0.1-1.5,0.2c-0.2,0.2-0.3,0.9-0.1,1.3
		C11.1,69.8,12.8,69.9,14.3,68.4z M15.6,201.5c1.2,1,2.5,0.8,4.2,0.5c-0.2-0.9-0.3-1.8-0.5-2.8C17.7,199.9,15.9,199.5,15.6,201.5z
		 M75,10c-0.7-1.3-1.6-1.9-2.8-1.4c-1,0.4-1.7,1-1.2,2.4C72.5,11.3,73.7,11.1,75,10z M19.1,195.2c-2-0.4-3.1,0.2-3.3,1.6
		c-0.1,0.4,0.1,1.2,0.4,1.3c0.5,0.2,1.3,0.1,1.5-0.2C18.3,197.1,18.6,196.2,19.1,195.2z M12.7,99.6c-0.2,0.7-0.3,1.1-0.3,1.4
		c0.1,0.8-0.6,2,0.5,2.5c1.1,0.4,1.5-0.7,2.1-1.4c0.1-0.1,0.1-0.3,0.2-0.8C14.5,100.8,13.7,100.3,12.7,99.6z M15.6,30.6
		c2,1.2,4.3,1,6.1-0.2c-0.3-0.3-0.7-0.7-0.9-0.7C19.1,30,17.3,30.3,15.6,30.6z M11.8,166.6c0.2,0.1,0.5,0.2,0.7,0.4
		c1-0.6,2.2-0.9,2.7-2.3c-1-0.9-2.1-1-3-0.3C11.7,164.8,11.9,165.8,11.8,166.6z M28.4,119.3c-1.7-1.5-3.4-1.1-4,1
		C25.9,120.2,27.3,120.4,28.4,119.3z M11,179.9c0.3,0,0.6,0,0.9,0c0.2-0.7,0.5-1.4,0.4-2c0-0.3-0.7-0.8-1-0.8s-1,0.6-0.9,0.9
		C10.4,178.6,10.7,179.2,11,179.9z M55.6,32.7c-2.7-0.8-2.7-0.8-3.9-0.3C52.8,33.4,53.9,33.8,55.6,32.7z M72.3,31.1
		c1.8,1,1.8,1,3.3,0.5C74.7,30.5,73.8,30.3,72.3,31.1z M57.7,30.8c-1.4-0.7-2.4-1.1-3.4,0C55.3,31.7,56.2,31.6,57.7,30.8z M6.1,22
		c-0.2-1.2-0.5-1.8-1.6-1.8C4.3,21.6,4.3,21.6,6.1,22z M12,6.5c-0.1-0.3-0.1-0.6-0.2-0.8C11,5.9,10,5.7,9.3,6.5
		c0.1,0.2,0.1,0.4,0.2,0.6C10.3,6.9,11.2,6.7,12,6.5z M63.6,13.6c-0.9-0.5-1.5-0.5-2.1,0.5C62.4,14.7,63,14.5,63.6,13.6z M5.8,217.7
		c-0.4-0.4-0.6-0.9-0.8-0.8c-0.4,0-0.8,0.2-1,0.5c-0.1,0.1,0.2,0.8,0.2,0.8C4.7,218,5.1,217.9,5.8,217.7z M13.9,17.4
		c-0.2-0.1-0.4-0.2-0.6-0.3c-0.2,0.4-0.4,0.8-0.6,1.2c0.1,0.1,0.4,0.2,0.4,0.2C13.4,18.1,13.6,17.8,13.9,17.4z M53.8,28.3
		c0.3-0.3,0.5-0.6,0.7-0.8c-0.2-0.1-0.4-0.4-0.5-0.4c-0.2,0-0.5,0.2-0.5,0.4C53.4,27.7,53.6,27.9,53.8,28.3z M26.1,174
		c-0.2,0.2-0.4,0.3-0.4,0.4c0.1,0.2,0.3,0.3,0.4,0.5c0.1-0.1,0.3-0.2,0.3-0.3C26.3,174.4,26.2,174.2,26.1,174z M60.4,121.4
		c0-0.1,0-0.3,0-0.4c-0.3,0-0.7-0.1-1-0.1c0,0.2,0,0.4,0,0.6C59.7,121.5,60,121.5,60.4,121.4z M27.4,150.6c-0.3-0.2-0.4-0.5-0.6-0.5
		s-0.4,0.2-0.5,0.3c0.2,0.2,0.3,0.4,0.5,0.5C26.9,150.9,27.1,150.7,27.4,150.6z M16.4,117.3c0-0.2,0-0.4,0-0.5
		c-0.4,0.1-0.7,0.1-1.1,0.2c0,0.1,0,0.3,0,0.4C15.7,117.3,16,117.3,16.4,117.3z M7.7,31.5c0-0.1-0.1-0.3-0.1-0.4
		c-0.4,0.1-0.7,0.1-1.1,0.2c0,0.1,0.1,0.3,0.1,0.4C6.9,31.7,7.3,31.6,7.7,31.5z M2.9,8.4c0.2-0.2,0.4-0.5,0.4-0.6
		C3.2,7.6,2.9,7.4,2.7,7.4c-0.1,0-0.3,0.3-0.4,0.4C2.5,8,2.6,8.1,2.9,8.4z M20,6.8c0-0.2,0-0.4,0-0.6c-0.4,0-0.8,0-1.1,0.1
		c0,0.1,0,0.3,0,0.4C19.2,6.7,19.6,6.7,20,6.8z M43.2,32.8c0.2-0.1,0.3-0.2,0.5-0.2c-0.1-0.1-0.2-0.3-0.4-0.4
		c-0.1,0-0.2,0.1-0.4,0.2C43,32.5,43.1,32.7,43.2,32.8z M29.1,117.1c-0.2-0.1-0.4-0.2-0.6-0.2c-0.1,0-0.2,0.3-0.2,0.4
		c0.2,0.1,0.4,0.2,0.5,0.3C28.9,117.4,28.9,117.3,29.1,117.1z M71.8,34.1c-0.2-0.1-0.4-0.2-0.6-0.2c-0.1,0-0.2,0.3-0.2,0.4
		c0.2,0.1,0.4,0.2,0.5,0.3C71.6,34.5,71.7,34.4,71.8,34.1z M23.9,34.5c0.1,0.2,0.3,0.4,0.3,0.4c0.2-0.1,0.4-0.2,0.6-0.3
		c-0.1-0.1-0.2-0.3-0.3-0.3C24.3,34.3,24.1,34.4,23.9,34.5z M27.6,114.4c-0.2,0.2-0.2,0.3-0.3,0.4c0.2,0.1,0.3,0.3,0.5,0.4
		c0,0,0.3-0.2,0.3-0.3C27.9,114.7,27.7,114.5,27.6,114.4z M30.3,40.2c-0.2-0.1-0.4-0.3-0.5-0.3s-0.2,0.1-0.3,0.2
		c0.1,0.1,0.3,0.3,0.5,0.4C30,40.5,30.1,40.4,30.3,40.2z M57.8,126.8c-0.1-0.2-0.3-0.4-0.3-0.4c-0.2,0.1-0.3,0.2-0.5,0.4
		c0.1,0.1,0.2,0.3,0.3,0.3C57.5,127,57.6,126.9,57.8,126.8z M16.2,126.4c-0.1,0.1-0.3,0.2-0.4,0.4c0.1,0.1,0.2,0.3,0.3,0.3
		c0.2-0.1,0.3-0.2,0.5-0.3C16.5,126.6,16.4,126.5,16.2,126.4z M11.4,20.2c-0.1-0.1-0.2-0.2-0.3-0.2s-0.3,0.2-0.4,0.2
		c0.1,0.1,0.3,0.3,0.5,0.3C11.2,20.6,11.3,20.3,11.4,20.2z M16.6,129.3c-0.1-0.1-0.2-0.1-0.3-0.2l-0.2,0.1c0.1,0.1,0.1,0.2,0.2,0.4
		C16.5,129.5,16.6,129.4,16.6,129.3z M34.3,117.3c0-0.1-0.1-0.3-0.1-0.4c-0.1-0.1-0.3,0-0.5,0c0.1,0.2,0.1,0.4,0.2,0.5
		C34,117.4,34.2,117.4,34.3,117.3z M9,34c-0.1,0-0.3-0.1-0.4-0.1l-0.1,0.2c0.1,0.1,0.2,0.2,0.3,0.3C8.9,34.2,8.9,34.1,9,34z
		 M14.5,174.2c-0.1-0.1-0.2-0.3-0.3-0.3s-0.3,0.1-0.4,0.2c0.2,0.1,0.3,0.3,0.5,0.4C14.3,174.4,14.4,174.3,14.5,174.2z M9.8,219
		c0-0.1,0-0.3-0.1-0.4c-0.1-0.1-0.3,0-0.5,0c0,0.2,0.1,0.4,0.1,0.6C9.6,219.2,9.7,219.1,9.8,219z M64.9,11.1
		c0.1-0.1,0.3-0.2,0.4-0.2c-0.1-0.1-0.2-0.3-0.4-0.4c-0.1,0.1-0.3,0.2-0.3,0.3C64.6,10.9,64.8,11,64.9,11.1z"/>
	<path class="st0" d="M228.3,126.8c0.7-2.1-0.2-3.4-2.3-4.2c0.9-0.7,1.9-1,2.3-1.7c0.3-0.5,0-1.5-0.1-2.6c0.5,0,1.3-0.1,2.1-0.1
		c0,0.8,0,1.7,0.2,2.5c0.1,0.4,0.3,1.1,0.6,1.2s1.1,0,1.3-0.3c0.3-0.4,0.4-1.2,0.2-1.5c-0.4-0.9-1.2-1.6-1.8-2.4
		c-0.2-0.4-0.4-0.9-0.7-1.5c1.4-0.1,2.8-0.2,3.3-1.9c-1.6,0-3.1,0-4.8,0c0.3-0.8,0.4-1.5,0.6-2.1c1.1,0.2,2.3,0.4,3.7,0.6
		c-1.8-2.1-2.6-2.2-3.8-0.7c-1.6-1.1-1.7-2.9-1.9-4.5c-0.1-0.6,1-1.4,1.5-2.1c0.3-0.4,0.8-1.1,0.7-1.3c-0.5-0.8-1.3-1-2.7-0.9
		c0.8,0.9,1.4,1.5,2,2.2c-2.5-0.3-3-0.7-2.7-2.9c0.2-1,0.1-1.8-1-1.8c-1.2-0.1-1.3,0.9-1.2,1.8c0.1,0.4,0.2,0.8,0.3,1.3
		c-1.3,0.1-2.1-0.1-1.7-1.4c0.3-1,0.3-2-0.2-2.9c-0.8-1.8,0.6-2.9,1.4-4.3c0.3-0.1,0.6-0.1,1-0.2c-0.1-0.2-0.3-0.4-0.4-0.6
		c-0.2,0.2-0.4,0.5-0.6,0.7c-0.5-0.4-1.2-0.8-1.3-1.3c-0.2-1-0.1-2,0.2-3c0.1-0.3,1.1-0.5,1.7-0.4c1.2,0.1,2.4,0.4,3.9,0.7
		c-1.8-2.6-1.8-2.6-5.3-1.9c-1.1-0.9-0.9-2.3-0.9-3.5c0-3.1,0.1-6.1,0.2-9.2c0-0.8,0.4-1.7,0.4-2.5c0-1.1-0.3-2.2-0.3-3.4
		c0-1.1,0.3-2.1,0.4-3.2c0-0.4-0.2-0.8-0.3-1.3c0.9-0.5,1.8-1,3.1-1.7c-1.3-0.3-2.3-0.6-3.4-0.9c0.1-4.1,0.3-8.3,0.3-12.4
		c0-3.5-0.1-6.9-0.2-10.4c0-1.1-0.8-1.7-1.8-1.7c-1-0.1-2,0-3.1-0.1c-1.7-0.2-2.2-0.6-1.7-2.3c0.2-0.9,0-1.4-0.5-2.1
		c-0.7-0.9-1.3-1.8-2-2.6s-1.6-0.8-2.6-0.3c-0.1,1.8,1.8,1.7,2.5,2.8c-0.1,1.2-0.3,2.5-0.4,3.7c-0.7,0-1.3-0.1-1.9,0
		c-1.1,0.2-2.1,0.6-3.1,0.7c-1.6,0.1-3.2,0-4.8,0c-4.2,0-4.4-0.2-4.4-4.5c0-4.4,0-8.8,0-13.2c0-0.7,0-1.3,0-1.6
		c1-0.9,1.7-1.5,2.4-2.1s1.5-1.2,2-1.9c0.4-0.4,0.7-1.3,0.5-1.7c-0.3-0.4-1.1-0.7-1.7-0.7c-0.4,0-0.9,0.3-1.8,0.7
		c0.1-0.8,0-1.8,0.3-1.9c0.8-0.4,1.8-0.9,2.6-0.7c2.1,0.6,3.2-0.3,4.2-1.9c-1.7-0.7-3.2-1.4-5.3-2.4c1.9-0.1,3.3-0.3,4.6-0.2
		c1.2,0.1,2-0.1,2.7-1c0.9-1.2,2.1-1.5,3.6-1.5c3.8,0,7.7,0,11.5,0.1c0.9,0,1.9,0.2,2.7,0.5c3.1,0.9,6.3,1,9.5,0.4
		c1.5-0.3,3.1-0.9,4.7-0.1c0.1,0.1,0.3,0,0.5,0c3.2-0.2,6.3-0.4,9.5-0.6c0.9-0.1,1.8-0.3,2.4,0.8c0.5,1,1.5,0.8,2.2,0.3
		c2-1.4,4.2-1.3,6.4-1.3c4.7,0,9.3,0,14,0c0.8,0,1.5,0,2.3,0.1c2.3,0.2,2.8,0.8,2.9,3c0,9.5,0,19,0,28.5c0,2.6-0.4,3-3,3
		c-6.4,0-12.7-0.1-19.1-0.2c-1.7,0-2.2,0.5-2.2,2.3c0.1,4,0.3,8,0.3,12c0,1.4-0.2,2.9-0.3,4.3c-0.1,1.1-0.1,2.2-0.1,3.3
		c0.1,3.1,0.4,6.3,0.4,9.4c0,26.2,0,52.3,0,78.5c0,3.4-0.3,6.8-0.4,10.2c0,1.1-0.1,2.2,0,3.3c1,10.2,0.7,20.4,0.3,30.5
		c-0.3,9.1,0.7,18.1,0.1,27.2c-0.1,1.2-0.2,2.4-0.4,3.5c-0.3,1.2-1.2,1.7-2.5,1.7c-4.2,0-8.5,0-12.7,0c-4.8,0-9.7,0-14.5,0
		c-0.7,0-1.4,0-2-0.1c-1.5-0.2-2.2-0.7-2.3-2.2c-0.1-2.6-0.4-5.2-0.3-7.8c0.3-5.8,0-11.7,0-17.6c0-1.9,0.2-3.7,0.2-5.6
		c0-4.9,0-9.8,0-14.8c0-0.6,0.1-1.3,0.2-2.4c0.5,0.9,0.8,1.4,1.1,1.9c1.1-0.5,2.1-1.1,3.2-1.6c1-0.4,1.4-1.1,1.4-2.2
		c-0.1-1.1-0.5-1.9-1.8-2.1c-0.6-0.1-1.3-0.3-1.8-0.5c-0.6-2.5,1.2-3.6,2.9-4.8c-1.8-1-4.5-1-4.6-3.3c-0.1-1.5-1.4-3.5,0.7-5
		c0.6,1.1,0.8,2.1,0.2,3.2c-0.5,1-0.6,1.9,0.5,2.4c1.4-1,2.7-1.9,4.1-2.9c-2.1-1.2-2.4-4.2-5.7-4.6c0.7-1.2,1.3-2.1,2.1-3.3
		c0.6,0.8,1.1,1.4,1.5,1.9c-0.6,0.2-1.6-0.4-1.7,1.2c0.8-0.5,1.3-0.9,1.8-1.2c0.8-0.2,1.6-0.5,2.3-0.7s1.4-0.6,2.1-0.5
		c1.9,0.2,3.8,0.5,5.8,0.8c2.2,0.3,4.3,0.8,6.5,1.1c0.3,0.1,0.6,0,1,0c-1.3-1.5-1.3-1.5-8.1-2.5c0.4-1.3,0.8-2.5,1.1-3.8
		c0.3-1.2,0.3-2.5,0.5-3.7c0.2-1.4-0.6-2-1.9-2l0,0c0-0.5,0.1-1,0.1-1.4c-0.9-0.1-1.7-0.2-2.7-0.3c0.8-1.8,1.5-3.2,2.1-4.6
		c-0.5-0.9-0.9-1.8-1.4-2.5c-0.1-0.2-0.6-0.4-0.9-0.3c-0.2,0.1-0.5,0.5-0.5,0.8c0.1,0.6,0.5,1.1,0.6,1.6s0,1,0,1.5
		c-1.1-0.3-1.8-0.6-2.5-0.8l0,0c-0.8-1.5-1.6-3-2.4-4.7c-0.6,0-1.4,0.1-2.1,0.1h-0.1c0-0.7-0.1-1.4-0.1-2.5
		c-0.9,0.5-1.3,0.8-1.9,1.1c-0.4-0.3-0.8-0.8-1.3-1.2c0.6-0.8,2.1-0.4,1.9-2c-0.5-0.1-1-0.3-1.5-0.5c-0.1-1.4,1.4-1.7,3.6-0.7
		c0.7,0.9-1.2,2.3,0.9,3C227.7,128.3,228,127.5,228.3,126.8c0.3,0.4,0.6,1.1,1,1.1c1.1,0.2,2.3,0.1,3,0.1c-0.8-0.9-1.7-2-2.7-3.1
		C229.3,125.4,228.8,126.1,228.3,126.8z M228.9,47.3c0.4,0.9,0.8,1.9,2.3,1.3c-0.4-0.6-0.7-1.3-1.2-1.7
		C229.8,46.7,229.2,47.1,228.9,47.3c-0.5,0.1-0.9,0.2-1.4,0.3c0.1,0.1,0.2,0.3,0.2,0.4C228.1,47.8,228.5,47.6,228.9,47.3z
		 M213.6,29.4c0.1-0.7,0.3-1.5,0.3-2.2c-0.1-1.1-0.4-2.2-1.9-2c-0.1,0.8-0.3,1.6-0.4,2.4c-0.1,1.1-0.1,2.3,1.5,2.4
		c2,1.7,2.2,1.7,3.8,0.6C216.2,29.1,214.7,29.5,213.6,29.4z M236.5,132.9c0.3-1.5,0.6-2.9,0.9-4.6c-0.6-0.2-1.3-0.5-2.4-0.8
		c0.3,2-2.8,2.2-2,3.9c1.3,0.9,2.1,1.5,3,2.1c0.4,1.9,0.4,1.9,2,1.5c0.2,1.5-1.2,1.6-2,2.3c0.4,1.4,0.7,2.7,1,4c0.2,0,0.3,0,0.5,0.1
		c0.4-1,0.7-1.9,1.1-2.9c0.5,0.2,0.9,0.4,1.5,0.6c0.3-0.9,0.5-1.7,0.7-2.5c-1.1-0.6-1.9-1.1-2.8-1.6
		C238.4,133.2,238.4,133.2,236.5,132.9z M245.9,25c0.8,1.2,1.8,1.1,2.7,1.2c2.4,0.2,4.8,0.2,7.2,0.6c2.5,0.4,5.1,0.5,6.8,2.7
		c0.3-0.6,0.5-0.9,0.8-1.4c1.3,0.9,2.6,1.7,3.9,0.4c-1.4-0.6-2.8-1.2-4.2-1.8c-2.4-1-4.8-2.1-7.6-1.4c-1.1,0.3-2.3-0.2-3.5-0.4
		C250.1,24.5,248.2,24,245.9,25z M205.3,18.4c-1.8,2.8-0.1,5.1-0.1,7.9c1.1-1,1.9-1.7,2.9-2.5C205.5,23,206.6,20.5,205.3,18.4z
		 M211.5,6.3c1.4,1.1,3.2,1.1,5.7,0C215.1,5,213.4,6.1,211.5,6.3z M231.4,129.2c-2.1,0.1-2.4,0.6-1.9,2.9
		C231,131.8,231.3,130.7,231.4,129.2z M227.7,51.4c-1-0.8-1.6-1.3-2.3-1.9c-0.7,0.5-1.5,0.9-1.6,2.3
		C225.1,51.7,226.2,51.6,227.7,51.4z M231.5,155c0.3,1.2,0.7,2.2,1.9,2.3c0.7,0.1,1.3-0.4,1.1-1.4
		C233.6,155.6,232.5,155.3,231.5,155z M231.9,46.3c1.4,2,2.9,2,3.9,0.2c-0.7,0-1.2,0.1-1.8,0.1C233.4,46.5,232.9,46.4,231.9,46.3z
		 M228.3,94.9c2.4,1.5,2.9,1.5,4,0C231,94.9,229.8,94.9,228.3,94.9z M225.9,54.8c0.1-0.1,0.2-0.2,0.3-0.4c-0.5-0.5-0.9-1.1-1.4-1.5
		c-0.2-0.2-0.7,0.1-1.1,0.1c0.1,0.4,0.1,1,0.4,1.2C224.6,54.5,225.3,54.6,225.9,54.8z M226.5,71.2c-0.6-1-0.9-1.6-1.2-2.3
		c-0.6,0.7-1.1,1.2-1.8,2.1C224.6,71.1,225.2,71.1,226.5,71.2z M227.8,85.1c0.9,0.5,1.4,0.7,1.9,1c0.1-0.3,0.4-0.6,0.4-0.8
		C229.8,84.5,229.2,84.4,227.8,85.1z M231.8,108.2c-0.9-0.8-1.6-1.3-2.7-0.6C229.8,108.4,230.4,108.9,231.8,108.2z M235.9,116.3
		c-0.6-0.3-0.9-0.6-1.2-0.6s-0.5,0.4-0.8,0.7c0.2,0.3,0.5,0.8,0.7,0.8C234.9,117.1,235.3,116.7,235.9,116.3z M225.8,48.1
		c-0.9-0.8-1.4-0.7-1.6,0.6C224.9,48.4,225.3,48.3,225.8,48.1z M206,29.8c-0.1-0.2-0.1-0.4-0.2-0.5c-0.5,0.2-1,0.4-1.4,0.5
		c0.1,0.2,0.1,0.4,0.2,0.5C205,30.2,205.5,30,206,29.8z M210.6,19.6c-0.2,0.2-0.3,0.4-0.5,0.6c0.4,0.3,0.8,0.6,1.2,0.8
		c0.1-0.1,0.2-0.3,0.3-0.4C211.3,20.2,211,19.9,210.6,19.6z M227.8,169.1c-0.4-0.3-0.7-0.6-1-0.7c-0.1,0-0.3,0.3-0.5,0.5
		c0.3,0.3,0.5,0.6,0.8,0.8C227.2,169.7,227.5,169.4,227.8,169.1z M236.8,25.7c0-0.2,0-0.4,0-0.6c-0.4,0.1-0.8,0.1-1.2,0.2
		c0,0.1,0,0.3,0,0.4C236,25.7,236.4,25.7,236.8,25.7z M228,61.8c0,0.2,0,0.4,0,0.6c0.4-0.1,0.8-0.1,1.3-0.2c0-0.1,0-0.3,0-0.4
		C228.8,61.8,228.4,61.8,228,61.8z M253.3,47.5c0-0.1-0.1-0.3-0.1-0.4c-0.4,0.1-0.8,0.2-1.1,0.3c0,0.1,0.1,0.3,0.1,0.4
		C252.5,47.6,252.9,47.5,253.3,47.5z M228.5,156.2c-0.2,0.2-0.3,0.3-0.4,0.4c0.1,0.2,0.3,0.3,0.4,0.5c0,0,0.3-0.2,0.3-0.3
		C228.8,156.5,228.7,156.4,228.5,156.2z M230,100.7c0,0.2,0,0.3,0.1,0.5c0.3,0,0.7-0.1,1-0.1c0-0.1-0.1-0.4-0.1-0.4
		C230.7,100.6,230.4,100.7,230,100.7z M229.2,69.8c-0.1-0.2-0.2-0.4-0.3-0.4c-0.2,0-0.4,0.2-0.6,0.2c0.1,0.1,0.2,0.4,0.2,0.3
		C228.8,70,229,69.9,229.2,69.8z M200.4,24.2c-0.1,0.2-0.2,0.4-0.2,0.6l0.3,0.2c0.1-0.1,0.2-0.3,0.4-0.5
		C200.8,24.4,200.6,24.3,200.4,24.2z M239.3,149.6c-0.1,0.2-0.1,0.4-0.1,0.6c0,0.1,0.4,0.2,0.4,0.2c0.1-0.2,0.2-0.4,0.3-0.5
		C239.6,149.7,239.5,149.7,239.3,149.6z M224.7,45.8c0.2,0.1,0.4,0.3,0.6,0.3c0.1,0,0.2-0.2,0.3-0.3c-0.2-0.1-0.3-0.3-0.5-0.4
		C225,45.4,224.9,45.7,224.7,45.8z M233,161.2c0.3-0.4,0.4-0.6,0.5-0.7c-0.2-0.1-0.3-0.3-0.5-0.3c0,0-0.2,0.2-0.2,0.3
		C232.8,160.7,232.9,160.9,233,161.2z M256.3,28.1c0.1-0.1,0.3-0.1,0.4-0.2c-0.1-0.1-0.1-0.2-0.2-0.4c-0.2,0.1-0.3,0.2-0.5,0.3
		C256.1,28,256.2,28,256.3,28.1z M259.3,28.6c-0.1-0.1-0.2-0.4-0.2-0.4c-0.2,0-0.3,0.1-0.5,0.2c0.1,0.1,0.2,0.3,0.3,0.3
		C259,28.7,259.2,28.6,259.3,28.6z M208.8,35.5c-0.1-0.1-0.3-0.2-0.4-0.2c-0.1,0-0.2,0.2-0.3,0.3c0.2,0.1,0.3,0.2,0.5,0.2
		C208.6,35.8,208.7,35.6,208.8,35.5z M231.1,110.2c0.1-0.1,0.2-0.1,0.3-0.2c-0.1-0.1-0.2-0.2-0.3-0.3l-0.2,0.1
		C230.9,110,231,110.1,231.1,110.2z M230.4,49.6c-0.2-0.1-0.5-0.1-0.7-0.2c0,0-0.1,0.3-0.1,0.4c0.1,0.1,0.3,0.2,0.4,0.2
		C230.2,50,230.3,49.8,230.4,49.6z"/>
	<path class="st0" d="M308.4,186.4c-0.6-0.5-1.2-1-2-1.7c-0.3,0.1-0.9,0.4-1.9,0.9c0.4-1.1,1.1-2.1,0.9-2.6
		c-0.8-1.4,0.7-1.4,1.1-2.1c0.6-0.5,1.3-0.8,1.7-1.4c0.5-0.6,0.4-1.2-0.7-1.5c-0.7,0.7-1.4,1.5-2.1,2.3c-1.2-0.5-1.1-1.5-0.8-2.7
		c-0.7,0-1.3,0-2.1,0c-0.3-3.3-1.5-6.6,0.1-9.4c-0.3-1.9-0.7-3.3-0.7-4.8c-0.1-10.1-0.1-20.2,0-30.3c0-4.9,0.3-9.8,0.5-14.7
		c0-0.8,0.4-1.5,0.6-2.3c-0.2-1.1-0.6-2.3-0.6-3.5c-0.1-3.3,0-6.6,0-9.9c-0.1-7.7-0.6-15.4-0.4-23.1c0.1-6-0.2-12-0.1-18
		c0-1.9,0.3-3.9,0.4-5.8c0.1-4.6,0.2-9.1,0-13.7c-0.2-3.8-0.4-7.6,0-11.4c0.2-2.1,0-4.2,0.1-6.4c0-1.9,0.1-3.9,0-5.8
		c-0.1-1.8,0.3-3.2,2.3-3.9c-2-2.2-2.5-4.6-2.3-7.2c0.2-2.1,1-2.9,3.1-2.7c1.5,0.1,2.9,0.5,4.4,0.8c0.9-0.3,2-0.8,3-0.8
		c5.6-0.1,11.2,0,16.8,0c0.2,0,0.5,0.1,0.8,0.1c0.2,0.8,0.5,1.6,0.7,2.4c-1,1.8-4.3,0.7-4.7,3.6c0.7,0,1.2,0,2.1,0
		c-1.9,2.7-3.4,5.2-5.8,7.1c3.1,2,3.9,2.2,7.1,2.3c0.8-0.8,1.5-1.6,2.4-2.6c1.5,1.7,2.8,3,3.9,4.5c0.9,1.1,0.6,1.9-0.6,2.9
		c-0.7,0.5-1.1,1.4-1.6,2.1c-0.8,1,0,1.7,0.5,2.5c0.3,0.4,0.2,1.1,0.3,1.6c0.1,0.3,0.1,0.8,0.2,0.9c1.8,0.6,1.3,2.2,1.3,3.5
		c0.1,2.5,0,5.1,0,7.6c0,0.9,0.2,1.9-1,2.5c-2.1-1.4-4.2-2.9-6.4-4.4c-0.9,1.8-0.7,4.1-3.1,4.1c-0.5,0-1.4-0.4-1.5-0.8
		c-0.2-0.9-1.9-0.9-1.2-2.2c0.7-0.5,1.4-0.9,2.6-1.7c-2.5,0-2.5,0-2.6,1.7c-1,0.4-2.6,0.4-1.4,2.2c0,0-0.6,0.4-0.8,0.6
		c0.8,0.8,1.5,1.8,2.5,2.3c0.8,0.4,1.9,0.3,2.9,0.4c1.2,0.1,2.3,0,3.7,0c-0.1,1-0.1,1.8-0.1,2.5c-1.8,1.7-3.6,1.2-5.9,0.1
		c0.8,1.5,1.2,2.5,1.7,3.4c0.9,1.7,1.5,1.7,2.8,0.2c1.2,0.2,2.3,0.4,3.5,0.6c1.5,0.2,1.4-1.5,2.3-2.4c0.4,1.3,0.2,2.7,1.8,3.1
		c0.3,0.1,0.4,1.1,0.4,1.6c0,2.9,0,5.7,0,8.6c0,1.4,0,2.7-1,3.9c-0.3,0.4-0.4,1.3-0.1,1.6c1.6,1.9,1.4,4.2,1.5,6.3
		c0.1,6.2-0.1,12.4-0.2,18.6c0,0.6,0.1,1.2,0.1,1.8c0,2.2,0,4.4-0.1,6.6c0,0.7-0.2,1.4-0.2,2c1,10.8,0.3,21.7,0.4,32.6
		c0.1,5.2-0.3,10.3-0.4,15.5c0,1.6,0.2,3.2,0.3,4.8c0.1,0.8,0.2,1.5,0.1,2.3c-0.4,3.5-0.3,7.1,0,10.6c0.1,1.5-0.4,3.1-0.6,4.8
		c-0.5,0.2-1,0.4-1.9,0.8c0.8,0.3,1.4,0.5,1.9,0.7c0.9,7.6,0.7,11.1-0.7,13.7c1.2,1.7,1.2,3.7,1.2,5.6c0,2.7-0.3,5.4-0.3,8.1
		c0,1.3-0.1,2.5-2.1,3.4c1.9,0.4,2.1,1.3,2,2.5c-0.1,1.1-0.2,2.2,0,3.3c0.5,2.7-0.8,4.6-2.5,6.2c-0.4,0.4-1,0.5-1.6,0.6
		c-0.8,0.1-1.7,0.1-2.5,0.1l0,0c-0.2-0.2-0.5-0.7-0.7-0.6c-1.3,0.4-1.9-0.4-2.3-1.4c-2.4,0.7-5.1-1.3-7.1,1.1
		c-0.6-0.3-1-0.8-1.5-0.8s-1.1,0.9-1.5,0c-0.3-0.6-0.3-1.4-0.2-2.1c0.2-0.8,0.7-1.5,1.1-2.3c0.1-0.3,0.2-0.6,0.3-1
		c-1.7-0.1-1.5,1.5-2.5,2.1c-1.2-0.2-2.6-0.6-3.9-0.5s-2.6,0.8-4,1.3c0.2,1.1,0.4,2.1,0.6,3.3c0.7-0.1,1.2-0.2,1.7-0.3
		c-0.1,0.3-0.1,0.7-0.2,0.7c-0.7,0.3-1.4,0.5-2.1,0.7c-1.2,0.3-2.4,0.7-3.7,1.1c-1.8-1.3-1.7-1.3-1.1-3.2c0.2-0.5,0.4-1.1,0.2-1.4
		c-1.6-2.6-0.7-5.2-0.4-8.1c1.1,0.7,1,1.6,1,2.5c0,1.6-0.1,3.2,1.1,4.5c0.8,0.8,1.4,0.9,2.1,0.2c0.4-0.3,0.7-0.7,1-1.1
		c1.3-1.7,1.1-2.3-1.1-3.2c-1.2,0.7,0,1.7-0.5,2.7c-0.4-0.3-1-0.4-1-0.7c-0.2-1.2-0.3-2.5-0.4-3.8c-0.1-1,0-2,0-3.1
		c1.5,0.1,1.3,2.7,3.4,2.2c-1.2-1.8-1.4-4.3-4.1-4.4c-0.6-1.8,1-2,1.3-2.9c0-1.7,0-3.4,0-5.1c-1.3,0.1-1.4,0.3-1.8,1.7
		c-0.3,1.3-0.6,2.6-1.1,3.9c-0.4-2.9-0.9-5.8,0.1-8.6c0.9-2.5,1.8-2.7,4.2-1.5c0.2,0.1,0.4,0.1,0.9,0.2c-0.2-1.2-0.5-2.2-0.7-3.2
		c-1.3,0-1.9,2-3.3,0.9c-1-0.8-1.7-1.6-1-3.2c0.6,0.2,1.1,0.4,1.5,0.7c2.1,1.2,2.6,1.1,3.6-1.1C308,187.1,308.2,186.8,308.4,186.4
		c1.7-0.9,1.7-0.9,0.3-2.6C307.6,184.5,308,185.5,308.4,186.4z M327.8,187.9c0.8,1.6,1,1.6,2.1,0.5c0.5,0,1,0.1,1.8,0.2
		c-0.2-0.7-0.3-1.1-0.5-1.5c-0.1-0.2-0.4-0.2-0.8-0.4c-0.2,0.6-0.4,1.1-0.6,1.6C329.1,188.2,328.5,188.1,327.8,187.9
		c0.4-0.5,0.8-0.9,1.2-1.4C327.8,186.5,326.5,186.4,327.8,187.9z M313.5,175.7c-0.5,0.3-1.1,0.5-1.6,0.8c0,0.2,0.1,0.3,0.1,0.5
		c0.6,0.1,1.1,0.3,1.9,0.5C313.7,176.6,313.6,176.2,313.5,175.7c0.1-1.1,0.1-1.1-1.2-1C312.8,175.1,313.1,175.4,313.5,175.7z
		 M305.3,9.6c-0.2,0.8-0.3,1.6,0.6,2.1C306.8,10.6,306.8,10.6,305.3,9.6c0-0.5,0-1,0-1.5c0.6,0.2,1.4,0.5,1.6-0.5s-0.3-1.7-1.8-1.8
		c0,0.8,0.1,1.5,0.1,2.2c-0.9,0.2-2,0.2-2.3,1.8C303.9,9.8,304.6,9.7,305.3,9.6z M329.3,24.4c-0.5-0.2-1-0.4-1.6-0.7
		c-0.5,1-1.2,1.9-0.2,2.8C328.1,27,328.8,26.2,329.3,24.4c0.6,1,0.4,2.5,2,2.6c-0.6,0.7-1.4,1.2-1.9,2c-0.9,1.6-0.4,2.9,1.6,3.8
		c0-1,0-2,0-2.9c0.5-0.1,0.9-0.1,1.4-0.1c0.3-1.2,0.2-2.2-1.1-2.7c-0.1-0.8-0.2-1.6-0.4-2.4C330.6,23.4,329.9,23.6,329.3,24.4z
		 M310.5,199.1c0.4,0.7,0.8,1.4,1.4,2.6c0.9-1.9,1.7-3.5,2.4-5.1c1-0.3,2.1,0.8,2.8-0.5c0.4-0.8,1.1-1.4,1.7-2.1
		c0.7-0.8,0.8-1.5,0-2.2c-1-0.8-2-1.5-3.2-2.4c-0.5,0.8-1,1.5-1.6,2.4c1.4,0.2,2.6-0.1,3,1.1c-1.4,1.2-3.2,2-3.9,3.3
		C312.4,197.6,311.3,198.2,310.5,199.1c-0.4-0.4-0.8-0.8-1.5-1.7c-0.2,1.2-0.5,1.9-0.5,2.6c0,0.3,0.5,0.7,0.8,0.8
		c0.3,0,0.8-0.3,1-0.5C310.4,200,310.4,199.5,310.5,199.1z M319.5,206.1c-0.2-0.1-0.4-0.1-0.6-0.2c-0.2,2.7-2.2,2.8-4.2,2.9
		c0.1,1.4,0.4,2.3,2.1,2.6c0.2-0.3,0.4-0.6,0.7-1c0.3-0.3,0.6-0.5,1.3-1.1c0.4,0.6,0.7,1.4,1.2,1.7c0.4,0.2,1.3,0.1,1.7-0.3
		c0.6-0.5,0.5-1.4-0.3-1.6c-1.1-0.3-1.1-1-1.3-1.9C320.2,206.9,319.8,206.5,319.5,206.1z M323.9,213.9c-2.1-0.4-3.9,0.3-4.5,1.9
		c-0.3,0.8-0.1,1.5,1.2,1.9c0.2-1.5,1.4-1.7,2.7-1.5C323.4,215.4,323.6,214.8,323.9,213.9z M323.8,27.6c1.2-1.8,1.3-3.9,0.5-5.6
		C322.2,23.8,321.9,25.9,323.8,27.6z M333.2,55.3c-3.5,1.5-3.9,1.9-3.9,3.8C331.6,58.6,333.3,56.9,333.2,55.3z M310.7,215.1
		c1.3-0.3,2.2-0.5,3.3-0.7c-0.4-1.1-0.7-1.9-1-3C311.4,212.3,310.4,213.2,310.7,215.1z M323.4,94.1c1.8,1.1,2.8,1.2,3.6,0.3
		c0.7-0.7,0.9-1.5,0.1-2.5C325.9,92.6,324.8,93.3,323.4,94.1z M320.4,40.4c1.1-0.6,2.4-0.8,2-2.3c-0.2-0.7-2.2-1.1-2.7-0.5
		C318.8,38.6,319.5,39.4,320.4,40.4z M314.9,47.2c2.8-1.7,2.9-2.3,1.5-4.4C314.8,43.8,314.8,45.3,314.9,47.2z M329.7,206.8
		c0.1,0,0.3,0.1,0.4,0.1c0.6-1.3,1.2-2.5,1.9-4c-0.9-0.3-1.6-0.6-2.3-0.9C329.7,203.9,329.7,205.3,329.7,206.8z M308.9,188.8
		c-0.1,1.1-0.1,2-0.2,3.1c1,0.2,1.8,0.3,2.6,0.4c0.2-0.2,0.3-0.3,0.5-0.5C309.7,191.6,311.8,189,308.9,188.8z M329.3,78.3
		c-0.6,1.4-0.8,2.4,0.4,2.8c0.9,0.4,1.8,0.3,2.3-1C331.2,79.6,330.4,79.1,329.3,78.3z M326.3,33.4c0-0.2,0-0.4,0-0.6
		c-0.9-0.7-1.9-1.4-3-2.3c0.1,1.4,0.1,2.3,0.2,3.7C324.3,34,325.3,33.7,326.3,33.4z M306.9,36.5c-1.7-0.7-2.8-0.7-3.1,0.2
		c-0.1,0.3,0.1,0.9,0.3,1c1.1,0.5,2.1,0.4,2.8-0.8C307,36.9,306.9,36.8,306.9,36.5z M305.4,55c-0.6,1.6-0.6,2.8,0.2,3
		c0.4,0.1,1.1-0.2,1.2-0.5c0.7-1.3-0.2-2-1.2-2.5C305.6,54.9,305.5,55,305.4,55z M308.8,193.3c-0.4,1.5-0.2,2.5,1,3
		c0.8,0.3,1.4-0.1,1.4-1.1C310.5,194.6,309.8,194.1,308.8,193.3z M311.7,14.2c-2.2-0.6-2.3-0.6-3.3,1.1
		C309.7,15.9,310.8,15.7,311.7,14.2z M323.6,208c-0.4,1.5-0.3,2.6,0.9,3.5C325.3,209.2,325.3,209.2,323.6,208z M326.9,35.1
		c-2,1.6-1.9,2.3,0.4,3.4C327.1,37.4,327,36.5,326.9,35.1z M319.2,33.5c-1.2,0.7-2.1,1.1-3.1,1.6C318.1,36.2,318.7,35.9,319.2,33.5z
		 M306.2,173.7c-1-1.3-2.3-1-3.6-0.7C303.5,174.3,304.9,173.7,306.2,173.7z M334.3,90.1c-1.6-0.4-2.4,0-2.7,1.6
		C332.9,91.8,333.7,91.4,334.3,90.1z M331.1,21.1c1.5,0.8,2.3,0.7,3-0.6C332.9,19.7,332.2,20.2,331.1,21.1z M320.2,97.4
		c-0.8-0.5-1.3-0.8-1.8-1c-0.1,0-0.6,0.7-0.6,0.8c0.3,0.4,0.7,0.8,1.2,1C319.2,98.4,319.6,97.9,320.2,97.4z M314.6,180.2
		c0.8-1,1.3-1.7,2-2.5C314.5,177.5,314.3,177.7,314.6,180.2z M323,203.6c-0.7,0.7-1.1,1.2-1.8,2c1.2,0.2,1.8,0.4,2.8,0.6
		C323.6,205.1,323.4,204.6,323,203.6z M308.7,55c-0.1,0.1-0.2,0.3-0.3,0.4c0.3,0.5,0.5,1,0.9,1.3c0.2,0.2,0.7,0.1,1.1,0.2
		c0-0.4,0.1-1.1-0.1-1.3C309.8,55.3,309.2,55.2,308.7,55z M313.2,34.8c-0.2-1.4-0.5-2.2-2-1.8C311.3,34.2,311.7,34.8,313.2,34.8z
		 M312.8,169.1c0.8-0.7,1.4-1.1,2.2-1.8C312.8,167.1,312.8,167.1,312.8,169.1z M311.4,58.6c-1.4-0.3-2.2-0.2-2.6,1.1
		C309.9,60.1,310.6,59.8,311.4,58.6z M324.8,70.4c-0.4-0.4-0.9-0.9-1-0.8c-0.4,0.2-0.7,0.6-0.9,1c-0.1,0.2,0.5,0.8,0.7,0.8
		C324,71.2,324.3,70.8,324.8,70.4z M319.2,77.8c-0.4,0.6-0.8,0.9-0.8,1.3c0,0.2,0.4,0.6,0.7,0.8c0.3-0.3,0.7-0.6,0.8-1
		C320,78.8,319.6,78.4,319.2,77.8z M311.5,31c0.8,0.6,1.5,0.5,2-0.2c0.1-0.2-0.1-0.6-0.1-0.9c-0.6,0.2-1.2,0.4-1.7,0.7
		C311.6,30.6,311.5,30.7,311.5,31z M321.3,63.3c-0.1-0.3-0.2-0.5-0.3-0.8c-1-0.4-1.7-0.2-2.2,1.6C320,63.8,320.7,63.6,321.3,63.3z
		 M331.8,35.3c-0.5-0.5-0.8-0.9-1.2-1c-0.2-0.1-0.9,0.4-0.8,0.6c0.1,0.4,0.3,1,0.7,1.1C330.7,36.1,331.2,35.6,331.8,35.3z
		 M325.6,200.9c-0.7-0.4-1.1-0.9-1.4-0.8c-0.4,0-0.6,0.6-1,0.9c0.3,0.2,0.6,0.6,0.9,0.6C324.5,201.5,324.9,201.2,325.6,200.9z
		 M320.3,28.2c-0.4-0.4-0.7-0.7-1-0.9c-0.3,0.4-0.6,0.7-0.8,1.1c-0.1,0.1,0.4,0.7,0.5,0.7C319.4,28.8,319.7,28.6,320.3,28.2z
		 M330.1,83.7c-0.6-1.2-1.2-1.6-2.4-1.2C328.1,83.6,328.8,83.8,330.1,83.7z M320.4,48.5c0,0.2,0,0.4,0,0.6c1-0.1,2.1,0.4,3-0.6
		C322.4,48.5,321.4,48.5,320.4,48.5z M334.6,200.2c0-0.2-0.1-0.5-0.1-0.7c-0.7-0.4-1.3-0.4-1.8,1
		C333.5,200.4,334.1,200.3,334.6,200.2z M329.1,74.8c-1.1-0.3-1.7,0-2,1.1C328.2,76.2,328.8,75.9,329.1,74.8z M317.2,24.7
		c0.2-1.4-0.3-1.7-1.1-1.8c-0.2,0-0.4,0.2-0.8,0.5C316,23.9,316.5,24.2,317.2,24.7z M313.9,16.1c0.4-0.5,0.7-0.8,0.8-1.1
		c0-0.2-0.4-0.7-0.5-0.7c-0.3,0.1-0.8,0.3-0.9,0.6C313.3,15.2,313.6,15.6,313.9,16.1z M328.6,5.6c-0.7-0.2-1-0.4-1.4-0.4
		c-0.1,0-0.3,0.3-0.5,0.5c0.3,0.2,0.6,0.5,0.9,0.6C327.8,6.3,328.1,6,328.6,5.6z M335,214.1c-0.1-0.2-0.1-0.3-0.2-0.5
		c-0.3,0-0.7-0.1-0.9,0c-0.3,0.2-0.4,0.5-0.5,0.8c0.1,0.1,0.2,0.2,0.3,0.3C334.1,214.6,334.5,214.3,335,214.1z M314.5,28.3
		c-0.4-0.3-0.6-0.6-0.9-0.6c-0.2,0-0.5,0.3-0.7,0.5c0.2,0.2,0.3,0.6,0.6,0.6C313.7,28.8,313.9,28.5,314.5,28.3z M306.5,23.6
		c0.2-0.4,0.4-0.8,0.4-1.1c0-0.2-0.4-0.6-0.6-0.6c-0.3,0.1-0.6,0.4-0.9,0.6C305.6,22.8,305.9,23,306.5,23.6z M325.3,203.1
		c1.6,0.4,2,0,2.2-1.5C326.6,202.2,326.1,202.5,325.3,203.1z M319.7,204c-0.5-0.2-0.8-0.5-1-0.4s-0.5,0.4-0.5,0.7
		c0,0.2,0.5,0.6,0.5,0.6C319,204.7,319.2,204.4,319.7,204z M310.5,170.2c-0.2-0.2-0.4-0.3-0.6-0.5c-0.3,0.4-0.6,0.8-0.8,1.2
		c0.2,0.1,0.3,0.2,0.5,0.4C309.9,170.9,310.2,170.6,310.5,170.2z M323,178.4c0,0.2,0.1,0.5,0.1,0.7c0.7-0.1,1.4-0.3,2.1-0.4
		c0-0.1,0-0.3-0.1-0.4C324.4,178.3,323.7,178.3,323,178.4z M306.5,199.4c-0.3,0.4-0.6,0.7-0.7,1c0,0.1,0.4,0.5,0.4,0.4
		c0.3-0.2,0.6-0.5,0.8-0.8C307.1,200.1,306.8,199.8,306.5,199.4z M321.4,196.3c-0.3-0.3-0.5-0.6-0.7-0.6c-0.3,0.1-0.5,0.3-0.7,0.5
		c0.1,0.2,0.3,0.5,0.4,0.5C320.8,196.7,321,196.5,321.4,196.3z M322.2,202.4c-0.6-0.2-0.9-0.3-1.2-0.3c-0.2,0-0.5,0.3-0.5,0.4
		c0.1,0.3,0.3,0.5,0.5,0.7C321.1,203.2,321.4,202.9,322.2,202.4z M311.4,183.8c-0.3-0.3-0.5-0.5-0.7-0.6c-0.1,0-0.5,0.3-0.5,0.4
		c0.1,0.3,0.3,0.5,0.5,0.7C310.9,184.2,311.1,184,311.4,183.8z M318.4,164.7c-0.4-0.2-0.6-0.4-0.9-0.5c-0.1,0-0.3,0.3-0.4,0.5
		c0.2,0.2,0.4,0.4,0.7,0.5C317.8,165.3,318.1,165,318.4,164.7z M317.9,181.1c-0.1,0.3-0.3,0.5-0.3,0.7s0.3,0.3,0.4,0.5
		c0.1-0.2,0.4-0.5,0.4-0.7C318.4,181.5,318.1,181.3,317.9,181.1z M317.7,14.4c-0.2-0.2-0.4-0.5-0.6-0.5s-0.4,0.2-0.6,0.3
		c0.2,0.2,0.3,0.5,0.6,0.6C317.1,14.9,317.4,14.6,317.7,14.4z M322,185.5c-0.5-0.2-0.7-0.3-0.8-0.3c-0.2,0.1-0.3,0.3-0.5,0.5
		c0.2,0.1,0.4,0.4,0.4,0.4C321.4,186.1,321.6,185.8,322,185.5z M326.5,207.6c0.2-0.3,0.4-0.5,0.4-0.7c0-0.1-0.2-0.4-0.3-0.3
		c-0.2,0-0.5,0.2-0.5,0.3C326.1,207.1,326.3,207.3,326.5,207.6z M315.8,40.4c0,0.1,0,0.3,0,0.4c0.3,0.1,0.7,0.1,1,0.2
		c0-0.2,0-0.4,0.1-0.6C316.5,40.4,316.1,40.4,315.8,40.4z M328.7,208.9c-0.2,0.2-0.4,0.4-0.4,0.6c0,0.2,0.3,0.3,0.5,0.5
		c0.2-0.2,0.4-0.4,0.6-0.6C329.1,209.3,328.9,209.1,328.7,208.9z M305.7,175c-0.2,0.2-0.3,0.3-0.4,0.4c0.2,0.2,0.4,0.4,0.7,0.6
		l0.3-0.3C306.1,175.4,305.9,175.2,305.7,175z M311.7,204.4c-0.2-0.1-0.4-0.3-0.6-0.4c-0.1,0-0.3,0.3-0.3,0.3
		c0.1,0.2,0.3,0.3,0.5,0.5C311.4,204.7,311.6,204.6,311.7,204.4z M331.7,213.8c-0.2,0.2-0.5,0.3-0.5,0.4c0,0.2,0.1,0.4,0.2,0.6
		c0.2-0.1,0.5-0.2,0.7-0.4C332.1,214.4,331.9,214.1,331.7,213.8z M326.9,195.6c-0.2-0.2-0.3-0.4-0.5-0.6c-0.2,0.2-0.4,0.3-0.5,0.5
		c0,0.1,0.2,0.4,0.3,0.5C326.5,196,326.7,195.8,326.9,195.6z M313.4,194.1c-0.2-0.2-0.3-0.3-0.4-0.5c-0.1,0.1-0.3,0.3-0.3,0.3
		c0.1,0.2,0.2,0.4,0.4,0.5C313.1,194.4,313.2,194.3,313.4,194.1z M312.1,209.6c0.2-0.3,0.4-0.4,0.4-0.6c0-0.1-0.2-0.3-0.2-0.3
		c-0.2,0.1-0.4,0.2-0.5,0.3C311.8,209.1,312,209.3,312.1,209.6z M319.6,176.6c0.3-0.4,0.4-0.5,0.5-0.7c-0.2-0.1-0.3-0.3-0.5-0.4
		c0,0-0.3,0.2-0.3,0.3C319.4,176.1,319.5,176.3,319.6,176.6z M311.1,174.4c-0.2-0.1-0.3-0.3-0.5-0.3c0,0-0.2,0.2-0.3,0.3
		c0.1,0.1,0.3,0.3,0.5,0.4C310.8,174.8,311,174.6,311.1,174.4z M322.2,198.2c-0.1-0.2-0.2-0.4-0.3-0.4c-0.2,0-0.4,0.1-0.6,0.2
		c0.1,0.1,0.1,0.3,0.2,0.3C321.8,198.3,322,198.3,322.2,198.2z M321.8,11.9c0.4-0.5,0.5-0.6,0.5-0.7c-0.2-0.1-0.3-0.3-0.5-0.3
		c0,0-0.3,0.2-0.2,0.3C321.6,11.5,321.7,11.7,321.8,11.9z M325.5,49.4c0.2-0.1,0.3-0.2,0.5-0.2c-0.1-0.2-0.2-0.4-0.3-0.5
		c0,0-0.4,0.1-0.3,0.2C325.3,49,325.4,49.2,325.5,49.4z M308.9,202.8c-0.1-0.1-0.2-0.2-0.3-0.3l-0.2,0.1c0,0.1,0,0.3,0.1,0.4
		C308.7,202.9,308.8,202.8,308.9,202.8z M334.6,179.3c0.1,0.1,0.1,0.3,0.2,0.4c0.1,0,0.3,0,0.4-0.1c-0.1-0.2-0.2-0.4-0.3-0.5
		C334.9,179,334.7,179.2,334.6,179.3z M328.1,174.9c-0.1,0.1-0.2,0.2-0.3,0.3c0.1,0.1,0.2,0.2,0.3,0.2l0.2-0.1
		C328.2,175.1,328.2,175,328.1,174.9z M334.9,41.6c-0.1,0-0.3-0.1-0.4-0.1l-0.1,0.2c0.1,0.1,0.2,0.2,0.3,0.3
		C334.8,41.8,334.8,41.7,334.9,41.6z"/>
	<path class="st0" d="M176.3,205.7c0.5,0,1,0,1.5,0c2.7,0.1,3.5,1.1,2.8,3.7c-0.2,0.7-0.6,1.4-0.9,2c0.4,1.1,0.9,2.1,1,3.2
		c0.2,1,0,2.1,0,3.5c-2.7-3-2.7-3-5.7-0.6c-0.2,0.1-0.4,0.2-1,0.1c0.5-0.8,1-1.6,1.5-2.5c-0.3-1-0.9-1.6-2.2-1.6
		c-1.6,0-1.1,1.6-1.7,2.5c-1.7-1.3,0-2.9-0.8-4.2c-0.8-1.2-1.4-2.6-2.2-4.1c1.3-1,3-1,4.6-1.1C174.4,206.8,175.6,207,176.3,205.7
		C176.3,205.8,176.3,205.7,176.3,205.7z M177,208.3c-1.7-1-2.3-1-2.9,0c-0.8,1.3-0.3,2.8,1.3,3.5C175.9,210.7,176.4,209.5,177,208.3
		z"/>
	<path class="st0" d="M163.4,218c-1.2,0.1-2.2,0.2-3.3,0.3c0-0.2-0.1-0.3-0.1-0.5c2-0.7,3.9-1.5,6.2-2.3c-1.1,2.2,0.5,3,1.7,4.3
		c-0.7-0.1-1.4-0.3-2-0.1c-0.6,0.1-1,0.6-1.5,1c0.4,0.4,0.7,0.8,1.1,1.2h0.2c0.8,0.2,1.9,0.3,1.4,1.5c-0.4,1.1-1.5,0.5-2.3,0.3
		c-1.1-0.2-1.9-1.8-1.8-3C163,219.9,163.2,219,163.4,218z"/>
	<path class="st0" d="M1.5,123.2c0.6-1.4,1-2.4,1.5-3.6c0.2,0.1,0.7,0.4,1.1,0.7c0.2-0.1,0.4-0.1,0.5-0.2c0.3-0.7,0.6-1.6,1.6-1
		c0.9,0.5,0.6,1.4,0.2,2C5.2,122.8,3.4,123,1.5,123.2z"/>
	<path class="st0" d="M155.6,224.3c1.6-2.6,3-2.6,6.1-0.3C159.6,225.4,157.5,222.8,155.6,224.3z"/>
	<path class="st0" d="M158.5,211.4c0.5,0.8,1.1,1.6,1.7,2.6c-1.1,0.8-2,1.5-3.2,2.3c-0.4-1-0.7-1.8-1-2.8c1.1,0.1,1.8,0.1,2.7,0.2
		C158.5,212.8,158.5,212.1,158.5,211.4C158.4,211.4,158.5,211.4,158.5,211.4z"/>
	<path class="st0" d="M67.9,18.4c-1.4,0.2-2.5,0.3-3.5,0.4C65.2,16.9,66.4,16.7,67.9,18.4z"/>
	<path class="st0" d="M154,223.1c-1,0.3-2,0.5-3,0.8c-0.1-0.2-0.1-0.4-0.2-0.6c1-0.4,1.9-0.7,2.9-1.1
		C153.8,222.5,153.9,222.8,154,223.1z"/>
	<path class="st0" d="M77.4,35.1c0.6,0.2,1.4,0.2,1.2,1.4c-0.6,0.1-1.3,0.3-2.4,0.5C76.7,36.1,77,35.6,77.4,35.1
		C77.3,35.1,77.4,35.1,77.4,35.1z"/>
	<path class="st0" d="M51.3,17.7c-1.1,0.6-2.1,0.5-3.2-0.4C49.5,16.5,50.4,17.5,51.3,17.7L51.3,17.7z"/>
	<path class="st0" d="M176.5,7c0.8,0,1.6,0,2.6,0C178.1,8.5,177.3,7.3,176.5,7z"/>
	<path class="st0" d="M173.7,220.5c0.5,0.1,1,0.2,1.8,0.4c-0.9,1-1.4,0.6-1.9,0.2C173.6,220.9,173.7,220.7,173.7,220.5z"/>
	<path class="st0" d="M8.3,122c0.2-0.5,0.4-1.1,0.6-1.6c0.2,0.1,0.3,0.1,0.5,0.2c-0.2,0.5-0.4,1.1-0.6,1.6
		C8.7,122.2,8.5,122.1,8.3,122z"/>
	<path class="st0" d="M175.9,5.6c0.7-0.1,1.4-0.1,2.1-0.2c0,0.1,0,0.3,0,0.4c-0.7,0-1.4,0.1-2.1,0.1C175.9,5.9,175.9,5.7,175.9,5.6z
		"/>
	<path class="st0" d="M76.6,39c-0.4,0-0.9,0.1-1.3,0.1c0-0.1,0-0.2,0-0.3c0.4-0.1,0.8-0.2,1.2-0.3C76.5,38.7,76.5,38.8,76.6,39z"/>
	<path class="st0" d="M0.7,128.8c0,0.5,0,0.9,0,1.4c-0.1,0-0.1,0-0.2,0c0-0.5,0-0.9,0-1.4C0.6,128.8,0.6,128.8,0.7,128.8z"/>
	<path class="st0" d="M2.4,126.6c-0.1-0.1-0.3-0.3-0.3-0.3c0.1-0.1,0.2-0.2,0.4-0.3c0.1,0.1,0.2,0.3,0.2,0.4
		C2.6,126.4,2.5,126.5,2.4,126.6z"/>
	<path class="st0" d="M175.3,31.1c-0.1,0.1-0.2,0.2-0.4,0.3c-0.1,0-0.2-0.1-0.3-0.2c0.1-0.1,0.2-0.2,0.4-0.3
		C175,30.8,175.1,31,175.3,31.1z"/>
	<path class="st0" d="M162.7,213.1c-0.1,0.2-0.2,0.5-0.4,0.7c0,0-0.2-0.1-0.4-0.2c0.1-0.2,0.3-0.5,0.4-0.7
		C162.5,212.9,162.6,213,162.7,213.1z"/>
</g>
</svg>
