<?xml version="1.0" encoding="UTF-8"?>
<svg width="96px" height="96px" viewBox="0 0 96 96" version="1.1" xmlns="http://www.w3.org/2000/svg" xmlns:xlink="http://www.w3.org/1999/xlink">
    <title>Money Icon</title>
    <defs>
        <linearGradient x1="49.8019559%" y1="99.8019559%" x2="49.8019559%" y2="0.198044143%" id="linearGradient-1">
            <stop stop-color="#950000" offset="0%"></stop>
            <stop stop-color="#FF2626" offset="100%"></stop>
        </linearGradient>
        <linearGradient x1="49.8019559%" y1="99.8019559%" x2="49.8019559%" y2="0.198044143%" id="linearGradient-2">
            <stop stop-color="#950000" offset="0%"></stop>
            <stop stop-color="#FF2626" offset="100%"></stop>
        </linearGradient>
    </defs>
    <g id="FetishFix--Desktop---Landing-page-Design" stroke="none" stroke-width="1" fill="none" fill-rule="evenodd">
        <g id="Desktop_LP_Home" transform="translate(-1008.000000, -4304.000000)">
            <g id="Section3" transform="translate(252.000000, 4208.000000)">
                <g id="Icons" transform="translate(0.000000, 96.000000)">
                    <g id="Money" transform="translate(672.000000, 0.000000)">
                        <g id="Money-Icon" transform="translate(84.000044, 0.000000)">
                            <path d="M62.5560667,63.7832 C60.2534,66.1618667 56.9707333,67.7318667 52.7094,68.4925333 L52.7094,74.8285333 L44.6607333,74.8285333 L44.6607333,68.7778667 C41.8067333,68.6252 39.0754,68.1872 36.4694,67.4652 C33.8620667,66.7425333 31.7034,65.8478667 29.9907333,64.7818667 L34.3287333,54.9638667 C36.2314,56.0678667 38.3620667,56.9532 40.7220667,57.6185333 C43.0814,58.2845333 45.3460667,58.6172 47.5147333,58.6172 C49.3787333,58.6172 50.7114,58.4372 51.5107333,58.0752 C52.3100667,57.7138667 52.7094,57.1712 52.7094,56.4478667 C52.7094,55.6112 52.1860667,54.9838667 51.1394,54.5645333 C50.0927333,54.1458667 48.3714,53.6892 45.9734,53.1945333 C42.8914,52.5478667 40.3227333,51.8532 38.2674,51.1112 C36.2127333,50.3685333 34.4234,49.1512 32.9020667,47.4578667 C31.3794,45.7645333 30.6187333,43.4718667 30.6187333,40.5792 C30.6187333,37.2312 31.8260667,34.3572 34.2434,31.9598667 C36.6594,29.5625333 40.1314,28.0405333 44.6607333,27.3932 L44.6607333,21.1712 L52.7094,21.1712 L52.7094,27.2792 C57.2760667,27.6985333 61.1380667,28.8018667 64.2967333,30.5898667 L60.2440667,40.3512 C56.3240667,38.3725333 52.6140667,37.3825333 49.1134,37.3825333 C45.6500667,37.3825333 43.9187333,38.2198667 43.9187333,39.8945333 C43.9187333,40.6932 44.4320667,41.2925333 45.4600667,41.6925333 C46.4874,42.0918667 48.1800667,42.5198667 50.5400667,42.9765333 C53.5840667,43.5472 56.1527333,44.2038667 58.2460667,44.9458667 C60.3387333,45.6878667 62.1567333,46.8965333 63.6974,48.5705333 C65.2387333,50.2458667 66.0094,52.5292 66.0094,55.4205333 C66.0094,58.6172 64.8580667,61.4052 62.5560667,63.7832" id="Fill-1" fill="url(#linearGradient-1)"></path>
                            <path d="M48,0 C21.4906667,0 0,21.49 0,48 C0,74.5093333 21.4906667,96 48,96 C74.5093333,96 96,74.5093333 96,48 C96,21.49 74.5093333,0 48,0 M48,3.27466667 C54.0393333,3.27466667 59.896,4.45666667 65.408,6.788 C70.7333333,9.04066667 75.5173333,12.266 79.6253333,16.3746667 C83.734,20.4826667 86.9593333,25.2666667 89.212,30.592 C91.5433333,36.104 92.7253333,41.9606667 92.7253333,48 C92.7253333,54.0393333 91.5433333,59.896 89.212,65.408 C86.9593333,70.7333333 83.734,75.5173333 79.6253333,79.6253333 C75.5173333,83.734 70.7333333,86.9593333 65.408,89.212 C59.896,91.5433333 54.0393333,92.7253333 48,92.7253333 C41.9606667,92.7253333 36.104,91.5433333 30.592,89.212 C25.2666667,86.9593333 20.4826667,83.734 16.3746667,79.6253333 C12.266,75.5173333 9.04066667,70.7333333 6.788,65.408 C4.45666667,59.896 3.27466667,54.0393333 3.27466667,48 C3.27466667,41.9606667 4.45666667,36.104 6.788,30.592 C9.04066667,25.2666667 12.266,20.4826667 16.3746667,16.3746667 C20.4826667,12.266 25.2666667,9.04066667 30.592,6.788 C36.104,4.45666667 41.9606667,3.27466667 48,3.27466667" id="Fill-3" fill="url(#linearGradient-2)"></path>
                        </g>
                    </g>
                </g>
            </g>
        </g>
    </g>
</svg>