<?xml version="1.0" encoding="utf-8"?>
<!-- Generator: Adobe Illustrator 26.0.3, SVG Export Plug-In . SVG Version: 6.00 Build 0)  -->
<svg version="1.1" id="Layer_1" xmlns="http://www.w3.org/2000/svg" xmlns:xlink="http://www.w3.org/1999/xlink" x="0px" y="0px"
	 viewBox="0 0 129 104" style="enable-background:new 0 0 129 104;" xml:space="preserve">
<style type="text/css">
	.st0{fill-rule:evenodd;clip-rule:evenodd;fill:#FFFFFF;}
</style>
<g id="Clip-6">
</g>
<g>
	<path class="st0" d="M83.2,21.5c-5.9,0-10.5,4.6-10.5,10.5c0,1.3,1.1,2.4,2.4,2.4c1.3,0,2.4-1.1,2.4-2.4c0-3.3,2.4-5.7,5.7-5.7
		c3.3,0,5.7,2.4,5.7,5.7c0,3.3-1.4,4.5-3.3,6.3c-2.1,2-4.8,4.5-4.8,9.8v1.3c0,1.3,1.1,2.4,2.4,2.4c1.3,0,2.4-1.1,2.4-2.4v-1.3
		c0-3.3,1.4-4.5,3.3-6.3c2.1-2,4.8-4.5,4.8-9.8C93.7,26.1,89.1,21.5,83.2,21.5z"/>
	<path class="st0" d="M83.2,56.6c-1.3,0-2.4,1.1-2.4,2.4v1.3c0,1.3,1.1,2.4,2.4,2.4c1.3,0,2.4-1.1,2.4-2.4v-1.3
		C85.6,57.6,84.5,56.6,83.2,56.6z"/>
	<path class="st0" d="M66.1,84.8c-6,2.7-12.5,4.1-19.3,4.1c-3.3,0-6.7-0.4-10.2-1.1c-0.7-0.1-1.4,0-2,0.5c-4.8,3.8-10.3,7-15.9,9.3
		c1.3-3.9,2.4-9,2.9-14.5c0.1-0.9-0.3-1.7-1-2.2c-10.1-7-15.8-17.4-15.8-28.6c0-17.1,13.9-32.2,33.1-35.8c1.3-0.2,2.1-1.5,1.9-2.8
		c-0.2-1.3-1.5-2.1-2.8-1.9C15.5,15.8,0,32.8,0,52.2C0,64.5,6.1,76,16.7,83.9c-0.8,7.2-2.7,13.6-4.3,16.6c-0.4,0.9-0.3,1.9,0.3,2.6
		c0.5,0.5,1.1,0.8,1.8,0.8c0.2,0,0.5,0,0.7-0.1c7.6-2.5,15-6.3,21.4-11.2c3.4,0.7,6.8,1,10.1,1c7.5,0,14.6-1.5,21.2-4.5
		c1.2-0.5,1.7-2,1.2-3.2C68.7,84.8,67.3,84.3,66.1,84.8z"/>
	<path class="st0" d="M114.2,71.3c9.2-7.8,14.4-18.6,14.4-29.9c0-22.9-21-41.4-46.8-41.4C56,0,35,18.6,35,41.4
		c0,22.8,21,41.4,46.8,41.4c4,0,8.1-0.5,12.1-1.4c6.6,5.1,14.1,9.1,21.9,11.6c0.2,0.1,0.5,0.1,0.7,0.1c0.7,0,1.4-0.3,1.8-0.8
		c0.6-0.7,0.8-1.8,0.3-2.6C116.9,86.3,114.9,78.9,114.2,71.3z M112.4,86.8c-5.9-2.4-11.5-5.8-16.4-9.7c-0.4-0.3-1-0.5-1.5-0.5
		c-0.2,0-0.4,0-0.6,0.1c-3.9,1-8,1.5-12,1.5c-23.2,0-42.1-16.4-42.1-36.7c0-20.2,18.9-36.7,42.1-36.7c23.2,0,42.1,16.4,42.1,36.7
		c0,10.2-5,20-13.6,26.9c-0.6,0.5-0.9,1.2-0.9,2C109.8,76.5,111,82.4,112.4,86.8z"/>
</g>
</svg>
