<?xml version="1.0" encoding="UTF-8"?>
<svg width="96px" height="96px" viewBox="0 0 96 96" version="1.1" xmlns="http://www.w3.org/2000/svg" xmlns:xlink="http://www.w3.org/1999/xlink">
    <title>User icon</title>
    <defs>
        <linearGradient x1="49.8019559%" y1="99.8019559%" x2="49.8019559%" y2="0.198044143%" id="linearGradient-1">
            <stop stop-color="#950000" offset="0%"></stop>
            <stop stop-color="#FF2626" offset="100%"></stop>
        </linearGradient>
        <linearGradient x1="49.8019559%" y1="99.8019559%" x2="49.8019559%" y2="0.198044143%" id="linearGradient-2">
            <stop stop-color="#950000" offset="0%"></stop>
            <stop stop-color="#FF2626" offset="100%"></stop>
        </linearGradient>
        <polygon id="path-3" points="0 0 96.0000437 0 96.0000437 96 0 96"></polygon>
    </defs>
    <g id="FetishFix--Desktop---Landing-page-Design" stroke="none" stroke-width="1" fill="none" fill-rule="evenodd">
        <g id="Desktop_LP_Home" transform="translate(-336.000000, -4304.000000)">
            <g id="Section3" transform="translate(252.000000, 4208.000000)">
                <g id="Icons" transform="translate(0.000000, 96.000000)">
                    <g id="User-icon" transform="translate(84.000000, 0.000000)">
                        <path d="M60.9448121,34.1159838 C60.9448121,39.0443987 58.1912308,43.3287905 54.1382508,45.5158496 C52.3118446,46.5015326 50.2210614,47.0606321 48.0001637,47.0606321 C45.779266,47.0606321 43.6884829,46.5015326 41.8620767,45.5158496 C37.8090967,43.3287905 35.0555154,39.0443987 35.0555154,34.1159838 C35.0555154,26.9666711 40.8508511,21.1713354 48.0001637,21.1713354 C55.1494764,21.1713354 60.9448121,26.9666711 60.9448121,34.1159838" id="Fill-1" fill="url(#linearGradient-1)"></path>
                        <path d="M59.3633312,47.6277873 C58.4490365,48.395594 57.4495998,49.0765121 56.3748452,49.6580978 C53.8157807,51.0384906 50.9209509,51.7678742 48.0007968,51.7678742 C45.0791146,51.7678742 42.1842848,51.0384906 39.6265302,49.6580978 C38.5504657,49.0765121 37.5508106,48.395594 36.6367343,47.6277873 C30.5700356,50.9788912 26.1400291,56.9303206 24.8517644,63.9807375 C30.3768286,70.610247 38.6954255,74.8287082 48.0007968,74.8287082 C57.3061682,74.8287082 65.6247651,70.610247 71.1480828,63.9807375 C69.8615646,56.9303206 65.4300299,50.9788912 59.3633312,47.6277873" id="Fill-3" fill="url(#linearGradient-2)"></path>
                        <g id="Group-7">
                            <mask id="mask-4" fill="white">
                                <use xlink:href="#path-3"></use>
                            </mask>
                            <g id="Clip-6"></g>
                            <path d="M48.0000109,0 C21.4902688,0 -2.18312955e-05,21.4902906 -2.18312955e-05,48.0000327 C-2.18312955e-05,74.5097748 21.4902688,96.0000655 48.0000109,96.0000655 C74.509753,96.0000655 96.0000437,74.5097748 96.0000437,48.0000327 C96.0000437,21.4902906 74.509753,0 48.0000109,0 M48.0000109,3.27469432 C54.0394205,3.27469432 59.8963204,4.45685897 65.4080676,6.7880047 C70.7335938,9.04055777 75.517049,12.2659134 79.6254805,16.3743449 C83.7341303,20.4829947 86.9594859,25.2664498 89.2118206,30.591976 C91.5431847,36.1037232 92.7253493,41.9606232 92.7253493,48.0000327 C92.7253493,54.039224 91.5431847,59.896124 89.2118206,65.4080895 C86.9594859,70.7336157 83.7341303,75.5170708 79.6254805,79.6255023 C75.517049,83.7341521 70.7335938,86.9595077 65.4080676,89.2118425 C59.8963204,91.5432065 54.0394205,92.7253712 48.0000109,92.7253712 C41.9606013,92.7253712 36.1037014,91.5432065 30.5919542,89.2118425 C25.266428,86.9595077 20.4829728,83.7341521 16.374323,79.6255023 C12.2658915,75.5170708 9.04053594,70.7336157 6.78798287,65.4080895 C4.45683714,59.896124 3.27467249,54.039224 3.27467249,48.0000327 C3.27467249,41.9606232 4.45683714,36.1037232 6.78798287,30.591976 C9.04053594,25.2664498 12.2658915,20.4829947 16.374323,16.3743449 C20.4829728,12.2659134 25.266428,9.04055777 30.5919542,6.7880047 C36.1037014,4.45685897 41.9606013,3.27469432 48.0000109,3.27469432" id="Fill-5" fill="url(#linearGradient-1)" mask="url(#mask-4)"></path>
                        </g>
                    </g>
                </g>
            </g>
        </g>
    </g>
</svg>